SplineFontDB: 3.2
FontName: SireumMonoPlus-Bold
FullName: Sireum Mono Plus Bold
FamilyName: Sireum Mono Plus
Weight: Bold
Copyright: Copyright 2020 The JetBrains Mono Project Authors (https://github.com/JetBrains/JetBrainsMono)\nProgramming ligatures added by Ilya Skriblovsky from FiraCode\nFiraCode Copyright (c) 2015 by Nikita Prokopov
Version: 2.304; ttfautohint (v1.8.4.7-5d5b)
ItalicAngle: 0
UnderlinePosition: -130
UnderlineWidth: 50
Ascent: 800
Descent: 200
InvalidEm: 0
sfntRevision: 0x00024dd3
LayerCount: 2
Layer: 0 1 "Back" 1
Layer: 1 1 "Fore" 0
XUID: [1021 645 1105484185 643319]
StyleMap: 0x0020
FSType: 0
OS2Version: 4
OS2_WeightWidthSlopeOnly: 0
OS2_UseTypoMetrics: 1
CreationTime: 1673704953
ModificationTime: 1702056132
PfmFamily: 17
TTFWeight: 700
TTFWidth: 5
LineGap: 0
VLineGap: 0
Panose: 2 0 0 9 0 0 0 0 0 0
OS2TypoAscent: 1020
OS2TypoAOffset: 0
OS2TypoDescent: -300
OS2TypoDOffset: 0
OS2TypoLinegap: 0
OS2WinAscent: 1020
OS2WinAOffset: 0
OS2WinDescent: 300
OS2WinDOffset: 0
HheadAscent: 1020
HheadAOffset: 0
HheadDescent: -300
HheadDOffset: 0
OS2SubXSize: 650
OS2SubYSize: 600
OS2SubXOff: 0
OS2SubYOff: 75
OS2SupXSize: 650
OS2SupYSize: 600
OS2SupXOff: 0
OS2SupYOff: 350
OS2StrikeYSize: 50
OS2StrikeYPos: 320
OS2CapHeight: 730
OS2XHeight: 550
OS2Vendor: 'JBÿÿ'
OS2CodePages: 2000019f.dfd70000
OS2UnicodeRanges: a00402ff.1200f9fb.0200003c.00000000
Lookup: 4 0 0 "'sireum'" { "'sireum'-1"  } ['liga' ('DFLT' <'dflt' > 'bamu' <'dflt' > 'cyrl' <'SRB ' 'dflt' > 'gjr2' <'dflt' > 'grek' <'dflt' > 'latn' <'AZE ' 'CAT ' 'CRT ' 'ESP ' 'GAL ' 'ISM ' 'KAZ ' 'KSM ' 'LSM ' 'MOL ' 'NSM ' 'ROM ' 'SKS ' 'SSM ' 'TAT ' 'TRK ' 'dflt' > 'math' <'dflt' > ) ]

StartChar: .notdef
Encoding: 1114112 -1 0
Width: 600
Flags: W
LayerCount: 2
Fore
SplineSet
90 0 m 1,0,-1
 90 730 l 1,1,-1
 510 730 l 1,2,-1
 510 0 l 1,3,-1
 90 0 l 1,0,-1
140 109 m 1,4,-1
 440 680 l 1,5,-1
 140 680 l 1,6,-1
 140 109 l 1,4,-1
160 50 m 1,7,-1
 460 50 l 1,8,-1
 460 621 l 1,9,-1
 160 50 l 1,7,-1
EndSplineSet
EndChar

StartChar: exclam
Encoding: 33 33 5
Width: 600
GlyphClass: 2
Flags: W
LayerCount: 2
Fore
SplineSet
246 227 m 1,0,-1
 232 730 l 1,1,-1
 368 730 l 1,2,-1
 354 227 l 1,3,-1
 246 227 l 1,0,-1
285 -5 m 2,4,5
 254 -5 254 -5 235 13.5 c 128,-1,6
 216 32 216 32 216 61 c 256,7,8
 216 90 216 90 235 108.5 c 128,-1,9
 254 127 254 127 285 127 c 2,10,-1
 315 127 l 2,11,12
 347 127 347 127 365.5 108.5 c 128,-1,13
 384 90 384 90 384 61 c 256,14,15
 384 32 384 32 364.5 13.5 c 128,-1,16
 345 -5 345 -5 314 -5 c 2,17,-1
 285 -5 l 2,4,5
EndSplineSet
Substitution2: "Single Substitution lookup 872 subtable" numbersign_exclam.liga
Substitution2: "Single Substitution lookup 666 subtable" SPC
Substitution2: "Single Substitution lookup 663 subtable" SPC
Substitution2: "Single Substitution lookup 661 subtable" SPC
Substitution2: "Single Substitution lookup 660 subtable" exclam_exclam.liga
Substitution2: "Single Substitution lookup 658 subtable" SPC
Substitution2: "Single Substitution lookup 581 subtable" SPC
Substitution2: "Single Substitution lookup 503 subtable" SPC
Substitution2: "Single Substitution lookup 501 subtable" SPC
Substitution2: "Single Substitution lookup 500 subtable" SPC
Substitution2: "Single Substitution lookup 498 subtable" SPC
Substitution2: "Single Substitution lookup 497 subtable" braceleft_exclam_exclam.liga
AlternateSubs2: "'aalt' Access All Alternates in Latin lookup 478 subtable" braceleft_exclam_exclam.liga exclam_exclam.liga numbersign_exclam.liga SPC
Substitution2: "Single Substitution lookup 398 subtable" CR.27.0
Substitution2: "Single Substitution lookup 395 subtable" CR.28.0
Substitution2: "Single Substitution lookup 394 subtable" lig.28
Substitution2: "Single Substitution lookup 319 subtable" lig.53
Substitution2: "Single Substitution lookup 205 subtable" CR.87.1
Substitution2: "Single Substitution lookup 190 subtable" CR.91.0
Substitution2: "Single Substitution lookup 186 subtable" CR.92.0
Substitution2: "Single Substitution lookup 185 subtable" CR.92.1
Substitution2: "Single Substitution lookup 14 subtable" CR.134.1
EndChar

StartChar: numbersign
Encoding: 35 35 7
Width: 600
GlyphClass: 2
Flags: W
LayerCount: 2
Fore
SplineSet
77 0 m 1,0,-1
 111 190 l 1,1,-1
 35 190 l 1,2,-1
 35 275 l 1,3,-1
 125 275 l 1,4,-1
 156 455 l 1,5,-1
 70 455 l 1,6,-1
 70 540 l 1,7,-1
 171 540 l 1,8,-1
 205 730 l 1,9,-1
 293 730 l 1,10,-1
 259 540 l 1,11,-1
 401 540 l 1,12,-1
 435 730 l 1,13,-1
 523 730 l 1,14,-1
 489 540 l 1,15,-1
 565 540 l 1,16,-1
 565 455 l 1,17,-1
 474 455 l 1,18,-1
 443 275 l 1,19,-1
 530 275 l 1,20,-1
 530 190 l 1,21,-1
 428 190 l 1,22,-1
 395 0 l 1,23,-1
 307 0 l 1,24,-1
 341 190 l 1,25,-1
 198 190 l 1,26,-1
 165 0 l 1,27,-1
 77 0 l 1,0,-1
213 275 m 1,28,-1
 355 275 l 1,29,-1
 386 455 l 1,30,-1
 244 455 l 1,31,-1
 213 275 l 1,28,-1
EndSplineSet
Substitution2: "Single Substitution lookup 880 subtable" bracketright_numbersign.liga
Substitution2: "Single Substitution lookup 878 subtable" SPC
Substitution2: "Single Substitution lookup 876 subtable" SPC
Substitution2: "Single Substitution lookup 874 subtable" SPC
Substitution2: "Single Substitution lookup 872 subtable" SPC
Substitution2: "Single Substitution lookup 870 subtable" SPC
Substitution2: "Single Substitution lookup 868 subtable" SPC
Substitution2: "Single Substitution lookup 866 subtable" SPC
Substitution2: "Single Substitution lookup 864 subtable" SPC
Substitution2: "Single Substitution lookup 862 subtable" SPC
Substitution2: "Single Substitution lookup 589 subtable" SPC
Substitution2: "Single Substitution lookup 520 subtable" SPC
Substitution2: "Single Substitution lookup 519 subtable" SPC
Substitution2: "Single Substitution lookup 518 subtable" SPC
Substitution2: "Single Substitution lookup 517 subtable" numbersign_numbersign_numbersign_numbersign.liga
Substitution2: "Single Substitution lookup 515 subtable" SPC
Substitution2: "Single Substitution lookup 514 subtable" SPC
Substitution2: "Single Substitution lookup 513 subtable" numbersign_numbersign_numbersign.liga
Substitution2: "Single Substitution lookup 511 subtable" SPC
Substitution2: "Single Substitution lookup 510 subtable" numbersign_numbersign.liga
AlternateSubs2: "'aalt' Access All Alternates in Latin lookup 478 subtable" bracketright_numbersign.liga numbersign_numbersign.liga numbersign_numbersign_numbersign.liga numbersign_numbersign_numbersign_numbersign.liga SPC
Substitution2: "Single Substitution lookup 421 subtable" lig.19
Substitution2: "Single Substitution lookup 332 subtable" CR.49.0
Substitution2: "Single Substitution lookup 329 subtable" CR.50.0
Substitution2: "Single Substitution lookup 326 subtable" CR.51.0
Substitution2: "Single Substitution lookup 323 subtable" CR.52.0
Substitution2: "Single Substitution lookup 320 subtable" CR.53.0
Substitution2: "Single Substitution lookup 317 subtable" CR.54.0
Substitution2: "Single Substitution lookup 316 subtable" lig.54
Substitution2: "Single Substitution lookup 314 subtable" CR.55.0
Substitution2: "Single Substitution lookup 311 subtable" CR.56.0
Substitution2: "Single Substitution lookup 308 subtable" CR.57.0
Substitution2: "Single Substitution lookup 70 subtable" CR.121.0
Substitution2: "Single Substitution lookup 69 subtable" CR.121.1
Substitution2: "Single Substitution lookup 68 subtable" lig.121
Substitution2: "Single Substitution lookup 66 subtable" CR.122.0
Substitution2: "Single Substitution lookup 10 subtable" CR.135.0
Substitution2: "Single Substitution lookup 9 subtable" CR.135.1
Substitution2: "Single Substitution lookup 8 subtable" CR.135.2
Substitution2: "Single Substitution lookup 7 subtable" lig.135
EndChar

StartChar: dollar
Encoding: 36 36 8
Width: 600
GlyphClass: 2
Flags: W
LayerCount: 2
Fore
SplineSet
269 -140 m 1,0,-1
 269 -8 l 1,1,2
 171 0 171 0 114.5 54 c 128,-1,3
 58 108 58 108 57 196 c 1,4,-1
 182 196 l 1,5,6
 182 159 182 159 205 134.5 c 128,-1,7
 228 110 228 110 269 102 c 1,8,-1
 269 314 l 1,9,-1
 251 319 l 2,10,11
 165 341 165 341 118.5 398 c 128,-1,12
 72 455 72 455 72 536 c 0,13,14
 72 621 72 621 125 675.5 c 128,-1,15
 178 730 178 730 269 738 c 1,16,-1
 269 870 l 1,17,-1
 331 870 l 1,18,-1
 331 739 l 1,19,20
 424 731 424 731 477.5 677.5 c 128,-1,21
 531 624 531 624 532 539 c 1,22,-1
 407 539 l 1,23,24
 407 613 407 613 331 628 c 1,25,-1
 331 426 l 1,26,-1
 364 417 l 2,27,28
 451 395 451 395 497 338.5 c 128,-1,29
 543 282 543 282 543 199 c 0,30,31
 543 112 543 112 485.5 55.5 c 128,-1,32
 428 -1 428 -1 331 -9 c 1,33,-1
 331 -140 l 1,34,-1
 269 -140 l 1,0,-1
197 543 m 0,35,36
 197 508 197 508 215.5 482 c 128,-1,37
 234 456 234 456 269 444 c 1,38,-1
 269 628 l 1,39,40
 197 614 197 614 197 543 c 0,35,36
331 101 m 1,41,42
 372 107 372 107 395 131.5 c 128,-1,43
 418 156 418 156 418 194 c 0,44,45
 418 231 418 231 395 258 c 128,-1,46
 372 285 372 285 331 294 c 1,47,-1
 331 101 l 1,41,42
EndSplineSet
Substitution2: "'cv14' Character Variants 14 in Latin lookup 929 subtable" dollar.cv14
Substitution2: "Single Substitution lookup 842 subtable" SPC
Substitution2: "Single Substitution lookup 840 subtable" less_dollar.liga
Substitution2: "Single Substitution lookup 838 subtable" SPC
AlternateSubs2: "'aalt' Access All Alternates in Latin lookup 478 subtable" less_dollar.liga SPC
Substitution2: "Single Substitution lookup 407 subtable" CR.24.0
Substitution2: "Single Substitution lookup 352 subtable" lig.42
Substitution2: "Single Substitution lookup 125 subtable" CR.107.1
EndChar

StartChar: percent
Encoding: 37 37 9
Width: 600
GlyphClass: 2
Flags: W
LayerCount: 2
Fore
SplineSet
151 400 m 0,0,1
 83 400 83 400 44 436.5 c 128,-1,2
 5 473 5 473 6 535 c 2,3,-1
 6 600 l 2,4,5
 5 662 5 662 44.5 698.5 c 128,-1,6
 84 735 84 735 151 735 c 0,7,8
 217 735 217 735 256.5 698.5 c 128,-1,9
 296 662 296 662 297 600 c 2,10,-1
 297 535 l 2,11,12
 297 473 297 473 257.5 436.5 c 128,-1,13
 218 400 218 400 151 400 c 0,0,1
0 0 m 1,14,-1
 510 730 l 1,15,-1
 600 730 l 1,16,-1
 90 0 l 1,17,-1
 0 0 l 1,14,-1
151 477 m 256,18,19
 177 477 177 477 192.5 492.5 c 128,-1,20
 208 508 208 508 208 535 c 2,21,-1
 208 600 l 2,22,23
 208 627 208 627 193 642.5 c 128,-1,24
 178 658 178 658 152 658 c 256,25,26
 126 658 126 658 110.5 642.5 c 128,-1,27
 95 627 95 627 95 600 c 2,28,-1
 95 535 l 2,29,30
 95 508 95 508 110 492.5 c 128,-1,31
 125 477 125 477 151 477 c 256,18,19
448 -5 m 0,32,33
 382 -5 382 -5 342.5 31.5 c 128,-1,34
 303 68 303 68 303 130 c 2,35,-1
 303 195 l 2,36,37
 303 257 303 257 342 293.5 c 128,-1,38
 381 330 381 330 448 330 c 256,39,40
 515 330 515 330 554.5 293.5 c 128,-1,41
 594 257 594 257 594 195 c 2,42,-1
 594 130 l 2,43,44
 594 68 594 68 554.5 31.5 c 128,-1,45
 515 -5 515 -5 448 -5 c 0,32,33
448 73 m 256,46,47
 474 73 474 73 489.5 88.5 c 128,-1,48
 505 104 505 104 505 130 c 2,49,-1
 505 195 l 2,50,51
 505 222 505 222 489.5 237.5 c 128,-1,52
 474 253 474 253 448 253 c 0,53,54
 423 253 423 253 407.5 237.5 c 128,-1,55
 392 222 392 222 392 195 c 2,56,-1
 392 130 l 2,57,58
 391 104 391 104 406.5 88.5 c 128,-1,59
 422 73 422 73 448 73 c 256,46,47
EndSplineSet
Substitution2: "Single Substitution lookup 305 subtable" CR.58.0
Substitution2: "Single Substitution lookup 304 subtable" lig.58
EndChar

StartChar: ampersand
Encoding: 38 38 10
Width: 600
GlyphClass: 2
Flags: W
LayerCount: 2
Fore
SplineSet
223 -10 m 0,0,1
 128 -10 128 -10 72.5 42.5 c 128,-1,2
 17 95 17 95 17 183 c 2,3,-1
 17 249 l 2,4,5
 17 326 17 326 57 374 c 128,-1,6
 97 422 97 422 165 430 c 1,7,-1
 143 460 l 2,8,9
 121 490 121 490 109.5 519.5 c 128,-1,10
 98 549 98 549 98 576 c 0,11,12
 98 624 98 624 121.5 661 c 128,-1,13
 145 698 145 698 186.5 719 c 128,-1,14
 228 740 228 740 282 740 c 0,15,16
 340 740 340 740 383.5 715.5 c 128,-1,17
 427 691 427 691 451.5 646.5 c 128,-1,18
 476 602 476 602 476 544 c 1,19,-1
 361 544 l 1,20,21
 361 587 361 587 339 613 c 128,-1,22
 317 639 317 639 282 639 c 0,23,24
 252 639 252 639 233 620 c 128,-1,25
 214 601 214 601 214 571 c 0,26,27
 214 557 214 557 220 541 c 128,-1,28
 226 525 226 525 236 512 c 2,29,-1
 420 269 l 1,30,-1
 496 365 l 1,31,-1
 624 365 l 1,32,-1
 482 185 l 1,33,-1
 621 0 l 1,34,-1
 490 0 l 1,35,-1
 415 100 l 1,36,-1
 396 76 l 2,37,38
 367 36 367 36 321 13 c 128,-1,39
 275 -10 275 -10 223 -10 c 0,0,1
227 94 m 0,40,41
 257 94 257 94 280.5 108 c 128,-1,42
 304 122 304 122 323 148 c 2,43,-1
 351 183 l 1,44,-1
 234 338 l 1,45,-1
 220 338 l 2,46,47
 181 338 181 338 158.5 314 c 128,-1,48
 136 290 136 290 136 249 c 2,49,-1
 136 183 l 2,50,51
 136 142 136 142 160.5 118 c 128,-1,52
 185 94 185 94 227 94 c 0,40,41
EndSplineSet
Substitution2: "'cv15' Character Variants 15 in Latin lookup 930 subtable" ampersand.cv15
Substitution2: "Single Substitution lookup 760 subtable" SPC
Substitution2: "Single Substitution lookup 759 subtable" SPC
Substitution2: "Single Substitution lookup 758 subtable" ampersand_ampersand_ampersand.liga
Substitution2: "Single Substitution lookup 756 subtable" SPC
Substitution2: "Single Substitution lookup 754 subtable" SPC
Substitution2: "Single Substitution lookup 753 subtable" ampersand_ampersand.liga
AlternateSubs2: "'aalt' Access All Alternates in Latin lookup 478 subtable" ampersand_ampersand.liga ampersand_ampersand_ampersand.liga SPC
Substitution2: "Single Substitution lookup 476 subtable" CR.1.0
Substitution2: "Single Substitution lookup 475 subtable" lig.1
EndChar

StartChar: quotesingle
Encoding: 39 39 11
Width: 600
GlyphClass: 2
Flags: W
LayerCount: 2
Fore
SplineSet
242 430 m 1,0,-1
 233 730 l 1,1,-1
 367 730 l 1,2,-1
 359 430 l 1,3,-1
 242 430 l 1,0,-1
EndSplineSet
EndChar

StartChar: parenleft
Encoding: 40 40 12
Width: 600
GlyphClass: 2
Flags: W
LayerCount: 2
Fore
SplineSet
485 -120 m 1,0,1
 333 -85 333 -85 250 17.5 c 128,-1,2
 167 120 167 120 167 271 c 2,3,-1
 167 450 l 2,4,5
 167 600 167 600 250 702 c 128,-1,6
 333 804 333 804 485 840 c 1,7,-1
 485 716 l 1,8,9
 396 695 396 695 344.5 623.5 c 128,-1,10
 293 552 293 552 293 450 c 2,11,-1
 293 271 l 2,12,13
 293 169 293 169 344.5 97.5 c 128,-1,14
 396 26 396 26 485 5 c 1,15,-1
 485 -120 l 1,0,1
EndSplineSet
Substitution2: "Single Substitution lookup 878 subtable" numbersign_underscore_parenleft.liga
Substitution2: "Single Substitution lookup 866 subtable" numbersign_parenleft.liga
AlternateSubs2: "'aalt' Access All Alternates in Latin lookup 478 subtable" numbersign_parenleft.liga numbersign_underscore_parenleft.liga
Substitution2: "Single Substitution lookup 313 subtable" lig.55
Substitution2: "Single Substitution lookup 64 subtable" lig.122
EndChar

StartChar: parenright
Encoding: 41 41 13
Width: 600
GlyphClass: 2
Flags: W
LayerCount: 2
Fore
SplineSet
115 -120 m 1,0,-1
 115 5 l 1,1,2
 204 26 204 26 255.5 97.5 c 128,-1,3
 307 169 307 169 307 271 c 2,4,-1
 307 450 l 2,5,6
 307 552 307 552 255.5 623.5 c 128,-1,7
 204 695 204 695 115 716 c 1,8,-1
 115 840 l 1,9,10
 267 804 267 804 350 702 c 128,-1,11
 433 600 433 600 433 450 c 2,12,-1
 433 271 l 2,13,14
 433 120 433 120 350 17.5 c 128,-1,15
 267 -85 267 -85 115 -120 c 1,0,-1
EndSplineSet
EndChar

StartChar: asterisk
Encoding: 42 42 14
Width: 600
GlyphClass: 2
Flags: W
LayerCount: 2
Fore
SplineSet
183 98 m 1,0,-1
 100 157 l 1,1,-1
 170 256 l 2,2,3
 184 276 184 276 201.5 294.5 c 128,-1,4
 219 313 219 313 239 330 c 1,5,6
 186 335 186 335 145 350 c 2,7,-1
 32 392 l 1,8,-1
 67 487 l 1,9,-1
 180 446 l 2,10,11
 220 431 220 431 263 403 c 1,12,13
 257 426 257 426 253 449.5 c 128,-1,14
 249 473 249 473 249 499 c 2,15,-1
 249 620 l 1,16,-1
 351 620 l 1,17,-1
 351 499 l 2,18,19
 351 473 351 473 347 449.5 c 128,-1,20
 343 426 343 426 336 403 c 1,21,22
 380 431 380 431 420 446 c 2,23,-1
 533 487 l 1,24,-1
 568 392 l 1,25,-1
 455 350 l 2,26,27
 414 335 414 335 361 330 c 1,28,29
 381 313 381 313 398.5 294.5 c 128,-1,30
 416 276 416 276 430 256 c 2,31,-1
 500 157 l 1,32,-1
 417 98 l 1,33,-1
 346 197 l 2,34,35
 332 217 332 217 320.5 239.5 c 128,-1,36
 309 262 309 262 300 286 c 1,37,38
 291 263 291 263 279.5 240 c 128,-1,39
 268 217 268 217 254 197 c 2,40,-1
 183 98 l 1,0,-1
EndSplineSet
Substitution2: "Single Substitution lookup 854 subtable" SPC
Substitution2: "Single Substitution lookup 852 subtable" less_asterisk.liga
Substitution2: "Single Substitution lookup 850 subtable" SPC
Substitution2: "Single Substitution lookup 560 subtable" SPC
Substitution2: "Single Substitution lookup 559 subtable" SPC
Substitution2: "Single Substitution lookup 558 subtable" asterisk_asterisk_asterisk.liga
Substitution2: "Single Substitution lookup 556 subtable" SPC
Substitution2: "Single Substitution lookup 554 subtable" SPC
Substitution2: "Single Substitution lookup 553 subtable" slash_asterisk_asterisk.liga
Substitution2: "Single Substitution lookup 551 subtable" slash_asterisk.liga
AlternateSubs2: "'aalt' Access All Alternates in Latin lookup 478 subtable" asterisk_asterisk_asterisk.liga slash_asterisk.liga slash_asterisk_asterisk.liga less_asterisk.liga SPC
Substitution2: "Single Substitution lookup 458 subtable" CR.7.0
Substitution2: "Single Substitution lookup 457 subtable" lig.7
Substitution2: "Single Substitution lookup 455 subtable" CR.8.0
Substitution2: "Single Substitution lookup 452 subtable" CR.9.0
Substitution2: "Single Substitution lookup 361 subtable" lig.39
Substitution2: "Single Substitution lookup 271 subtable" lig.69
Substitution2: "Single Substitution lookup 250 subtable" CR.76.0
Substitution2: "Single Substitution lookup 249 subtable" CR.76.1
Substitution2: "Single Substitution lookup 248 subtable" lig.76
Substitution2: "Single Substitution lookup 137 subtable" CR.104.1
EndChar

StartChar: plus
Encoding: 43 43 15
Width: 600
GlyphClass: 2
Flags: W
LayerCount: 2
Fore
SplineSet
238 92 m 1,0,-1
 238 272 l 1,1,-1
 59 272 l 1,2,-1
 59 388 l 1,3,-1
 238 388 l 1,4,-1
 238 568 l 1,5,-1
 362 568 l 1,6,-1
 362 388 l 1,7,-1
 541 388 l 1,8,-1
 541 272 l 1,9,-1
 362 272 l 1,10,-1
 362 92 l 1,11,-1
 238 92 l 1,0,-1
EndSplineSet
Substitution2: "'sups' Superscript in Latin lookup 902 subtable" uni207A
Substitution2: "Single Substitution lookup 848 subtable" SPC
Substitution2: "Single Substitution lookup 846 subtable" less_plus.liga
Substitution2: "Single Substitution lookup 844 subtable" SPC
Substitution2: "Single Substitution lookup 567 subtable" SPC
Substitution2: "Single Substitution lookup 566 subtable" SPC
Substitution2: "Single Substitution lookup 565 subtable" plus_plus_plus.liga
Substitution2: "Single Substitution lookup 563 subtable" SPC
Substitution2: "Single Substitution lookup 562 subtable" plus_plus.liga
AlternateSubs2: "'aalt' Access All Alternates in Latin lookup 478 subtable" uni207A plus_plus.liga plus_plus_plus.liga less_plus.liga SPC
Substitution2: "Single Substitution lookup 337 subtable" lig.47
Substitution2: "Single Substitution lookup 290 subtable" CR.63.0
Substitution2: "Single Substitution lookup 287 subtable" CR.64.0
Substitution2: "Single Substitution lookup 286 subtable" lig.64
Substitution2: "Single Substitution lookup 77 subtable" CR.119.1
Substitution2: "Single Substitution lookup 50 subtable" CR.126.0
Substitution2: "Single Substitution lookup 49 subtable" CR.126.1
Substitution2: "Single Substitution lookup 48 subtable" lig.126
EndChar

StartChar: comma
Encoding: 44 44 16
Width: 600
GlyphClass: 2
Flags: W
LayerCount: 2
Fore
SplineSet
190 -160 m 1,0,-1
 243 146 l 1,1,-1
 386 146 l 1,2,-1
 310 -160 l 1,3,-1
 190 -160 l 1,0,-1
EndSplineSet
EndChar

StartChar: hyphen
Encoding: 45 45 17
Width: 600
GlyphClass: 2
Flags: W
LayerCount: 2
Fore
SplineSet
140 272 m 1,0,-1
 140 388 l 1,1,-1
 460 388 l 1,2,-1
 460 272 l 1,3,-1
 140 272 l 1,0,-1
EndSplineSet
Substitution2: "Single Substitution lookup 832 subtable" asciitilde_hyphen.liga
Substitution2: "Single Substitution lookup 825 subtable" SPC
Substitution2: "Single Substitution lookup 820 subtable" SPC
Substitution2: "Single Substitution lookup 814 subtable" SPC
Substitution2: "Single Substitution lookup 808 subtable" SPC
Substitution2: "Single Substitution lookup 806 subtable" SPC
Substitution2: "Single Substitution lookup 796 subtable" SPC
Substitution2: "Single Substitution lookup 794 subtable" greater_hyphen.liga
Substitution2: "Single Substitution lookup 791 subtable" greater_greater_hyphen.liga
Substitution2: "Single Substitution lookup 770 subtable" SPC
Substitution2: "Single Substitution lookup 738 subtable" SPC
Substitution2: "Single Substitution lookup 737 subtable" SPC
Substitution2: "Single Substitution lookup 736 subtable" hyphen_hyphen_hyphen.liga
Substitution2: "Single Substitution lookup 734 subtable" SPC
Substitution2: "Single Substitution lookup 733 subtable" less_hyphen_hyphen.liga
Substitution2: "Single Substitution lookup 731 subtable" SPC
Substitution2: "Single Substitution lookup 730 subtable" hyphen_hyphen.liga
Substitution2: "Single Substitution lookup 723 subtable" bar_hyphen.liga
Substitution2: "Single Substitution lookup 717 subtable" bar_bar_hyphen.liga
Substitution2: "Single Substitution lookup 630 subtable" SPC
Substitution2: "Single Substitution lookup 628 subtable" SPC
Substitution2: "Single Substitution lookup 627 subtable" SPC
Substitution2: "Single Substitution lookup 624 subtable" SPC
Substitution2: "Single Substitution lookup 622 subtable" SPC
Substitution2: "Single Substitution lookup 611 subtable" SPC
Substitution2: "Single Substitution lookup 590 subtable" SPC
Substitution2: "Single Substitution lookup 589 subtable" less_numbersign_hyphen_hyphen.liga
Substitution2: "Single Substitution lookup 587 subtable" less_hyphen.liga
Substitution2: "Single Substitution lookup 584 subtable" less_less_hyphen.liga
Substitution2: "Single Substitution lookup 582 subtable" SPC
Substitution2: "Single Substitution lookup 581 subtable" less_exclam_hyphen_hyphen.liga
Substitution2: "Single Substitution lookup 504 subtable" SPC
Substitution2: "Single Substitution lookup 503 subtable" braceleft_exclam_hyphen_hyphen.liga
Substitution2: "Single Substitution lookup 495 subtable" SPC
Substitution2: "Single Substitution lookup 494 subtable" SPC
Substitution2: "Single Substitution lookup 492 subtable" SPC
Substitution2: "Single Substitution lookup 491 subtable" braceleft_braceleft_hyphen_hyphen.liga
AlternateSubs2: "'aalt' Access All Alternates in Latin lookup 478 subtable" hyphen_hyphen.liga hyphen_hyphen_hyphen.liga braceleft_braceleft_hyphen_hyphen.liga braceleft_exclam_hyphen_hyphen.liga bar_hyphen.liga bar_bar_hyphen.liga greater_hyphen.liga greater_greater_hyphen.liga less_hyphen.liga less_hyphen_hyphen.liga less_exclam_hyphen_hyphen.liga less_numbersign_hyphen_hyphen.liga less_less_hyphen.liga asciitilde_hyphen.liga SPC
Substitution2: "Single Substitution lookup 460 subtable" lig.6
Substitution2: "Single Substitution lookup 430 subtable" lig.16
Substitution2: "Single Substitution lookup 382 subtable" lig.32
Substitution2: "Single Substitution lookup 380 subtable" CR.33.0
Substitution2: "Single Substitution lookup 377 subtable" CR.34.0
Substitution2: "Single Substitution lookup 374 subtable" CR.35.0
Substitution2: "Single Substitution lookup 371 subtable" CR.36.0
Substitution2: "Single Substitution lookup 370 subtable" lig.36
Substitution2: "Single Substitution lookup 368 subtable" CR.37.0
Substitution2: "Single Substitution lookup 343 subtable" lig.45
Substitution2: "Single Substitution lookup 298 subtable" lig.60
Substitution2: "Single Substitution lookup 236 subtable" lig.79
Substitution2: "Single Substitution lookup 229 subtable" CR.81.1
Substitution2: "Single Substitution lookup 168 subtable" lig.96
Substitution2: "Single Substitution lookup 165 subtable" CR.97.1
Substitution2: "Single Substitution lookup 162 subtable" CR.98.0
Substitution2: "Single Substitution lookup 158 subtable" CR.99.0
Substitution2: "Single Substitution lookup 157 subtable" CR.99.1
Substitution2: "Single Substitution lookup 154 subtable" CR.100.0
Substitution2: "Single Substitution lookup 153 subtable" CR.100.1
Substitution2: "Single Substitution lookup 152 subtable" lig.100
Substitution2: "Single Substitution lookup 150 subtable" CR.101.0
Substitution2: "Single Substitution lookup 105 subtable" CR.112.1
Substitution2: "Single Substitution lookup 101 subtable" CR.113.1
Substitution2: "Single Substitution lookup 97 subtable" CR.114.1
Substitution2: "Single Substitution lookup 96 subtable" lig.114
Substitution2: "Single Substitution lookup 93 subtable" CR.115.1
Substitution2: "Single Substitution lookup 84 subtable" lig.117
Substitution2: "Single Substitution lookup 13 subtable" CR.134.2
Substitution2: "Single Substitution lookup 12 subtable" lig.134
Substitution2: "Single Substitution lookup 3 subtable" CR.136.2
EndChar

StartChar: period
Encoding: 46 46 18
Width: 600
GlyphClass: 2
Flags: W
LayerCount: 2
Fore
SplineSet
300 -10 m 256,0,1
 258 -10 258 -10 232.5 15.5 c 128,-1,2
 207 41 207 41 207 82 c 256,3,4
 207 123 207 123 232.5 149 c 128,-1,5
 258 175 258 175 300 175 c 256,6,7
 342 175 342 175 367.5 149 c 128,-1,8
 393 123 393 123 393 82 c 256,9,10
 393 41 393 41 367.5 15.5 c 128,-1,11
 342 -10 342 -10 300 -10 c 256,0,1
EndSplineSet
Substitution2: "Single Substitution lookup 762 subtable" SPC
Substitution2: "Single Substitution lookup 751 subtable" question_period.liga
Substitution2: "Single Substitution lookup 579 subtable" SPC
Substitution2: "Single Substitution lookup 578 subtable" SPC
Substitution2: "Single Substitution lookup 576 subtable" SPC
Substitution2: "Single Substitution lookup 575 subtable" SPC
Substitution2: "Single Substitution lookup 574 subtable" period_period_period.liga
Substitution2: "Single Substitution lookup 572 subtable" SPC
Substitution2: "Single Substitution lookup 571 subtable" period_period.liga
Substitution2: "Single Substitution lookup 569 subtable" SPC
AlternateSubs2: "'aalt' Access All Alternates in Latin lookup 478 subtable" period_period.liga period_period_period.liga question_period.liga SPC
Substitution2: "Single Substitution lookup 302 subtable" CR.59.0
Substitution2: "Single Substitution lookup 299 subtable" CR.60.0
Substitution2: "Single Substitution lookup 296 subtable" CR.61.0
Substitution2: "Single Substitution lookup 295 subtable" lig.61
Substitution2: "Single Substitution lookup 293 subtable" CR.62.0
Substitution2: "Single Substitution lookup 280 subtable" lig.66
Substitution2: "Single Substitution lookup 184 subtable" lig.92
Substitution2: "Single Substitution lookup 62 subtable" CR.123.0
Substitution2: "Single Substitution lookup 61 subtable" CR.123.1
Substitution2: "Single Substitution lookup 58 subtable" CR.124.0
Substitution2: "Single Substitution lookup 57 subtable" CR.124.1
Substitution2: "Single Substitution lookup 54 subtable" CR.125.0
Substitution2: "Single Substitution lookup 53 subtable" CR.125.1
Substitution2: "Single Substitution lookup 52 subtable" lig.125
EndChar

StartChar: slash
Encoding: 47 47 19
Width: 600
GlyphClass: 2
Flags: W
LayerCount: 2
Fore
SplineSet
60 -110 m 1,0,-1
 410 830 l 1,1,-1
 540 830 l 1,2,-1
 190 -110 l 1,3,-1
 60 -110 l 1,0,-1
EndSplineSet
Substitution2: "'frac' Diagonal Fractions in Latin lookup 903 subtable" fraction
Substitution2: "Single Substitution lookup 860 subtable" SPC
Substitution2: "Single Substitution lookup 858 subtable" less_slash.liga
Substitution2: "Single Substitution lookup 856 subtable" SPC
Substitution2: "Single Substitution lookup 767 subtable" SPC
Substitution2: "Single Substitution lookup 556 subtable" asterisk_slash.liga
Substitution2: "Single Substitution lookup 553 subtable" SPC
Substitution2: "Single Substitution lookup 551 subtable" SPC
Substitution2: "Single Substitution lookup 548 subtable" SPC
Substitution2: "Single Substitution lookup 546 subtable" SPC
Substitution2: "Single Substitution lookup 545 subtable" SPC
Substitution2: "Single Substitution lookup 543 subtable" SPC
Substitution2: "Single Substitution lookup 541 subtable" SPC
Substitution2: "Single Substitution lookup 540 subtable" SPC
Substitution2: "Single Substitution lookup 539 subtable" slash_slash_slash.liga
Substitution2: "Single Substitution lookup 537 subtable" SPC
Substitution2: "Single Substitution lookup 536 subtable" slash_slash.liga
Substitution2: "Single Substitution lookup 534 subtable" SPC
Substitution2: "Single Substitution lookup 532 subtable" backslash_slash.liga
AlternateSubs2: "'aalt' Access All Alternates in Latin lookup 478 subtable" fraction asterisk_slash.liga slash_slash.liga slash_slash_slash.liga backslash_slash.liga less_slash.liga SPC
Substitution2: "Single Substitution lookup 451 subtable" lig.9
Substitution2: "Single Substitution lookup 448 subtable" lig.10
Substitution2: "Single Substitution lookup 334 subtable" lig.48
Substitution2: "Single Substitution lookup 272 subtable" CR.69.0
Substitution2: "Single Substitution lookup 269 subtable" CR.70.0
Substitution2: "Single Substitution lookup 266 subtable" CR.71.0
Substitution2: "Single Substitution lookup 263 subtable" CR.72.0
Substitution2: "Single Substitution lookup 260 subtable" CR.73.0
Substitution2: "Single Substitution lookup 259 subtable" lig.73
Substitution2: "Single Substitution lookup 193 subtable" CR.90.1
Substitution2: "Single Substitution lookup 73 subtable" CR.120.1
Substitution2: "Single Substitution lookup 46 subtable" CR.127.0
Substitution2: "Single Substitution lookup 42 subtable" CR.128.0
Substitution2: "Single Substitution lookup 41 subtable" CR.128.1
Substitution2: "Single Substitution lookup 40 subtable" lig.128
EndChar

StartChar: zero
Encoding: 48 48 20
Width: 600
GlyphClass: 2
Flags: W
LayerCount: 2
Fore
SplineSet
300 -10 m 256,0,1
 229 -10 229 -10 177 17 c 128,-1,2
 125 44 125 44 96.5 93 c 128,-1,3
 68 142 68 142 68 208 c 2,4,-1
 68 522 l 2,5,6
 68 588 68 588 96.5 637 c 128,-1,7
 125 686 125 686 177 713 c 128,-1,8
 229 740 229 740 300 740 c 256,9,10
 371 740 371 740 423 713 c 128,-1,11
 475 686 475 686 503.5 637 c 128,-1,12
 532 588 532 588 532 522 c 2,13,-1
 532 208 l 2,14,15
 532 142 532 142 503.5 93 c 128,-1,16
 475 44 475 44 423 17 c 128,-1,17
 371 -10 371 -10 300 -10 c 256,0,1
300 98 m 256,18,19
 352 98 352 98 383 128 c 128,-1,20
 414 158 414 158 414 208 c 2,21,-1
 414 522 l 2,22,23
 414 572 414 572 383.5 602 c 128,-1,24
 353 632 353 632 300 632 c 256,25,26
 247 632 247 632 216.5 602 c 128,-1,27
 186 572 186 572 186 522 c 2,28,-1
 186 208 l 2,29,30
 186 158 186 158 217 128 c 128,-1,31
 248 98 248 98 300 98 c 256,18,19
300 305 m 256,32,33
 270 305 270 305 252 321.5 c 128,-1,34
 234 338 234 338 234 368 c 256,35,36
 234 398 234 398 252 413.5 c 128,-1,37
 270 429 270 429 300 429 c 256,38,39
 330 429 330 429 348 413.5 c 128,-1,40
 366 398 366 398 366 368 c 256,41,42
 366 338 366 338 348 321.5 c 128,-1,43
 330 305 330 305 300 305 c 256,32,33
EndSplineSet
Substitution2: "'zero' Slashed Zero in Latin lookup 912 subtable" zero.zero
Substitution2: "'frac' Diagonal Fractions in Latin lookup 904 subtable" zero.numr
Substitution2: "'sups' Superscript in Latin lookup 902 subtable" uni2070
Substitution2: "'sinf' Scientific Inferiors in Latin lookup 901 subtable" uni2080
Substitution2: "'subs' Subscript in Latin lookup 900 subtable" uni2080
AlternateSubs2: "'aalt' Access All Alternates in Latin lookup 478 subtable" zero.zero uni2080 zero.numr uni2070
EndChar

StartChar: one
Encoding: 49 49 21
Width: 600
GlyphClass: 2
Flags: W
LayerCount: 2
Fore
SplineSet
84 0 m 1,0,-1
 84 113 l 1,1,-1
 274 113 l 1,2,-1
 274 609 l 1,3,-1
 83 469 l 1,4,-1
 83 609 l 1,5,-1
 251 730 l 1,6,-1
 399 730 l 1,7,-1
 399 113 l 1,8,-1
 552 113 l 1,9,-1
 552 0 l 1,10,-1
 84 0 l 1,0,-1
EndSplineSet
Substitution2: "'frac' Diagonal Fractions in Latin lookup 904 subtable" one.numr
Substitution2: "'sups' Superscript in Latin lookup 902 subtable" uni00B9
Substitution2: "'sinf' Scientific Inferiors in Latin lookup 901 subtable" uni2081
Substitution2: "'subs' Subscript in Latin lookup 900 subtable" uni2081
AlternateSubs2: "'aalt' Access All Alternates in Latin lookup 478 subtable" uni2081 one.numr uni00B9
EndChar

StartChar: two
Encoding: 50 50 22
Width: 600
GlyphClass: 2
Flags: W
LayerCount: 2
Fore
SplineSet
74 0 m 1,0,-1
 74 113 l 1,1,-1
 337 382 l 2,2,3
 401 449 401 449 401 518 c 0,4,5
 401 567 401 567 372.5 597.5 c 128,-1,6
 344 628 344 628 296 628 c 0,7,8
 247 628 247 628 217.5 596.5 c 128,-1,9
 188 565 188 565 188 513 c 1,10,-1
 63 513 l 1,11,12
 63 581 63 581 93 632 c 128,-1,13
 123 683 123 683 176 711.5 c 128,-1,14
 229 740 229 740 299 740 c 0,15,16
 368 740 368 740 420 713 c 128,-1,17
 472 686 472 686 500.5 637.5 c 128,-1,18
 529 589 529 589 529 524 c 0,19,20
 529 468 529 468 502.5 412 c 128,-1,21
 476 356 476 356 415 296 c 2,22,-1
 231 113 l 1,23,-1
 538 113 l 1,24,-1
 538 0 l 1,25,-1
 74 0 l 1,0,-1
EndSplineSet
Substitution2: "'cv18' Character Variants 18 in Latin lookup 933 subtable" two.cv18
Substitution2: "'frac' Diagonal Fractions in Latin lookup 904 subtable" two.numr
Substitution2: "'sups' Superscript in Latin lookup 902 subtable" uni00B2
Substitution2: "'sinf' Scientific Inferiors in Latin lookup 901 subtable" uni2082
Substitution2: "'subs' Subscript in Latin lookup 900 subtable" uni2082
AlternateSubs2: "'aalt' Access All Alternates in Latin lookup 478 subtable" uni2082 two.numr uni00B2
EndChar

StartChar: three
Encoding: 51 51 23
Width: 600
GlyphClass: 2
Flags: W
LayerCount: 2
Fore
SplineSet
293 -10 m 256,0,1
 185 -10 185 -10 122 46.5 c 128,-1,2
 59 103 59 103 59 200 c 1,3,-1
 185 200 l 1,4,5
 185 154 185 154 214 126.5 c 128,-1,6
 243 99 243 99 294 99 c 0,7,8
 344 99 344 99 373 126.5 c 128,-1,9
 402 154 402 154 402 200 c 2,10,-1
 402 255 l 2,11,12
 402 304 402 304 373.5 331.5 c 128,-1,13
 345 359 345 359 294 359 c 2,14,-1
 202 359 l 1,15,-1
 202 459 l 1,16,-1
 370 620 l 1,17,-1
 85 620 l 1,18,-1
 85 730 l 1,19,-1
 507 730 l 1,20,-1
 507 624 l 1,21,-1
 339 463 l 1,22,23
 427 451 427 451 477.5 396.5 c 128,-1,24
 528 342 528 342 528 255 c 2,25,-1
 528 200 l 2,26,27
 528 103 528 103 464.5 46.5 c 128,-1,28
 401 -10 401 -10 293 -10 c 256,0,1
EndSplineSet
Substitution2: "'frac' Diagonal Fractions in Latin lookup 904 subtable" three.numr
Substitution2: "'sups' Superscript in Latin lookup 902 subtable" uni00B3
Substitution2: "'sinf' Scientific Inferiors in Latin lookup 901 subtable" uni2083
Substitution2: "'subs' Subscript in Latin lookup 900 subtable" uni2083
AlternateSubs2: "'aalt' Access All Alternates in Latin lookup 478 subtable" uni2083 three.numr uni00B3
EndChar

StartChar: four
Encoding: 52 52 24
Width: 600
GlyphClass: 2
Flags: W
LayerCount: 2
Fore
SplineSet
382 0 m 1,0,-1
 382 145 l 1,1,-1
 59 145 l 1,2,-1
 59 326 l 1,3,-1
 329 730 l 1,4,-1
 468 730 l 1,5,-1
 179 293 l 1,6,-1
 179 255 l 1,7,-1
 382 255 l 1,8,-1
 382 420 l 1,9,-1
 508 420 l 1,10,-1
 508 0 l 1,11,-1
 382 0 l 1,0,-1
EndSplineSet
Substitution2: "'frac' Diagonal Fractions in Latin lookup 904 subtable" four.numr
Substitution2: "'sups' Superscript in Latin lookup 902 subtable" uni2074
Substitution2: "'sinf' Scientific Inferiors in Latin lookup 901 subtable" uni2084
Substitution2: "'subs' Subscript in Latin lookup 900 subtable" uni2084
AlternateSubs2: "'aalt' Access All Alternates in Latin lookup 478 subtable" uni2084 four.numr uni2074
EndChar

StartChar: five
Encoding: 53 53 25
Width: 600
GlyphClass: 2
Flags: W
LayerCount: 2
Fore
SplineSet
296 -10 m 0,0,1
 189 -10 189 -10 125.5 46.5 c 128,-1,2
 62 103 62 103 62 200 c 1,3,-1
 187 200 l 1,4,5
 187 154 187 154 216.5 126.5 c 128,-1,6
 246 99 246 99 297 99 c 256,7,8
 348 99 348 99 376.5 126.5 c 128,-1,9
 405 154 405 154 405 203 c 2,10,-1
 405 251 l 2,11,12
 405 300 405 300 377 327.5 c 128,-1,13
 349 355 349 355 298 355 c 2,14,-1
 87 355 l 1,15,-1
 87 730 l 1,16,-1
 503 730 l 1,17,-1
 503 617 l 1,18,-1
 205 617 l 1,19,-1
 206 465 l 1,20,-1
 304 465 l 2,21,22
 412 465 412 465 471 409 c 128,-1,23
 530 353 530 353 530 251 c 2,24,-1
 530 203 l 2,25,26
 530 104 530 104 467.5 47 c 128,-1,27
 405 -10 405 -10 296 -10 c 0,0,1
EndSplineSet
Substitution2: "'cv20' Character Variants 20 in Latin lookup 935 subtable" five.cv20
Substitution2: "'frac' Diagonal Fractions in Latin lookup 904 subtable" five.numr
Substitution2: "'sups' Superscript in Latin lookup 902 subtable" uni2075
Substitution2: "'sinf' Scientific Inferiors in Latin lookup 901 subtable" uni2085
Substitution2: "'subs' Subscript in Latin lookup 900 subtable" uni2085
AlternateSubs2: "'aalt' Access All Alternates in Latin lookup 478 subtable" uni2085 five.numr uni2075
EndChar

StartChar: six
Encoding: 54 54 26
Width: 600
GlyphClass: 2
Flags: W
LayerCount: 2
Fore
SplineSet
300 -10 m 256,0,1
 225 -10 225 -10 169.5 20 c 128,-1,2
 114 50 114 50 83.5 104.5 c 128,-1,3
 53 159 53 159 53 232 c 0,4,5
 53 275 53 275 71.5 330.5 c 128,-1,6
 90 386 90 386 122 443 c 2,7,-1
 280 730 l 1,8,-1
 422 730 l 1,9,-1
 234 408 l 1,10,-1
 238 406 l 1,11,12
 253 427 253 427 282 439 c 128,-1,13
 311 451 311 451 345 451 c 0,14,15
 406 451 406 451 451.5 423.5 c 128,-1,16
 497 396 497 396 522 346 c 128,-1,17
 547 296 547 296 547 228 c 0,18,19
 547 156 547 156 516.5 102.5 c 128,-1,20
 486 49 486 49 430.5 19.5 c 128,-1,21
 375 -10 375 -10 300 -10 c 256,0,1
300 96 m 256,22,23
 356 96 356 96 390 131.5 c 128,-1,24
 424 167 424 167 424 226 c 0,25,26
 424 286 424 286 390 321.5 c 128,-1,27
 356 357 356 357 300 357 c 256,28,29
 244 357 244 357 210 321.5 c 128,-1,30
 176 286 176 286 176 226 c 0,31,32
 176 167 176 167 210 131.5 c 128,-1,33
 244 96 244 96 300 96 c 256,22,23
EndSplineSet
Substitution2: "'cv18' Character Variants 18 in Latin lookup 933 subtable" six.cv18
Substitution2: "'frac' Diagonal Fractions in Latin lookup 904 subtable" six.numr
Substitution2: "'sups' Superscript in Latin lookup 902 subtable" uni2076
Substitution2: "'sinf' Scientific Inferiors in Latin lookup 901 subtable" uni2086
Substitution2: "'subs' Subscript in Latin lookup 900 subtable" uni2086
AlternateSubs2: "'aalt' Access All Alternates in Latin lookup 478 subtable" uni2086 six.numr uni2076
EndChar

StartChar: seven
Encoding: 55 55 27
Width: 600
GlyphClass: 2
Flags: W
LayerCount: 2
Fore
SplineSet
158 0 m 1,0,-1
 425 620 l 1,1,-1
 192 620 l 1,2,-1
 192 501 l 1,3,-1
 67 501 l 1,4,-1
 67 730 l 1,5,-1
 560 730 l 1,6,-1
 560 620 l 1,7,-1
 295 0 l 1,8,-1
 158 0 l 1,0,-1
EndSplineSet
Substitution2: "'frac' Diagonal Fractions in Latin lookup 904 subtable" seven.numr
Substitution2: "'sups' Superscript in Latin lookup 902 subtable" uni2077
Substitution2: "'sinf' Scientific Inferiors in Latin lookup 901 subtable" uni2087
Substitution2: "'subs' Subscript in Latin lookup 900 subtable" uni2087
AlternateSubs2: "'aalt' Access All Alternates in Latin lookup 478 subtable" uni2087 seven.numr uni2077
EndChar

StartChar: eight
Encoding: 56 56 28
Width: 600
GlyphClass: 2
Flags: W
LayerCount: 2
Fore
SplineSet
300 -10 m 256,0,1
 227 -10 227 -10 171 17.5 c 128,-1,2
 115 45 115 45 84 93.5 c 128,-1,3
 53 142 53 142 53 206 c 0,4,5
 53 273 53 273 91.5 323 c 128,-1,6
 130 373 130 373 192 386 c 1,7,-1
 192 388 l 1,8,9
 139 399 139 399 106.5 442 c 128,-1,10
 74 485 74 485 74 544 c 0,11,12
 74 602 74 602 102.5 646 c 128,-1,13
 131 690 131 690 182 715 c 128,-1,14
 233 740 233 740 300 740 c 256,15,16
 367 740 367 740 418.5 715 c 128,-1,17
 470 690 470 690 498.5 646 c 128,-1,18
 527 602 527 602 527 544 c 0,19,20
 527 485 527 485 494 442 c 128,-1,21
 461 399 461 399 408 388 c 1,22,-1
 408 386 l 1,23,24
 470 373 470 373 508.5 323 c 128,-1,25
 547 273 547 273 547 206 c 0,26,27
 547 142 547 142 516 93.5 c 128,-1,28
 485 45 485 45 429 17.5 c 128,-1,29
 373 -10 373 -10 300 -10 c 256,0,1
300 431 m 256,30,31
 347 431 347 431 376 459.5 c 128,-1,32
 405 488 405 488 405 533 c 0,33,34
 405 579 405 579 376 607.5 c 128,-1,35
 347 636 347 636 300 636 c 256,36,37
 253 636 253 636 224 607.5 c 128,-1,38
 195 579 195 579 195 533 c 0,39,40
 195 488 195 488 224 459.5 c 128,-1,41
 253 431 253 431 300 431 c 256,30,31
300 96 m 256,42,43
 355 96 355 96 390 128 c 128,-1,44
 425 160 425 160 425 212 c 0,45,46
 425 265 425 265 390 297.5 c 128,-1,47
 355 330 355 330 300 330 c 256,48,49
 245 330 245 330 210 297.5 c 128,-1,50
 175 265 175 265 175 212 c 0,51,52
 175 160 175 160 210 128 c 128,-1,53
 245 96 245 96 300 96 c 256,42,43
EndSplineSet
Substitution2: "'cv19' Character Variants 19 in Latin lookup 934 subtable" eight.cv19
Substitution2: "'frac' Diagonal Fractions in Latin lookup 904 subtable" eight.numr
Substitution2: "'sups' Superscript in Latin lookup 902 subtable" uni2078
Substitution2: "'sinf' Scientific Inferiors in Latin lookup 901 subtable" uni2088
Substitution2: "'subs' Subscript in Latin lookup 900 subtable" uni2088
AlternateSubs2: "'aalt' Access All Alternates in Latin lookup 478 subtable" uni2088 eight.numr uni2078
EndChar

StartChar: nine
Encoding: 57 57 29
Width: 600
GlyphClass: 2
Flags: W
LayerCount: 2
Fore
SplineSet
175 0 m 1,0,-1
 346 295 l 1,1,2
 334 286 334 286 318 279.5 c 128,-1,3
 302 273 302 273 270 273 c 0,4,5
 210 273 210 273 160.5 302 c 128,-1,6
 111 331 111 331 82 382.5 c 128,-1,7
 53 434 53 434 53 502 c 0,8,9
 53 574 53 574 83.5 627.5 c 128,-1,10
 114 681 114 681 169.5 710.5 c 128,-1,11
 225 740 225 740 300 740 c 256,12,13
 375 740 375 740 430.5 710 c 128,-1,14
 486 680 486 680 516.5 625.5 c 128,-1,15
 547 571 547 571 547 498 c 0,16,17
 547 455 547 455 528.5 399.5 c 128,-1,18
 510 344 510 344 478 287 c 2,19,-1
 320 0 l 1,20,-1
 175 0 l 1,0,-1
300 373 m 256,21,22
 356 373 356 373 390 408.5 c 128,-1,23
 424 444 424 444 424 504 c 0,24,25
 424 563 424 563 390 598.5 c 128,-1,26
 356 634 356 634 300 634 c 256,27,28
 244 634 244 634 210 598.5 c 128,-1,29
 176 563 176 563 176 504 c 0,30,31
 176 444 176 444 210 408.5 c 128,-1,32
 244 373 244 373 300 373 c 256,21,22
EndSplineSet
Substitution2: "'cv18' Character Variants 18 in Latin lookup 933 subtable" nine.cv18
Substitution2: "'frac' Diagonal Fractions in Latin lookup 904 subtable" nine.numr
Substitution2: "'sups' Superscript in Latin lookup 902 subtable" uni2079
Substitution2: "'sinf' Scientific Inferiors in Latin lookup 901 subtable" uni2089
Substitution2: "'subs' Subscript in Latin lookup 900 subtable" uni2089
AlternateSubs2: "'aalt' Access All Alternates in Latin lookup 478 subtable" uni2089 nine.numr uni2079
EndChar

StartChar: colon
Encoding: 58 58 30
Width: 600
GlyphClass: 2
Flags: W
LayerCount: 2
Fore
SplineSet
300 393 m 256,0,1
 257 393 257 393 232 416 c 128,-1,2
 207 439 207 439 207 477 c 0,3,4
 207 514 207 514 232 537 c 128,-1,5
 257 560 257 560 300 560 c 256,6,7
 343 560 343 560 368 537 c 128,-1,8
 393 514 393 514 393 477 c 0,9,10
 393 439 393 439 368 416 c 128,-1,11
 343 393 343 393 300 393 c 256,0,1
300 -10 m 256,12,13
 257 -10 257 -10 232 13 c 128,-1,14
 207 36 207 36 207 73 c 0,15,16
 207 111 207 111 232 134 c 128,-1,17
 257 157 257 157 300 157 c 256,18,19
 343 157 343 157 368 134 c 128,-1,20
 393 111 393 111 393 73 c 0,21,22
 393 36 393 36 368 13 c 128,-1,23
 343 -10 343 -10 300 -10 c 256,12,13
EndSplineSet
Substitution2: "'case' Case-Sensitive Forms in Latin lookup 911 subtable" colon.case
Substitution2: "Single Substitution lookup 874 subtable" numbersign_colon.liga
Substitution2: "Single Substitution lookup 747 subtable" question_colon.liga
Substitution2: "Single Substitution lookup 706 subtable" SPC
Substitution2: "Single Substitution lookup 705 subtable" SPC
Substitution2: "Single Substitution lookup 703 subtable" SPC
Substitution2: "Single Substitution lookup 701 subtable" SPC
Substitution2: "Single Substitution lookup 699 subtable" SPC
Substitution2: "Single Substitution lookup 698 subtable" SPC
Substitution2: "Single Substitution lookup 697 subtable" colon_colon_colon.liga
Substitution2: "Single Substitution lookup 688 subtable" SPC
Substitution2: "Single Substitution lookup 687 subtable" colon_colon.liga
Substitution2: "Single Substitution lookup 685 subtable" SPC
Substitution2: "Single Substitution lookup 683 subtable" SPC
Substitution2: "Single Substitution lookup 681 subtable" SPC
Substitution2: "Single Substitution lookup 678 subtable" SPC
Substitution2: "Single Substitution lookup 641 subtable" greater_colon.liga
Substitution2: "Single Substitution lookup 596 subtable" SPC
Substitution2: "Single Substitution lookup 594 subtable" less_colon.liga
Substitution2: "Single Substitution lookup 506 subtable" equal_colon.liga
Substitution2: "Single Substitution lookup 480 subtable" colon.case
AlternateSubs2: "'aalt' Access All Alternates in Latin lookup 478 subtable" colon.case colon_colon.liga colon_colon_colon.liga question_colon.liga numbersign_colon.liga equal_colon.liga greater_colon.liga less_colon.liga SPC
Substitution2: "Single Substitution lookup 419 subtable" CR.20.0
Substitution2: "Single Substitution lookup 418 subtable" lig.20
Substitution2: "Single Substitution lookup 416 subtable" CR.21.0
Substitution2: "Single Substitution lookup 413 subtable" CR.22.0
Substitution2: "Single Substitution lookup 410 subtable" CR.23.0
Substitution2: "Single Substitution lookup 391 subtable" lig.29
Substitution2: "Single Substitution lookup 355 subtable" lig.41
Substitution2: "Single Substitution lookup 325 subtable" lig.51
Substitution2: "Single Substitution lookup 226 subtable" CR.82.0
Substitution2: "Single Substitution lookup 225 subtable" CR.82.1
Substitution2: "Single Substitution lookup 224 subtable" lig.82
Substitution2: "Single Substitution lookup 222 subtable" CR.83.0
Substitution2: "Single Substitution lookup 221 subtable" CR.83.1
Substitution2: "Single Substitution lookup 217 subtable" CR.84.1
EndChar

StartChar: semicolon
Encoding: 59 59 31
Width: 600
GlyphClass: 2
Flags: W
LayerCount: 2
Fore
SplineSet
290 392 m 2,0,1
 253 392 253 392 229.5 416 c 128,-1,2
 206 440 206 440 206 476 c 256,3,4
 206 512 206 512 230 536 c 128,-1,5
 254 560 254 560 290 560 c 2,6,-1
 310 560 l 2,7,8
 346 560 346 560 370 536 c 128,-1,9
 394 512 394 512 394 476 c 256,10,11
 394 440 394 440 370.5 416 c 128,-1,12
 347 392 347 392 310 392 c 2,13,-1
 290 392 l 2,0,1
185 -160 m 1,14,-1
 238 146 l 1,15,-1
 381 146 l 1,16,-1
 305 -160 l 1,17,-1
 185 -160 l 1,14,-1
EndSplineSet
Substitution2: "Single Substitution lookup 695 subtable" SPC
Substitution2: "Single Substitution lookup 694 subtable" SPC
Substitution2: "Single Substitution lookup 693 subtable" semicolon_semicolon_semicolon.liga
Substitution2: "Single Substitution lookup 691 subtable" SPC
Substitution2: "Single Substitution lookup 690 subtable" semicolon_semicolon.liga
AlternateSubs2: "'aalt' Access All Alternates in Latin lookup 478 subtable" semicolon_semicolon.liga semicolon_semicolon_semicolon.liga SPC
Substitution2: "Single Substitution lookup 275 subtable" CR.68.0
Substitution2: "Single Substitution lookup 274 subtable" lig.68
EndChar

StartChar: less
Encoding: 60 60 32
Width: 600
GlyphClass: 2
Flags: W
LayerCount: 2
Fore
SplineSet
524 56 m 1,0,-1
 76 267 l 1,1,-1
 76 392 l 1,2,-1
 524 603 l 1,3,-1
 524 488 l 1,4,-1
 234 354 l 2,5,6
 214 345 214 345 194.5 338.5 c 128,-1,7
 175 332 175 332 164 330 c 1,8,9
 175 328 175 328 195 322 c 128,-1,10
 215 316 215 316 234 307 c 2,11,-1
 524 173 l 1,12,-1
 524 56 l 1,0,-1
EndSplineSet
Substitution2: "Single Substitution lookup 858 subtable" SPC
Substitution2: "Single Substitution lookup 856 subtable" SPC
Substitution2: "Single Substitution lookup 852 subtable" SPC
Substitution2: "Single Substitution lookup 850 subtable" SPC
Substitution2: "Single Substitution lookup 846 subtable" SPC
Substitution2: "Single Substitution lookup 844 subtable" SPC
Substitution2: "Single Substitution lookup 840 subtable" SPC
Substitution2: "Single Substitution lookup 838 subtable" SPC
Substitution2: "Single Substitution lookup 822 subtable" SPC
Substitution2: "Single Substitution lookup 816 subtable" SPC
Substitution2: "Single Substitution lookup 814 subtable" SPC
Substitution2: "Single Substitution lookup 812 subtable" SPC
Substitution2: "Single Substitution lookup 811 subtable" equal_less_less.liga
Substitution2: "Single Substitution lookup 809 subtable" SPC
Substitution2: "Single Substitution lookup 808 subtable" hyphen_less_less.liga
Substitution2: "Single Substitution lookup 806 subtable" hyphen_less.liga
Substitution2: "Single Substitution lookup 804 subtable" SPC
Substitution2: "Single Substitution lookup 799 subtable" SPC
Substitution2: "Single Substitution lookup 776 subtable" SPC
Substitution2: "Single Substitution lookup 774 subtable" SPC
Substitution2: "Single Substitution lookup 773 subtable" less_equal_less.liga
Substitution2: "Single Substitution lookup 771 subtable" SPC
Substitution2: "Single Substitution lookup 770 subtable" less_hyphen_less.liga
Substitution2: "Single Substitution lookup 733 subtable" SPC
Substitution2: "Single Substitution lookup 685 subtable" colon_less.liga
Substitution2: "Single Substitution lookup 653 subtable" SPC
Substitution2: "Single Substitution lookup 650 subtable" SPC
Substitution2: "Single Substitution lookup 648 subtable" SPC
Substitution2: "Single Substitution lookup 647 subtable" SPC
Substitution2: "Single Substitution lookup 645 subtable" SPC
Substitution2: "Single Substitution lookup 620 subtable" SPC
Substitution2: "Single Substitution lookup 617 subtable" SPC
Substitution2: "Single Substitution lookup 613 subtable" SPC
Substitution2: "Single Substitution lookup 611 subtable" SPC
Substitution2: "Single Substitution lookup 609 subtable" SPC
Substitution2: "Single Substitution lookup 607 subtable" SPC
Substitution2: "Single Substitution lookup 606 subtable" SPC
Substitution2: "Single Substitution lookup 604 subtable" SPC
Substitution2: "Single Substitution lookup 603 subtable" SPC
Substitution2: "Single Substitution lookup 602 subtable" less_less_less.liga
Substitution2: "Single Substitution lookup 600 subtable" SPC
Substitution2: "Single Substitution lookup 599 subtable" less_less.liga
Substitution2: "Single Substitution lookup 597 subtable" SPC
Substitution2: "Single Substitution lookup 596 subtable" less_colon_less.liga
Substitution2: "Single Substitution lookup 594 subtable" SPC
Substitution2: "Single Substitution lookup 592 subtable" SPC
Substitution2: "Single Substitution lookup 589 subtable" SPC
Substitution2: "Single Substitution lookup 587 subtable" SPC
Substitution2: "Single Substitution lookup 585 subtable" SPC
Substitution2: "Single Substitution lookup 584 subtable" SPC
Substitution2: "Single Substitution lookup 581 subtable" SPC
Substitution2: "Single Substitution lookup 578 subtable" period_period_less.liga
Substitution2: "Single Substitution lookup 528 subtable" bracketleft_less.liga
AlternateSubs2: "'aalt' Access All Alternates in Latin lookup 478 subtable" hyphen_less.liga hyphen_less_less.liga bracketleft_less.liga period_period_less.liga colon_less.liga equal_less_less.liga less_hyphen_less.liga less_colon_less.liga less_equal_less.liga less_less.liga less_less_less.liga SPC
Substitution2: "Single Substitution lookup 409 subtable" lig.23
Substitution2: "Single Substitution lookup 367 subtable" lig.37
Substitution2: "Single Substitution lookup 365 subtable" CR.38.0
Substitution2: "Single Substitution lookup 362 subtable" CR.39.0
Substitution2: "Single Substitution lookup 359 subtable" CR.40.0
Substitution2: "Single Substitution lookup 356 subtable" CR.41.0
Substitution2: "Single Substitution lookup 353 subtable" CR.42.0
Substitution2: "Single Substitution lookup 350 subtable" CR.43.0
Substitution2: "Single Substitution lookup 347 subtable" CR.44.0
Substitution2: "Single Substitution lookup 344 subtable" CR.45.0
Substitution2: "Single Substitution lookup 341 subtable" CR.46.0
Substitution2: "Single Substitution lookup 340 subtable" lig.46
Substitution2: "Single Substitution lookup 338 subtable" CR.47.0
Substitution2: "Single Substitution lookup 335 subtable" CR.48.0
Substitution2: "Single Substitution lookup 197 subtable" CR.89.1
Substitution2: "Single Substitution lookup 196 subtable" lig.89
Substitution2: "Single Substitution lookup 149 subtable" CR.101.1
Substitution2: "Single Substitution lookup 148 subtable" lig.101
Substitution2: "Single Substitution lookup 146 subtable" CR.102.0
Substitution2: "Single Substitution lookup 142 subtable" CR.103.0
Substitution2: "Single Substitution lookup 138 subtable" CR.104.0
Substitution2: "Single Substitution lookup 134 subtable" CR.105.0
Substitution2: "Single Substitution lookup 130 subtable" CR.106.0
Substitution2: "Single Substitution lookup 126 subtable" CR.107.0
Substitution2: "Single Substitution lookup 122 subtable" CR.108.0
Substitution2: "Single Substitution lookup 118 subtable" CR.109.0
Substitution2: "Single Substitution lookup 114 subtable" CR.110.0
Substitution2: "Single Substitution lookup 110 subtable" CR.111.0
Substitution2: "Single Substitution lookup 108 subtable" lig.111
Substitution2: "Single Substitution lookup 106 subtable" CR.112.0
Substitution2: "Single Substitution lookup 102 subtable" CR.113.0
Substitution2: "Single Substitution lookup 98 subtable" CR.114.0
Substitution2: "Single Substitution lookup 94 subtable" CR.115.0
Substitution2: "Single Substitution lookup 92 subtable" lig.115
Substitution2: "Single Substitution lookup 90 subtable" CR.116.0
Substitution2: "Single Substitution lookup 89 subtable" CR.116.1
Substitution2: "Single Substitution lookup 86 subtable" CR.117.0
Substitution2: "Single Substitution lookup 85 subtable" CR.117.1
Substitution2: "Single Substitution lookup 82 subtable" CR.118.0
Substitution2: "Single Substitution lookup 81 subtable" CR.118.1
Substitution2: "Single Substitution lookup 80 subtable" lig.118
Substitution2: "Single Substitution lookup 78 subtable" CR.119.0
Substitution2: "Single Substitution lookup 74 subtable" CR.120.0
Substitution2: "Single Substitution lookup 56 subtable" lig.124
Substitution2: "Single Substitution lookup 25 subtable" CR.132.0
Substitution2: "Single Substitution lookup 20 subtable" CR.133.0
Substitution2: "Single Substitution lookup 15 subtable" CR.134.0
Substitution2: "Single Substitution lookup 5 subtable" CR.136.0
Substitution2: "Single Substitution lookup 4 subtable" CR.136.1
EndChar

StartChar: equal
Encoding: 61 61 33
Width: 600
GlyphClass: 2
Flags: W
LayerCount: 2
Fore
SplineSet
82 395 m 1,0,-1
 82 510 l 1,1,-1
 518 510 l 1,2,-1
 518 395 l 1,3,-1
 82 395 l 1,0,-1
82 150 m 1,4,-1
 82 265 l 1,5,-1
 518 265 l 1,6,-1
 518 150 l 1,7,-1
 82 150 l 1,4,-1
EndSplineSet
Substitution2: "Single Substitution lookup 876 subtable" numbersign_equal.liga
Substitution2: "Single Substitution lookup 836 subtable" asciicircum_equal.liga
Substitution2: "Single Substitution lookup 818 subtable" SPC
Substitution2: "Single Substitution lookup 816 subtable" SPC
Substitution2: "Single Substitution lookup 811 subtable" SPC
Substitution2: "Single Substitution lookup 788 subtable" greater_greater_equal.liga
Substitution2: "Single Substitution lookup 785 subtable" SPC
Substitution2: "Single Substitution lookup 782 subtable" SPC
Substitution2: "Single Substitution lookup 780 subtable" SPC
Substitution2: "Single Substitution lookup 779 subtable" SPC
Substitution2: "Single Substitution lookup 777 subtable" SPC
Substitution2: "Single Substitution lookup 776 subtable" SPC
Substitution2: "Single Substitution lookup 773 subtable" SPC
Substitution2: "Single Substitution lookup 768 subtable" SPC
Substitution2: "Single Substitution lookup 767 subtable" equal_slash_equal.liga
Substitution2: "Single Substitution lookup 762 subtable" period_equal.liga
Substitution2: "Single Substitution lookup 756 subtable" ampersand_equal.liga
Substitution2: "Single Substitution lookup 749 subtable" question_equal.liga
Substitution2: "Single Substitution lookup 725 subtable" bar_equal.liga
Substitution2: "Single Substitution lookup 720 subtable" bar_bar_equal.liga
Substitution2: "Single Substitution lookup 705 subtable" colon_colon_equal.liga
Substitution2: "Single Substitution lookup 681 subtable" colon_equal.liga
Substitution2: "Single Substitution lookup 679 subtable" SPC
Substitution2: "Single Substitution lookup 678 subtable" equal_colon_equal.liga
Substitution2: "Single Substitution lookup 676 subtable" SPC
Substitution2: "Single Substitution lookup 675 subtable" SPC
Substitution2: "Single Substitution lookup 674 subtable" equal_equal_equal.liga
Substitution2: "Single Substitution lookup 672 subtable" SPC
Substitution2: "Single Substitution lookup 671 subtable" equal_equal.liga
Substitution2: "Single Substitution lookup 669 subtable" SPC
Substitution2: "Single Substitution lookup 667 subtable" SPC
Substitution2: "Single Substitution lookup 666 subtable" equal_exclam_equal.liga
Substitution2: "Single Substitution lookup 664 subtable" SPC
Substitution2: "Single Substitution lookup 663 subtable" exclam_equal_equal.liga
Substitution2: "Single Substitution lookup 658 subtable" exclam_equal.liga
Substitution2: "Single Substitution lookup 651 subtable" SPC
Substitution2: "Single Substitution lookup 650 subtable" less_equal_equal.liga
Substitution2: "Single Substitution lookup 647 subtable" less_less_equal.liga
Substitution2: "Single Substitution lookup 645 subtable" less_equal.liga
Substitution2: "Single Substitution lookup 639 subtable" greater_equal.liga
Substitution2: "Single Substitution lookup 609 subtable" SPC
Substitution2: "Single Substitution lookup 549 subtable" SPC
Substitution2: "Single Substitution lookup 548 subtable" slash_equal_equal.liga
Substitution2: "Single Substitution lookup 545 subtable" slash_slash_equal.liga
Substitution2: "Single Substitution lookup 543 subtable" slash_equal.liga
Substitution2: "Single Substitution lookup 506 subtable" SPC
AlternateSubs2: "'aalt' Access All Alternates in Latin lookup 478 subtable" period_equal.liga colon_colon_equal.liga colon_equal.liga exclam_equal.liga exclam_equal_equal.liga question_equal.liga numbersign_equal.liga slash_equal.liga slash_equal_equal.liga slash_slash_equal.liga ampersand_equal.liga bar_bar_equal.liga bar_equal.liga equal_colon_equal.liga equal_exclam_equal.liga equal_equal.liga equal_equal_equal.liga equal_slash_equal.liga greater_equal.liga greater_greater_equal.liga less_equal.liga less_equal_equal.liga less_less_equal.liga asciicircum_equal.liga SPC
Substitution2: "Single Substitution lookup 472 subtable" lig.2
Substitution2: "Single Substitution lookup 436 subtable" lig.14
Substitution2: "Single Substitution lookup 415 subtable" lig.21
Substitution2: "Single Substitution lookup 404 subtable" CR.25.0
Substitution2: "Single Substitution lookup 403 subtable" lig.25
Substitution2: "Single Substitution lookup 401 subtable" CR.26.0
Substitution2: "Single Substitution lookup 397 subtable" lig.27
Substitution2: "Single Substitution lookup 388 subtable" lig.30
Substitution2: "Single Substitution lookup 349 subtable" lig.43
Substitution2: "Single Substitution lookup 322 subtable" lig.52
Substitution2: "Single Substitution lookup 301 subtable" lig.59
Substitution2: "Single Substitution lookup 283 subtable" lig.65
Substitution2: "Single Substitution lookup 265 subtable" lig.71
Substitution2: "Single Substitution lookup 244 subtable" lig.77
Substitution2: "Single Substitution lookup 233 subtable" CR.80.1
Substitution2: "Single Substitution lookup 220 subtable" lig.83
Substitution2: "Single Substitution lookup 218 subtable" CR.84.0
Substitution2: "Single Substitution lookup 216 subtable" lig.84
Substitution2: "Single Substitution lookup 214 subtable" CR.85.0
Substitution2: "Single Substitution lookup 213 subtable" CR.85.1
Substitution2: "Single Substitution lookup 212 subtable" lig.85
Substitution2: "Single Substitution lookup 210 subtable" CR.86.0
Substitution2: "Single Substitution lookup 209 subtable" CR.86.1
Substitution2: "Single Substitution lookup 206 subtable" CR.87.0
Substitution2: "Single Substitution lookup 204 subtable" lig.87
Substitution2: "Single Substitution lookup 202 subtable" CR.88.0
Substitution2: "Single Substitution lookup 198 subtable" CR.89.0
Substitution2: "Single Substitution lookup 194 subtable" CR.90.0
Substitution2: "Single Substitution lookup 192 subtable" lig.90
Substitution2: "Single Substitution lookup 189 subtable" CR.91.1
Substitution2: "Single Substitution lookup 188 subtable" lig.91
Substitution2: "Single Substitution lookup 181 subtable" CR.93.1
Substitution2: "Single Substitution lookup 176 subtable" lig.94
Substitution2: "Single Substitution lookup 121 subtable" CR.108.1
Substitution2: "Single Substitution lookup 117 subtable" CR.109.1
Substitution2: "Single Substitution lookup 116 subtable" lig.109
Substitution2: "Single Substitution lookup 113 subtable" CR.110.1
Substitution2: "Single Substitution lookup 109 subtable" CR.111.1
Substitution2: "Single Substitution lookup 88 subtable" lig.116
Substitution2: "Single Substitution lookup 60 subtable" lig.123
Substitution2: "Single Substitution lookup 45 subtable" CR.127.1
Substitution2: "Single Substitution lookup 44 subtable" lig.127
Substitution2: "Single Substitution lookup 19 subtable" CR.133.1
Substitution2: "Single Substitution lookup 18 subtable" CR.133.2
EndChar

StartChar: greater
Encoding: 62 62 34
Width: 600
GlyphClass: 2
Flags: W
LayerCount: 2
Fore
SplineSet
76 56 m 1,0,-1
 76 171 l 1,1,-1
 366 305 l 2,2,3
 386 314 386 314 405.5 320 c 128,-1,4
 425 326 425 326 436 329 c 1,5,6
 425 331 425 331 405 337 c 128,-1,7
 385 343 385 343 366 351 c 2,8,-1
 76 486 l 1,9,-1
 76 603 l 1,10,-1
 524 392 l 1,11,-1
 524 267 l 1,12,-1
 76 56 l 1,0,-1
EndSplineSet
Substitution2: "Single Substitution lookup 860 subtable" slash_greater.liga
Substitution2: "Single Substitution lookup 856 subtable" less_slash_greater.liga
Substitution2: "Single Substitution lookup 854 subtable" asterisk_greater.liga
Substitution2: "Single Substitution lookup 850 subtable" less_asterisk_greater.liga
Substitution2: "Single Substitution lookup 848 subtable" plus_greater.liga
Substitution2: "Single Substitution lookup 844 subtable" less_plus_greater.liga
Substitution2: "Single Substitution lookup 842 subtable" dollar_greater.liga
Substitution2: "Single Substitution lookup 838 subtable" less_dollar_greater.liga
Substitution2: "Single Substitution lookup 830 subtable" asciitilde_greater.liga
Substitution2: "Single Substitution lookup 827 subtable" asciitilde_asciitilde_greater.liga
Substitution2: "Single Substitution lookup 820 subtable" bar_hyphen_greater.liga
Substitution2: "Single Substitution lookup 818 subtable" bar_equal_greater.liga
Substitution2: "Single Substitution lookup 804 subtable" less_asciitilde_greater.liga
Substitution2: "Single Substitution lookup 797 subtable" SPC
Substitution2: "Single Substitution lookup 796 subtable" greater_hyphen_greater.liga
Substitution2: "Single Substitution lookup 794 subtable" SPC
Substitution2: "Single Substitution lookup 792 subtable" SPC
Substitution2: "Single Substitution lookup 791 subtable" SPC
Substitution2: "Single Substitution lookup 789 subtable" SPC
Substitution2: "Single Substitution lookup 788 subtable" SPC
Substitution2: "Single Substitution lookup 786 subtable" SPC
Substitution2: "Single Substitution lookup 785 subtable" greater_equal_greater.liga
Substitution2: "Single Substitution lookup 783 subtable" SPC
Substitution2: "Single Substitution lookup 782 subtable" equal_greater_greater.liga
Substitution2: "Single Substitution lookup 779 subtable" equal_equal_greater.liga
Substitution2: "Single Substitution lookup 776 subtable" less_equal_equal_greater.liga
Substitution2: "Single Substitution lookup 715 subtable" bar_greater.liga
Substitution2: "Single Substitution lookup 712 subtable" bar_bar_greater.liga
Substitution2: "Single Substitution lookup 708 subtable" bar_bar_bar_greater.liga
Substitution2: "Single Substitution lookup 703 subtable" colon_question_greater.liga
Substitution2: "Single Substitution lookup 683 subtable" colon_greater.liga
Substitution2: "Single Substitution lookup 669 subtable" equal_greater.liga
Substitution2: "Single Substitution lookup 653 subtable" less_bar_greater.liga
Substitution2: "Single Substitution lookup 643 subtable" SPC
Substitution2: "Single Substitution lookup 641 subtable" SPC
Substitution2: "Single Substitution lookup 639 subtable" SPC
Substitution2: "Single Substitution lookup 637 subtable" SPC
Substitution2: "Single Substitution lookup 636 subtable" SPC
Substitution2: "Single Substitution lookup 635 subtable" greater_greater_greater.liga
Substitution2: "Single Substitution lookup 633 subtable" SPC
Substitution2: "Single Substitution lookup 632 subtable" greater_greater.liga
Substitution2: "Single Substitution lookup 630 subtable" hyphen_greater.liga
Substitution2: "Single Substitution lookup 627 subtable" hyphen_hyphen_greater.liga
Substitution2: "Single Substitution lookup 625 subtable" SPC
Substitution2: "Single Substitution lookup 624 subtable" hyphen_greater_greater.liga
Substitution2: "Single Substitution lookup 611 subtable" less_hyphen_greater.liga
Substitution2: "Single Substitution lookup 609 subtable" less_equal_greater.liga
Substitution2: "Single Substitution lookup 592 subtable" less_greater.liga
AlternateSubs2: "'aalt' Access All Alternates in Latin lookup 478 subtable" hyphen_hyphen_greater.liga hyphen_greater.liga hyphen_greater_greater.liga colon_question_greater.liga colon_greater.liga asterisk_greater.liga slash_greater.liga bar_hyphen_greater.liga bar_bar_bar_greater.liga bar_bar_greater.liga bar_equal_greater.liga bar_greater.liga dollar_greater.liga plus_greater.liga equal_equal_greater.liga equal_greater.liga equal_greater_greater.liga greater_hyphen_greater.liga greater_equal_greater.liga greater_greater.liga greater_greater_greater.liga less_hyphen_greater.liga less_asterisk_greater.liga less_bar_greater.liga less_dollar_greater.liga less_plus_greater.liga less_equal_equal_greater.liga less_equal_greater.liga less_greater.liga less_asciitilde_greater.liga less_slash_greater.liga asciitilde_greater.liga asciitilde_asciitilde_greater.liga SPC
Substitution2: "Single Substitution lookup 463 subtable" lig.5
Substitution2: "Single Substitution lookup 454 subtable" lig.8
Substitution2: "Single Substitution lookup 433 subtable" lig.15
Substitution2: "Single Substitution lookup 412 subtable" lig.22
Substitution2: "Single Substitution lookup 406 subtable" lig.24
Substitution2: "Single Substitution lookup 400 subtable" lig.26
Substitution2: "Single Substitution lookup 392 subtable" CR.29.0
Substitution2: "Single Substitution lookup 389 subtable" CR.30.0
Substitution2: "Single Substitution lookup 386 subtable" CR.31.0
Substitution2: "Single Substitution lookup 385 subtable" lig.31
Substitution2: "Single Substitution lookup 383 subtable" CR.32.0
Substitution2: "Single Substitution lookup 373 subtable" lig.35
Substitution2: "Single Substitution lookup 346 subtable" lig.44
Substitution2: "Single Substitution lookup 289 subtable" lig.63
Substitution2: "Single Substitution lookup 262 subtable" lig.72
Substitution2: "Single Substitution lookup 252 subtable" lig.75
Substitution2: "Single Substitution lookup 240 subtable" lig.78
Substitution2: "Single Substitution lookup 232 subtable" lig.80
Substitution2: "Single Substitution lookup 228 subtable" lig.81
Substitution2: "Single Substitution lookup 208 subtable" lig.86
Substitution2: "Single Substitution lookup 201 subtable" CR.88.1
Substitution2: "Single Substitution lookup 200 subtable" lig.88
Substitution2: "Single Substitution lookup 182 subtable" CR.93.0
Substitution2: "Single Substitution lookup 180 subtable" lig.93
Substitution2: "Single Substitution lookup 178 subtable" CR.94.0
Substitution2: "Single Substitution lookup 177 subtable" CR.94.1
Substitution2: "Single Substitution lookup 174 subtable" CR.95.0
Substitution2: "Single Substitution lookup 173 subtable" CR.95.1
Substitution2: "Single Substitution lookup 172 subtable" lig.95
Substitution2: "Single Substitution lookup 170 subtable" CR.96.0
Substitution2: "Single Substitution lookup 169 subtable" CR.96.1
Substitution2: "Single Substitution lookup 166 subtable" CR.97.0
Substitution2: "Single Substitution lookup 164 subtable" lig.97
Substitution2: "Single Substitution lookup 161 subtable" CR.98.1
Substitution2: "Single Substitution lookup 160 subtable" lig.98
Substitution2: "Single Substitution lookup 156 subtable" lig.99
Substitution2: "Single Substitution lookup 140 subtable" lig.103
Substitution2: "Single Substitution lookup 136 subtable" lig.104
Substitution2: "Single Substitution lookup 128 subtable" lig.106
Substitution2: "Single Substitution lookup 124 subtable" lig.107
Substitution2: "Single Substitution lookup 112 subtable" lig.110
Substitution2: "Single Substitution lookup 100 subtable" lig.113
Substitution2: "Single Substitution lookup 76 subtable" lig.119
Substitution2: "Single Substitution lookup 72 subtable" lig.120
Substitution2: "Single Substitution lookup 27 subtable" lig.131
Substitution2: "Single Substitution lookup 17 subtable" lig.133
Substitution2: "Single Substitution lookup 2 subtable" CR.136.3
Substitution2: "Single Substitution lookup 1 subtable" lig.136
EndChar

StartChar: question
Encoding: 63 63 35
Width: 600
GlyphClass: 2
Flags: W
LayerCount: 2
Fore
SplineSet
188 227 m 1,0,-1
 186 417 l 1,1,-1
 265 417 l 2,2,3
 315 417 315 417 345 444 c 128,-1,4
 375 471 375 471 375 515 c 0,5,6
 375 560 375 560 345 586.5 c 128,-1,7
 315 613 315 613 264 613 c 2,8,-1
 115 613 l 1,9,-1
 115 730 l 1,10,-1
 258 730 l 2,11,12
 332 730 332 730 386 703.5 c 128,-1,13
 440 677 440 677 470 629 c 128,-1,14
 500 581 500 581 500 515 c 0,15,16
 500 454 500 454 474.5 407.5 c 128,-1,17
 449 361 449 361 404 334.5 c 128,-1,18
 359 308 359 308 299 307 c 1,19,-1
 299 227 l 1,20,-1
 188 227 l 1,0,-1
229 -5 m 2,21,22
 198 -5 198 -5 179 13.5 c 128,-1,23
 160 32 160 32 160 61 c 256,24,25
 160 90 160 90 179 108.5 c 128,-1,26
 198 127 198 127 229 127 c 2,27,-1
 259 127 l 2,28,29
 290 127 290 127 308.5 108.5 c 128,-1,30
 327 90 327 90 327 61 c 256,31,32
 327 32 327 32 308 13.5 c 128,-1,33
 289 -5 289 -5 258 -5 c 2,34,-1
 229 -5 l 2,21,22
EndSplineSet
Substitution2: "Single Substitution lookup 868 subtable" numbersign_question.liga
Substitution2: "Single Substitution lookup 751 subtable" SPC
Substitution2: "Single Substitution lookup 749 subtable" SPC
Substitution2: "Single Substitution lookup 747 subtable" SPC
Substitution2: "Single Substitution lookup 745 subtable" SPC
Substitution2: "Single Substitution lookup 744 subtable" SPC
Substitution2: "Single Substitution lookup 743 subtable" question_question_question.liga
Substitution2: "Single Substitution lookup 741 subtable" SPC
Substitution2: "Single Substitution lookup 740 subtable" question_question.liga
Substitution2: "Single Substitution lookup 703 subtable" SPC
Substitution2: "Single Substitution lookup 701 subtable" colon_question.liga
Substitution2: "Single Substitution lookup 569 subtable" period_question.liga
AlternateSubs2: "'aalt' Access All Alternates in Latin lookup 478 subtable" period_question.liga colon_question.liga question_question.liga question_question_question.liga numbersign_question.liga SPC
Substitution2: "Single Substitution lookup 310 subtable" lig.56
Substitution2: "Single Substitution lookup 292 subtable" lig.62
Substitution2: "Single Substitution lookup 284 subtable" CR.65.0
Substitution2: "Single Substitution lookup 281 subtable" CR.66.0
Substitution2: "Single Substitution lookup 278 subtable" CR.67.0
Substitution2: "Single Substitution lookup 277 subtable" lig.67
EndChar

StartChar: at
Encoding: 64 64 36
Width: 600
GlyphClass: 2
Flags: W
LayerCount: 2
Fore
SplineSet
325 -180 m 2,0,1
 235 -180 235 -180 169.5 -144.5 c 128,-1,2
 104 -109 104 -109 68.5 -44 c 128,-1,3
 33 21 33 21 33 111 c 2,4,-1
 33 450 l 2,5,6
 33 540 33 540 67 605 c 128,-1,7
 101 670 101 670 164 705 c 128,-1,8
 227 740 227 740 315 740 c 0,9,10
 395 740 395 740 452.5 709.5 c 128,-1,11
 510 679 510 679 541 624.5 c 128,-1,12
 572 570 572 570 572 498 c 2,13,-1
 572 228 l 2,14,15
 572 148 572 148 525.5 101.5 c 128,-1,16
 479 55 479 55 400 55 c 0,17,18
 322 55 322 55 276.5 100.5 c 128,-1,19
 231 146 231 146 231 223 c 2,20,-1
 231 330 l 2,21,22
 231 405 231 405 266 448 c 128,-1,23
 301 491 301 491 362 491 c 0,24,25
 403 491 403 491 430 474 c 128,-1,26
 457 457 457 457 466 427 c 1,27,-1
 468 427 l 1,28,-1
 468 498 l 2,29,30
 468 571 468 571 428 610.5 c 128,-1,31
 388 650 388 650 311 650 c 0,32,33
 229 650 229 650 183 597.5 c 128,-1,34
 137 545 137 545 137 450 c 2,35,-1
 137 111 l 2,36,37
 137 18 137 18 186.5 -33.5 c 128,-1,38
 236 -85 236 -85 325 -85 c 2,39,-1
 435 -85 l 1,40,-1
 435 -180 l 1,41,-1
 325 -180 l 2,0,1
400 138 m 256,42,43
 433 138 433 138 450.5 160.5 c 128,-1,44
 468 183 468 183 468 223 c 2,45,-1
 468 330 l 2,46,47
 468 371 468 371 450.5 393 c 128,-1,48
 433 415 433 415 400 415 c 256,49,50
 367 415 367 415 349.5 392.5 c 128,-1,51
 332 370 332 370 332 330 c 2,52,-1
 332 223 l 2,53,54
 332 183 332 183 349.5 160.5 c 128,-1,55
 367 138 367 138 400 138 c 256,42,43
EndSplineSet
Substitution2: "Single Substitution lookup 834 subtable" asciitilde_at.liga
Substitution2: "Single Substitution lookup 508 subtable" SPC
AlternateSubs2: "'aalt' Access All Alternates in Latin lookup 478 subtable" asciitilde_at.liga SPC
Substitution2: "Single Substitution lookup 466 subtable" lig.4
EndChar

StartChar: A
Encoding: 65 65 37
Width: 600
GlyphClass: 2
Flags: W
AnchorPoint: "Anchor-4" 480 0 basechar 0
AnchorPoint: "Anchor-3" 300 0 basechar 0
AnchorPoint: "Anchor-1" 300 730 basechar 0
LayerCount: 2
Fore
SplineSet
35 0 m 1,0,-1
 219 730 l 1,1,-1
 380 730 l 1,2,-1
 565 0 l 1,3,-1
 437 0 l 1,4,-1
 397 177 l 1,5,-1
 203 177 l 1,6,-1
 163 0 l 1,7,-1
 35 0 l 1,0,-1
226 279 m 1,8,-1
 374 279 l 1,9,-1
 330 475 l 2,10,11
 319 524 319 524 311 563.5 c 128,-1,12
 303 603 303 603 300 621 c 1,13,14
 297 603 297 603 289 563.5 c 128,-1,15
 281 524 281 524 270 476 c 2,16,-1
 226 279 l 1,8,-1
EndSplineSet
Substitution2: "Single Substitution lookup 909 subtable" ordfeminine
Substitution2: "'aalt' Access All Alternates in Latin lookup 477 subtable" ordfeminine
EndChar

StartChar: B
Encoding: 66 66 38
Width: 600
GlyphClass: 2
Flags: W
AnchorPoint: "Anchor-3" 300 0 basechar 0
AnchorPoint: "Anchor-1" 300 730 basechar 0
LayerCount: 2
Fore
SplineSet
77 0 m 1,0,-1
 77 730 l 1,1,-1
 301 730 l 2,2,3
 406 730 406 730 468.5 679 c 128,-1,4
 531 628 531 628 531 542 c 0,5,6
 531 482 531 482 496.5 439 c 128,-1,7
 462 396 462 396 407 387 c 1,8,-1
 407 385 l 1,9,10
 448 380 448 380 480 355.5 c 128,-1,11
 512 331 512 331 530 292.5 c 128,-1,12
 548 254 548 254 548 208 c 0,13,14
 548 145 548 145 519 98 c 128,-1,15
 490 51 490 51 437 25.5 c 128,-1,16
 384 0 384 0 312 0 c 2,17,-1
 77 0 l 1,0,-1
199 429 m 1,18,-1
 299 429 l 2,19,20
 348 429 348 429 377 455.5 c 128,-1,21
 406 482 406 482 406 528 c 0,22,23
 406 573 406 573 377.5 599.5 c 128,-1,24
 349 626 349 626 299 626 c 2,25,-1
 199 626 l 1,26,-1
 199 429 l 1,18,-1
199 104 m 1,27,-1
 305 104 l 2,28,29
 360 104 360 104 391.5 133.5 c 128,-1,30
 423 163 423 163 423 214 c 256,31,32
 423 265 423 265 391.5 296.5 c 128,-1,33
 360 328 360 328 305 328 c 2,34,-1
 199 328 l 1,35,-1
 199 104 l 1,27,-1
EndSplineSet
EndChar

StartChar: C
Encoding: 67 67 39
Width: 600
GlyphClass: 2
Flags: W
AnchorPoint: "Anchor-3" 305 0 basechar 0
AnchorPoint: "Anchor-1" 305 730 basechar 0
LayerCount: 2
Fore
SplineSet
308 -10 m 0,0,1
 237 -10 237 -10 185 16.5 c 128,-1,2
 133 43 133 43 104.5 91.5 c 128,-1,3
 76 140 76 140 76 206 c 2,4,-1
 76 524 l 2,5,6
 76 590 76 590 104.5 638.5 c 128,-1,7
 133 687 133 687 185 713.5 c 128,-1,8
 237 740 237 740 308 740 c 0,9,10
 378 740 378 740 430 713.5 c 128,-1,11
 482 687 482 687 511 638.5 c 128,-1,12
 540 590 540 590 540 524 c 1,13,-1
 414 524 l 1,14,15
 414 575 414 575 386.5 602.5 c 128,-1,16
 359 630 359 630 308 630 c 256,17,18
 257 630 257 630 229 602.5 c 128,-1,19
 201 575 201 575 201 524 c 2,20,-1
 201 206 l 2,21,22
 201 155 201 155 229 127.5 c 128,-1,23
 257 100 257 100 308 100 c 256,24,25
 359 100 359 100 386.5 127.5 c 128,-1,26
 414 155 414 155 414 206 c 1,27,-1
 540 206 l 1,28,29
 540 140 540 140 511 91.5 c 128,-1,30
 482 43 482 43 430 16.5 c 128,-1,31
 378 -10 378 -10 308 -10 c 0,0,1
EndSplineSet
EndChar

StartChar: D
Encoding: 68 68 40
Width: 600
GlyphClass: 2
Flags: W
AnchorPoint: "Anchor-5" 300 365 basechar 0
AnchorPoint: "Anchor-3" 300 0 basechar 0
AnchorPoint: "Anchor-1" 300 730 basechar 0
LayerCount: 2
Fore
SplineSet
75 0 m 1,0,-1
 75 730 l 1,1,-1
 292 730 l 2,2,3
 366 730 366 730 420.5 701.5 c 128,-1,4
 475 673 475 673 505 622 c 128,-1,5
 535 571 535 571 535 502 c 2,6,-1
 535 229 l 2,7,8
 535 160 535 160 505 108.5 c 128,-1,9
 475 57 475 57 420.5 28.5 c 128,-1,10
 366 0 366 0 292 0 c 2,11,-1
 75 0 l 1,0,-1
200 112 m 1,12,-1
 292 112 l 2,13,14
 346 112 346 112 378 143.5 c 128,-1,15
 410 175 410 175 410 229 c 2,16,-1
 410 502 l 2,17,18
 410 555 410 555 378 586.5 c 128,-1,19
 346 618 346 618 292 618 c 2,20,-1
 200 618 l 1,21,-1
 200 112 l 1,12,-1
EndSplineSet
EndChar

StartChar: E
Encoding: 69 69 41
Width: 600
GlyphClass: 2
Flags: W
AnchorPoint: "Anchor-4" 434 0 basechar 0
AnchorPoint: "Anchor-3" 307 0 basechar 0
AnchorPoint: "Anchor-1" 307 730 basechar 0
LayerCount: 2
Fore
SplineSet
88 0 m 1,0,-1
 88 730 l 1,1,-1
 526 730 l 1,2,-1
 526 620 l 1,3,-1
 211 620 l 1,4,-1
 211 430 l 1,5,-1
 491 430 l 1,6,-1
 491 324 l 1,7,-1
 211 324 l 1,8,-1
 211 110 l 1,9,-1
 526 110 l 1,10,-1
 526 0 l 1,11,-1
 88 0 l 1,0,-1
EndSplineSet
EndChar

StartChar: F
Encoding: 70 70 42
Width: 600
GlyphClass: 2
Flags: W
AnchorPoint: "Anchor-3" 300 0 basechar 0
AnchorPoint: "Anchor-1" 300 730 basechar 0
LayerCount: 2
Fore
SplineSet
80 0 m 1,0,-1
 80 730 l 1,1,-1
 534 730 l 1,2,-1
 534 614 l 1,3,-1
 203 614 l 1,4,-1
 203 419 l 1,5,-1
 508 419 l 1,6,-1
 508 303 l 1,7,-1
 205 303 l 1,8,-1
 205 0 l 1,9,-1
 80 0 l 1,0,-1
EndSplineSet
EndChar

StartChar: G
Encoding: 71 71 43
Width: 600
GlyphClass: 2
Flags: W
AnchorPoint: "Anchor-3" 304 0 basechar 0
AnchorPoint: "Anchor-1" 300 730 basechar 0
LayerCount: 2
Fore
SplineSet
304 -10 m 0,0,1
 233 -10 233 -10 181 16.5 c 128,-1,2
 129 43 129 43 100.5 91.5 c 128,-1,3
 72 140 72 140 72 206 c 2,4,-1
 72 524 l 2,5,6
 72 590 72 590 100.5 638.5 c 128,-1,7
 129 687 129 687 181 713.5 c 128,-1,8
 233 740 233 740 304 740 c 0,9,10
 374 740 374 740 426 713.5 c 128,-1,11
 478 687 478 687 507 638.5 c 128,-1,12
 536 590 536 590 536 524 c 1,13,-1
 410 524 l 1,14,15
 410 575 410 575 382.5 602.5 c 128,-1,16
 355 630 355 630 304 630 c 256,17,18
 253 630 253 630 225 603 c 128,-1,19
 197 576 197 576 197 525 c 2,20,-1
 197 206 l 2,21,22
 197 155 197 155 225 127 c 128,-1,23
 253 99 253 99 304 99 c 256,24,25
 355 99 355 99 382.5 127 c 128,-1,26
 410 155 410 155 410 206 c 2,27,-1
 410 287 l 1,28,-1
 286 287 l 1,29,-1
 286 395 l 1,30,-1
 536 395 l 1,31,-1
 536 206 l 2,32,33
 536 140 536 140 507 91.5 c 128,-1,34
 478 43 478 43 426 16.5 c 128,-1,35
 374 -10 374 -10 304 -10 c 0,0,1
EndSplineSet
EndChar

StartChar: H
Encoding: 72 72 44
Width: 600
GlyphClass: 2
Flags: W
AnchorPoint: "Anchor-5" 300 365 basechar 0
AnchorPoint: "Anchor-3" 300 0 basechar 0
AnchorPoint: "Anchor-1" 300 730 basechar 0
LayerCount: 2
Fore
SplineSet
77 0 m 1,0,-1
 77 730 l 1,1,-1
 202 730 l 1,2,-1
 202 434 l 1,3,-1
 398 434 l 1,4,-1
 398 730 l 1,5,-1
 523 730 l 1,6,-1
 523 0 l 1,7,-1
 398 0 l 1,8,-1
 398 321 l 1,9,-1
 202 321 l 1,10,-1
 202 0 l 1,11,-1
 77 0 l 1,0,-1
EndSplineSet
EndChar

StartChar: I
Encoding: 73 73 45
Width: 600
GlyphClass: 2
Flags: W
AnchorPoint: "Anchor-4" 320 0 basechar 0
AnchorPoint: "Anchor-3" 300 0 basechar 0
AnchorPoint: "Anchor-1" 300 730 basechar 0
LayerCount: 2
Fore
SplineSet
90 0 m 1,0,-1
 90 113 l 1,1,-1
 237 113 l 1,2,-1
 237 617 l 1,3,-1
 90 617 l 1,4,-1
 90 730 l 1,5,-1
 510 730 l 1,6,-1
 510 617 l 1,7,-1
 363 617 l 1,8,-1
 363 113 l 1,9,-1
 510 113 l 1,10,-1
 510 0 l 1,11,-1
 90 0 l 1,0,-1
EndSplineSet
EndChar

StartChar: J
Encoding: 74 74 46
Width: 600
GlyphClass: 2
Flags: W
AnchorPoint: "Anchor-3" 300 0 basechar 0
AnchorPoint: "Anchor-1" 450 730 basechar 0
LayerCount: 2
Fore
SplineSet
270 -10 m 256,0,1
 159 -10 159 -10 94.5 51 c 128,-1,2
 30 112 30 112 30 216 c 1,3,-1
 155 216 l 1,4,5
 155 162 155 162 185.5 130.5 c 128,-1,6
 216 99 216 99 270 99 c 0,7,8
 323 99 323 99 354 130 c 128,-1,9
 385 161 385 161 385 215 c 2,10,-1
 385 730 l 1,11,-1
 510 730 l 1,12,-1
 510 215 l 2,13,14
 510 111 510 111 445.5 50.5 c 128,-1,15
 381 -10 381 -10 270 -10 c 256,0,1
EndSplineSet
EndChar

StartChar: K
Encoding: 75 75 47
Width: 600
GlyphClass: 2
Flags: W
AnchorPoint: "Anchor-3" 300 0 basechar 0
AnchorPoint: "Anchor-1" 300 730 basechar 0
LayerCount: 2
Fore
SplineSet
76 0 m 1,0,-1
 76 730 l 1,1,-1
 201 730 l 1,2,-1
 201 432 l 1,3,-1
 287 432 l 1,4,-1
 426 730 l 1,5,-1
 561 730 l 1,6,-1
 397 382 l 1,7,-1
 569 0 l 1,8,-1
 430 0 l 1,9,-1
 286 323 l 1,10,-1
 201 323 l 1,11,-1
 201 0 l 1,12,-1
 76 0 l 1,0,-1
EndSplineSet
Substitution2: "'cv08' Character Variants 08 in Latin lookup 924 subtable" K.cv08
Substitution2: "'ss01' Style Set 1 in Latin lookup 913 subtable" K.cv08
EndChar

StartChar: L
Encoding: 76 76 48
Width: 600
GlyphClass: 2
Flags: W
AnchorPoint: "Anchor-5" 300 365 basechar 0
AnchorPoint: "Anchor-3" 340 0 basechar 0
AnchorPoint: "Anchor-1" 184 730 basechar 0
LayerCount: 2
Fore
SplineSet
121 0 m 1,0,-1
 121 730 l 1,1,-1
 246 730 l 1,2,-1
 246 113 l 1,3,-1
 556 113 l 1,4,-1
 556 0 l 1,5,-1
 121 0 l 1,0,-1
EndSplineSet
EndChar

StartChar: M
Encoding: 77 77 49
Width: 600
GlyphClass: 2
Flags: W
AnchorPoint: "Anchor-3" 300 0 basechar 0
AnchorPoint: "Anchor-1" 300 730 basechar 0
LayerCount: 2
Fore
SplineSet
54 0 m 1,0,-1
 54 730 l 1,1,-1
 217 730 l 1,2,-1
 299 416 l 1,3,-1
 382 730 l 1,4,-1
 546 730 l 1,5,-1
 546 0 l 1,6,-1
 429 0 l 1,7,-1
 429 307 l 2,8,9
 429 370 429 370 432.5 437.5 c 128,-1,10
 436 505 436 505 441 568.5 c 128,-1,11
 446 632 446 632 452 684 c 1,12,-1
 349 317 l 1,13,-1
 246 317 l 1,14,-1
 147 675 l 1,15,16
 156 606 156 606 163.5 510.5 c 128,-1,17
 171 415 171 415 171 307 c 2,18,-1
 171 0 l 1,19,-1
 54 0 l 1,0,-1
EndSplineSet
EndChar

StartChar: N
Encoding: 78 78 50
Width: 600
GlyphClass: 2
Flags: W
AnchorPoint: "Anchor-3" 300 0 basechar 0
AnchorPoint: "Anchor-1" 300 730 basechar 0
LayerCount: 2
Fore
SplineSet
72 0 m 1,0,-1
 72 730 l 1,1,-1
 225 730 l 1,2,-1
 428 140 l 1,3,4
 425 172 425 172 422 215.5 c 128,-1,5
 419 259 419 259 416.5 304 c 128,-1,6
 414 349 414 349 414 384 c 2,7,-1
 414 730 l 1,8,-1
 528 730 l 1,9,-1
 528 0 l 1,10,-1
 375 0 l 1,11,-1
 174 590 l 1,12,13
 176 561 176 561 179 520 c 128,-1,14
 182 479 182 479 184 436 c 128,-1,15
 186 393 186 393 186 357 c 2,16,-1
 186 0 l 1,17,-1
 72 0 l 1,0,-1
EndSplineSet
EndChar

StartChar: O
Encoding: 79 79 51
Width: 600
GlyphClass: 2
Flags: W
AnchorPoint: "Anchor-5" 300 365 basechar 0
AnchorPoint: "Anchor-4" 347 0 basechar 0
AnchorPoint: "Anchor-3" 300 0 basechar 0
AnchorPoint: "Anchor-2" 320 700 basechar 0
AnchorPoint: "Anchor-1" 300 730 basechar 0
AnchorPoint: "Anchor-0" 580 730 basechar 0
LayerCount: 2
Fore
SplineSet
300 -10 m 256,0,1
 195 -10 195 -10 133.5 50 c 128,-1,2
 72 110 72 110 72 216 c 2,3,-1
 72 514 l 2,4,5
 72 620 72 620 133.5 680 c 128,-1,6
 195 740 195 740 300 740 c 256,7,8
 405 740 405 740 466.5 680 c 128,-1,9
 528 620 528 620 528 515 c 2,10,-1
 528 216 l 2,11,12
 528 110 528 110 466.5 50 c 128,-1,13
 405 -10 405 -10 300 -10 c 256,0,1
300 100 m 256,14,15
 351 100 351 100 377 127.5 c 128,-1,16
 403 155 403 155 403 206 c 2,17,-1
 403 524 l 2,18,19
 403 575 403 575 377 602.5 c 128,-1,20
 351 630 351 630 300 630 c 256,21,22
 249 630 249 630 223 602.5 c 128,-1,23
 197 575 197 575 197 524 c 2,24,-1
 197 206 l 2,25,26
 197 155 197 155 223 127.5 c 128,-1,27
 249 100 249 100 300 100 c 256,14,15
EndSplineSet
Substitution2: "Single Substitution lookup 909 subtable" ordmasculine
Substitution2: "'aalt' Access All Alternates in Latin lookup 477 subtable" ordmasculine
EndChar

StartChar: P
Encoding: 80 80 52
Width: 600
GlyphClass: 2
Flags: W
AnchorPoint: "Anchor-3" 300 0 basechar 0
AnchorPoint: "Anchor-1" 300 730 basechar 0
LayerCount: 2
Fore
SplineSet
77 0 m 1,0,-1
 77 730 l 1,1,-1
 320 730 l 2,2,3
 393 730 393 730 447.5 702 c 128,-1,4
 502 674 502 674 532 623.5 c 128,-1,5
 562 573 562 573 562 505 c 256,6,7
 562 437 562 437 532 386.5 c 128,-1,8
 502 336 502 336 447.5 308 c 128,-1,9
 393 280 393 280 320 280 c 2,10,-1
 202 280 l 1,11,-1
 202 0 l 1,12,-1
 77 0 l 1,0,-1
202 390 m 1,13,-1
 320 390 l 2,14,15
 373 390 373 390 404 422 c 128,-1,16
 435 454 435 454 435 505 c 256,17,18
 435 556 435 556 404 588 c 128,-1,19
 373 620 373 620 320 620 c 2,20,-1
 202 620 l 1,21,-1
 202 390 l 1,13,-1
EndSplineSet
EndChar

StartChar: Q
Encoding: 81 81 53
Width: 600
GlyphClass: 2
Flags: W
AnchorPoint: "Anchor-3" 300 0 basechar 0
AnchorPoint: "Anchor-1" 300 730 basechar 0
LayerCount: 2
Fore
SplineSet
409 -180 m 1,0,-1
 306 -10 l 2,1,2
 303 -10 303 -10 300 -10 c 0,3,4
 230 -10 230 -10 178 17 c 128,-1,5
 126 44 126 44 97 93 c 128,-1,6
 68 142 68 142 68 208 c 2,7,-1
 68 522 l 2,8,9
 68 588 68 588 96.5 637 c 128,-1,10
 125 686 125 686 177.5 713 c 128,-1,11
 230 740 230 740 300 740 c 256,12,13
 370 740 370 740 422 713 c 128,-1,14
 474 686 474 686 503 637 c 128,-1,15
 532 588 532 588 532 522 c 2,16,-1
 532 208 l 2,17,18
 532 142 532 142 503.5 92.5 c 128,-1,19
 475 43 475 43 423 17 c 1,20,-1
 544 -180 l 1,21,-1
 409 -180 l 1,0,-1
300 100 m 256,22,23
 352 100 352 100 379.5 128.5 c 128,-1,24
 407 157 407 157 407 208 c 2,25,-1
 407 522 l 2,26,27
 407 573 407 573 378.5 602 c 128,-1,28
 350 631 350 631 300 631 c 256,29,30
 250 631 250 631 221.5 602 c 128,-1,31
 193 573 193 573 193 522 c 2,32,-1
 193 208 l 2,33,34
 193 157 193 157 220.5 128.5 c 128,-1,35
 248 100 248 100 300 100 c 256,22,23
EndSplineSet
Substitution2: "'cv16' Character Variants 16 in Latin lookup 931 subtable" Q.cv16
EndChar

StartChar: R
Encoding: 82 82 54
Width: 600
GlyphClass: 2
Flags: W
AnchorPoint: "Anchor-3" 300 0 basechar 0
AnchorPoint: "Anchor-1" 300 730 basechar 0
LayerCount: 2
Fore
SplineSet
77 0 m 1,0,-1
 77 730 l 1,1,-1
 307 730 l 2,2,3
 380 730 380 730 433.5 703 c 128,-1,4
 487 676 487 676 517 627.5 c 128,-1,5
 547 579 547 579 547 513 c 0,6,7
 547 440 547 440 511 385.5 c 128,-1,8
 475 331 475 331 414 308 c 1,9,-1
 557 0 l 1,10,-1
 420 0 l 1,11,-1
 292 290 l 1,12,-1
 201 290 l 1,13,-1
 201 0 l 1,14,-1
 77 0 l 1,0,-1
201 400 m 1,15,-1
 307 400 l 2,16,17
 360 400 360 400 390 429 c 128,-1,18
 420 458 420 458 420 509 c 256,19,20
 420 560 420 560 389.5 590 c 128,-1,21
 359 620 359 620 307 620 c 2,22,-1
 201 620 l 1,23,-1
 201 400 l 1,15,-1
EndSplineSet
EndChar

StartChar: S
Encoding: 83 83 55
Width: 600
GlyphClass: 2
Flags: W
AnchorPoint: "Anchor-3" 300 0 basechar 0
AnchorPoint: "Anchor-1" 300 730 basechar 0
LayerCount: 2
Fore
SplineSet
303 -10 m 0,0,1
 229 -10 229 -10 173.5 16 c 128,-1,2
 118 42 118 42 87.5 90.5 c 128,-1,3
 57 139 57 139 57 206 c 1,4,-1
 180 206 l 1,5,6
 180 157 180 157 213.5 128 c 128,-1,7
 247 99 247 99 303 99 c 0,8,9
 357 99 357 99 388.5 127.5 c 128,-1,10
 420 156 420 156 420 204 c 0,11,12
 420 240 420 240 399.5 267.5 c 128,-1,13
 379 295 379 295 341 305 c 2,14,-1
 243 330 l 2,15,16
 164 350 164 350 118 405 c 128,-1,17
 72 460 72 460 72 536 c 0,18,19
 72 629 72 629 133 684.5 c 128,-1,20
 194 740 194 740 296 740 c 0,21,22
 365 740 365 740 416.5 715 c 128,-1,23
 468 690 468 690 496 644.5 c 128,-1,24
 524 599 524 599 524 538 c 1,25,-1
 402 538 l 1,26,27
 402 580 402 580 373 606 c 128,-1,28
 344 632 344 632 296 632 c 0,29,30
 249 632 249 632 221.5 606.5 c 128,-1,31
 194 581 194 581 194 540 c 0,32,33
 194 506 194 506 213.5 484 c 128,-1,34
 233 462 233 462 268 452 c 2,35,-1
 369 427 l 2,36,37
 450 407 450 407 496.5 347 c 128,-1,38
 543 287 543 287 543 204 c 0,39,40
 543 139 543 139 513.5 91 c 128,-1,41
 484 43 484 43 430 16.5 c 128,-1,42
 376 -10 376 -10 303 -10 c 0,0,1
EndSplineSet
EndChar

StartChar: T
Encoding: 84 84 56
Width: 600
GlyphClass: 2
Flags: W
AnchorPoint: "Anchor-5" 300 365 basechar 0
AnchorPoint: "Anchor-3" 300 0 basechar 0
AnchorPoint: "Anchor-1" 300 730 basechar 0
LayerCount: 2
Fore
SplineSet
237 0 m 1,0,-1
 237 617 l 1,1,-1
 46 617 l 1,2,-1
 46 730 l 1,3,-1
 554 730 l 1,4,-1
 554 617 l 1,5,-1
 363 617 l 1,6,-1
 363 0 l 1,7,-1
 237 0 l 1,0,-1
EndSplineSet
EndChar

StartChar: U
Encoding: 85 85 57
Width: 600
GlyphClass: 2
Flags: W
AnchorPoint: "Anchor-4" 347 0 basechar 0
AnchorPoint: "Anchor-3" 300 0 basechar 0
AnchorPoint: "Anchor-2" 385 730 basechar 0
AnchorPoint: "Anchor-1" 300 730 basechar 0
AnchorPoint: "Anchor-0" 580 730 basechar 0
LayerCount: 2
Fore
SplineSet
300 -10 m 0,0,1
 193 -10 193 -10 132.5 48.5 c 128,-1,2
 72 107 72 107 72 208 c 2,3,-1
 72 730 l 1,4,-1
 198 730 l 1,5,-1
 198 209 l 2,6,7
 198 157 198 157 224 128 c 128,-1,8
 250 99 250 99 300 99 c 0,9,10
 349 99 349 99 375.5 128 c 128,-1,11
 402 157 402 157 402 209 c 2,12,-1
 402 730 l 1,13,-1
 528 730 l 1,14,-1
 528 208 l 2,15,16
 528 107 528 107 468 48.5 c 128,-1,17
 408 -10 408 -10 300 -10 c 0,0,1
EndSplineSet
EndChar

StartChar: V
Encoding: 86 86 58
Width: 600
GlyphClass: 2
Flags: W
AnchorPoint: "Anchor-3" 300 0 basechar 0
AnchorPoint: "Anchor-1" 300 730 basechar 0
LayerCount: 2
Fore
SplineSet
219 0 m 1,0,-1
 35 730 l 1,1,-1
 164 730 l 1,2,-1
 275 254 l 2,3,4
 284 219 284 219 291.5 178.5 c 128,-1,5
 299 138 299 138 303 114 c 1,6,7
 307 138 307 138 314.5 178.5 c 128,-1,8
 322 219 322 219 331 255 c 2,9,-1
 438 730 l 1,10,-1
 565 730 l 1,11,-1
 381 0 l 1,12,-1
 219 0 l 1,0,-1
EndSplineSet
EndChar

StartChar: W
Encoding: 87 87 59
Width: 600
GlyphClass: 2
Flags: W
AnchorPoint: "Anchor-3" 300 0 basechar 0
AnchorPoint: "Anchor-1" 300 730 basechar 0
LayerCount: 2
Fore
SplineSet
90 0 m 1,0,-1
 14 730 l 1,1,-1
 118 730 l 1,2,-1
 164 220 l 2,3,4
 166 194 166 194 168.5 153.5 c 128,-1,5
 171 113 171 113 171 85 c 1,6,7
 174 113 174 113 177.5 153.5 c 128,-1,8
 181 194 181 194 184 220 c 2,9,-1
 248 730 l 1,10,-1
 355 730 l 1,11,-1
 415 220 l 2,12,13
 418 194 418 194 422.5 153.5 c 128,-1,14
 427 113 427 113 430 85 c 1,15,16
 431 113 431 113 433.5 153.5 c 128,-1,17
 436 194 436 194 438 220 c 2,18,-1
 483 730 l 1,19,-1
 586 730 l 1,20,-1
 506 0 l 1,21,-1
 368 0 l 1,22,-1
 312 512 l 2,23,24
 309 541 309 541 306 582.5 c 128,-1,25
 303 624 303 624 301 651 c 1,26,27
 299 624 299 624 296 582.5 c 128,-1,28
 293 541 293 541 290 512 c 2,29,-1
 229 0 l 1,30,-1
 90 0 l 1,0,-1
EndSplineSet
Substitution2: "'cv07' Character Variants 07 in Latin lookup 923 subtable" W.cv07
Substitution2: "'ss02' Style Set 2 in Latin lookup 914 subtable" W.cv07
EndChar

StartChar: X
Encoding: 88 88 60
Width: 600
GlyphClass: 2
Flags: W
AnchorPoint: "Anchor-3" 300 0 basechar 0
AnchorPoint: "Anchor-1" 300 730 basechar 0
LayerCount: 2
Fore
SplineSet
28 0 m 1,0,-1
 230 374 l 1,1,-1
 40 730 l 1,2,-1
 180 730 l 1,3,-1
 272 547 l 2,4,5
 282 527 282 527 290 508.5 c 128,-1,6
 298 490 298 490 302 480 c 1,7,8
 305 490 305 490 313 508.5 c 128,-1,9
 321 527 321 527 331 547 c 2,10,-1
 424 730 l 1,11,-1
 560 730 l 1,12,-1
 370 377 l 1,13,-1
 572 0 l 1,14,-1
 432 0 l 1,15,-1
 329 202 l 2,16,17
 319 221 319 221 310.5 240.5 c 128,-1,18
 302 260 302 260 298 271 c 1,19,20
 294 260 294 260 286 241 c 128,-1,21
 278 222 278 222 268 202 c 2,22,-1
 164 0 l 1,23,-1
 28 0 l 1,0,-1
EndSplineSet
EndChar

StartChar: Y
Encoding: 89 89 61
Width: 600
GlyphClass: 2
Flags: W
AnchorPoint: "Anchor-3" 300 0 basechar 0
AnchorPoint: "Anchor-1" 300 730 basechar 0
LayerCount: 2
Fore
SplineSet
237 0 m 1,0,-1
 237 265 l 1,1,-1
 23 730 l 1,2,-1
 155 730 l 1,3,-1
 268 477 l 2,4,5
 281 447 281 447 290 418 c 128,-1,6
 299 389 299 389 302 373 c 1,7,8
 306 389 306 389 314.5 418 c 128,-1,9
 323 447 323 447 336 477 c 2,10,-1
 447 730 l 1,11,-1
 577 730 l 1,12,-1
 363 265 l 1,13,-1
 363 0 l 1,14,-1
 237 0 l 1,0,-1
EndSplineSet
EndChar

StartChar: Z
Encoding: 90 90 62
Width: 600
GlyphClass: 2
Flags: W
AnchorPoint: "Anchor-5" 300 365 basechar 0
AnchorPoint: "Anchor-3" 300 0 basechar 0
AnchorPoint: "Anchor-1" 300 730 basechar 0
LayerCount: 2
Fore
SplineSet
79 0 m 1,0,-1
 79 116 l 1,1,-1
 372 617 l 1,2,-1
 86 617 l 1,3,-1
 86 730 l 1,4,-1
 510 730 l 1,5,-1
 510 614 l 1,6,-1
 216 113 l 1,7,-1
 521 113 l 1,8,-1
 521 0 l 1,9,-1
 79 0 l 1,0,-1
EndSplineSet
EndChar

StartChar: bracketleft
Encoding: 91 91 63
Width: 600
GlyphClass: 2
Flags: W
LayerCount: 2
Fore
SplineSet
185 -110 m 1,0,-1
 185 830 l 1,1,-1
 465 830 l 1,2,-1
 465 715 l 1,3,-1
 310 715 l 1,4,-1
 310 5 l 1,5,-1
 465 5 l 1,6,-1
 465 -110 l 1,7,-1
 185 -110 l 1,0,-1
EndSplineSet
Substitution2: "Single Substitution lookup 864 subtable" numbersign_bracketleft.liga
Substitution2: "Single Substitution lookup 528 subtable" SPC
Substitution2: "Single Substitution lookup 524 subtable" SPC
AlternateSubs2: "'aalt' Access All Alternates in Latin lookup 478 subtable" numbersign_bracketleft.liga SPC
Substitution2: "Single Substitution lookup 425 subtable" CR.18.0
Substitution2: "Single Substitution lookup 328 subtable" lig.50
EndChar

StartChar: backslash
Encoding: 92 92 64
Width: 600
GlyphClass: 2
Flags: W
LayerCount: 2
Fore
SplineSet
409 -110 m 1,0,-1
 60 830 l 1,1,-1
 190 830 l 1,2,-1
 539 -110 l 1,3,-1
 409 -110 l 1,0,-1
EndSplineSet
Substitution2: "Single Substitution lookup 534 subtable" slash_backslash.liga
Substitution2: "Single Substitution lookup 532 subtable" SPC
AlternateSubs2: "'aalt' Access All Alternates in Latin lookup 478 subtable" slash_backslash.liga SPC
Substitution2: "Single Substitution lookup 449 subtable" CR.10.0
Substitution2: "Single Substitution lookup 268 subtable" lig.70
EndChar

StartChar: bracketright
Encoding: 93 93 65
Width: 600
GlyphClass: 2
Flags: W
LayerCount: 2
Fore
SplineSet
135 -110 m 1,0,-1
 135 5 l 1,1,-1
 290 5 l 1,2,-1
 290 715 l 1,3,-1
 135 715 l 1,4,-1
 135 830 l 1,5,-1
 415 830 l 1,6,-1
 415 -110 l 1,7,-1
 135 -110 l 1,0,-1
EndSplineSet
Substitution2: "Single Substitution lookup 880 subtable" SPC
Substitution2: "Single Substitution lookup 643 subtable" greater_bracketright.liga
Substitution2: "Single Substitution lookup 526 subtable" bar_bracketright.liga
AlternateSubs2: "'aalt' Access All Alternates in Latin lookup 478 subtable" bar_bracketright.liga greater_bracketright.liga SPC
Substitution2: "Single Substitution lookup 439 subtable" lig.13
Substitution2: "Single Substitution lookup 422 subtable" CR.19.0
EndChar

StartChar: asciicircum
Encoding: 94 94 66
Width: 600
GlyphClass: 2
Flags: W
LayerCount: 2
Fore
SplineSet
68 340 m 1,0,-1
 241 730 l 1,1,-1
 361 730 l 1,2,-1
 532 340 l 1,3,-1
 415 340 l 1,4,-1
 323 570 l 2,5,6
 315 591 315 591 309.5 610.5 c 128,-1,7
 304 630 304 630 302 640 c 1,8,9
 299 630 299 630 293 610.5 c 128,-1,10
 287 591 287 591 279 570 c 2,11,-1
 184 340 l 1,12,-1
 68 340 l 1,0,-1
EndSplineSet
Substitution2: "Single Substitution lookup 836 subtable" SPC
Substitution2: "'aalt' Access All Alternates in Latin lookup 477 subtable" SPC
Substitution2: "Single Substitution lookup 473 subtable" CR.2.0
EndChar

StartChar: underscore
Encoding: 95 95 67
Width: 600
GlyphClass: 2
Flags: W
LayerCount: 2
Fore
SplineSet
60 -138 m 1,0,-1
 60 -25 l 1,1,-1
 540 -25 l 1,2,-1
 540 -138 l 1,3,-1
 60 -138 l 1,0,-1
EndSplineSet
Substitution2: "Single Substitution lookup 878 subtable" SPC
Substitution2: "Single Substitution lookup 870 subtable" numbersign_underscore.liga
Substitution2: "Single Substitution lookup 765 subtable" SPC
Substitution2: "Single Substitution lookup 764 subtable" underscore_underscore.liga
Substitution2: "Single Substitution lookup 656 subtable" SPC
Substitution2: "Single Substitution lookup 655 subtable" underscore_bar_underscore.liga
Substitution2: "Single Substitution lookup 508 subtable" at_underscore.liga
AlternateSubs2: "'aalt' Access All Alternates in Latin lookup 478 subtable" numbersign_underscore.liga underscore_bar_underscore.liga underscore_underscore.liga at_underscore.liga SPC
Substitution2: "Single Substitution lookup 307 subtable" lig.57
Substitution2: "Single Substitution lookup 257 subtable" CR.74.0
Substitution2: "Single Substitution lookup 256 subtable" lig.74
Substitution2: "Single Substitution lookup 65 subtable" CR.122.1
Substitution2: "Single Substitution lookup 38 subtable" CR.129.0
Substitution2: "Single Substitution lookup 36 subtable" lig.129
EndChar

StartChar: a
Encoding: 97 97 69
Width: 600
GlyphClass: 2
Flags: W
AnchorPoint: "Anchor-4" 450 0 basechar 0
AnchorPoint: "Anchor-3" 305 0 basechar 0
AnchorPoint: "Anchor-1" 305 550 basechar 0
LayerCount: 2
Fore
SplineSet
239 -10 m 0,0,1
 155 -10 155 -10 106.5 37.5 c 128,-1,2
 58 85 58 85 58 162 c 0,3,4
 58 242 58 242 113 289.5 c 128,-1,5
 168 337 168 337 264 337 c 2,6,-1
 398 337 l 1,7,-1
 398 376 l 2,8,9
 398 459 398 459 301 459 c 0,10,11
 257 459 257 459 231 442 c 128,-1,12
 205 425 205 425 202 394 c 1,13,-1
 82 394 l 1,14,15
 86 468 86 468 144.5 514 c 128,-1,16
 203 560 203 560 302 560 c 0,17,18
 407 560 407 560 465 511 c 128,-1,19
 523 462 523 462 523 373 c 2,20,-1
 523 0 l 1,21,-1
 401 0 l 1,22,-1
 401 103 l 1,23,24
 394 50 394 50 351 20 c 128,-1,25
 308 -10 308 -10 239 -10 c 0,0,1
279 92 m 0,26,27
 334 92 334 92 366 119 c 128,-1,28
 398 146 398 146 398 191 c 2,29,-1
 398 256 l 1,30,-1
 270 256 l 2,31,32
 229 256 229 256 205 233 c 128,-1,33
 181 210 181 210 181 174 c 0,34,35
 181 137 181 137 206.5 114.5 c 128,-1,36
 232 92 232 92 279 92 c 0,26,27
EndSplineSet
Substitution2: "Single Substitution lookup 909 subtable" ordfeminine
Substitution2: "'aalt' Access All Alternates in Latin lookup 477 subtable" ordfeminine
EndChar

StartChar: b
Encoding: 98 98 70
Width: 600
GlyphClass: 2
Flags: W
AnchorPoint: "Anchor-3" 300 0 basechar 0
AnchorPoint: "Anchor-1" 300 730 basechar 0
LayerCount: 2
Fore
SplineSet
350 -10 m 0,0,1
 292 -10 292 -10 253 19 c 128,-1,2
 214 48 214 48 199 100 c 1,3,-1
 199 0 l 1,4,-1
 77 0 l 1,5,-1
 77 730 l 1,6,-1
 202 730 l 1,7,-1
 202 576 l 1,8,-1
 198 450 l 1,9,10
 214 502 214 502 253.5 531 c 128,-1,11
 293 560 293 560 350 560 c 0,12,13
 431 560 431 560 480 503 c 128,-1,14
 529 446 529 446 529 349 c 2,15,-1
 529 200 l 2,16,17
 529 104 529 104 479.5 47 c 128,-1,18
 430 -10 430 -10 350 -10 c 0,0,1
303 98 m 256,19,20
 351 98 351 98 377.5 124 c 128,-1,21
 404 150 404 150 404 204 c 2,22,-1
 404 346 l 2,23,24
 404 400 404 400 377.5 426 c 128,-1,25
 351 452 351 452 303 452 c 256,26,27
 255 452 255 452 228.5 423 c 128,-1,28
 202 394 202 394 202 341 c 2,29,-1
 202 209 l 2,30,31
 202 156 202 156 228.5 127 c 128,-1,32
 255 98 255 98 303 98 c 256,19,20
EndSplineSet
EndChar

StartChar: c
Encoding: 99 99 71
Width: 600
GlyphClass: 2
Flags: W
AnchorPoint: "Anchor-3" 309 0 basechar 0
AnchorPoint: "Anchor-1" 309 550 basechar 0
LayerCount: 2
Fore
SplineSet
309 -10 m 0,0,1
 238 -10 238 -10 185.5 16.5 c 128,-1,2
 133 43 133 43 104 91.5 c 128,-1,3
 75 140 75 140 75 206 c 2,4,-1
 75 344 l 2,5,6
 75 410 75 410 104 458.5 c 128,-1,7
 133 507 133 507 185.5 533.5 c 128,-1,8
 238 560 238 560 309 560 c 0,9,10
 412 560 412 560 474.5 506.5 c 128,-1,11
 537 453 537 453 540 361 c 1,12,-1
 417 361 l 1,13,14
 414 404 414 404 384.5 427.5 c 128,-1,15
 355 451 355 451 309 451 c 0,16,17
 258 451 258 451 229 423.5 c 128,-1,18
 200 396 200 396 200 345 c 2,19,-1
 200 206 l 2,20,21
 200 155 200 155 229 127 c 128,-1,22
 258 99 258 99 309 99 c 0,23,24
 356 99 356 99 385 122.5 c 128,-1,25
 414 146 414 146 417 189 c 1,26,-1
 540 189 l 1,27,28
 537 97 537 97 474.5 43.5 c 128,-1,29
 412 -10 412 -10 309 -10 c 0,0,1
EndSplineSet
EndChar

StartChar: d
Encoding: 100 100 72
Width: 600
GlyphClass: 2
Flags: W
AnchorPoint: "Anchor-5" 300 275 basechar 0
AnchorPoint: "Anchor-3" 300 0 basechar 0
AnchorPoint: "Anchor-1" 300 730 basechar 0
AnchorPoint: "Anchor-0" 580 550 basechar 0
LayerCount: 2
Fore
SplineSet
250 -10 m 0,0,1
 170 -10 170 -10 120.5 47 c 128,-1,2
 71 104 71 104 71 200 c 2,3,-1
 71 349 l 2,4,5
 71 446 71 446 120 503 c 128,-1,6
 169 560 169 560 250 560 c 0,7,8
 307 560 307 560 346.5 531 c 128,-1,9
 386 502 386 502 402 450 c 1,10,-1
 398 576 l 1,11,-1
 398 730 l 1,12,-1
 523 730 l 1,13,-1
 523 0 l 1,14,-1
 401 0 l 1,15,-1
 401 100 l 1,16,17
 386 48 386 48 347 19 c 128,-1,18
 308 -10 308 -10 250 -10 c 0,0,1
297 98 m 256,19,20
 345 98 345 98 371.5 127 c 128,-1,21
 398 156 398 156 398 209 c 2,22,-1
 398 341 l 2,23,24
 398 394 398 394 371.5 423 c 128,-1,25
 345 452 345 452 297 452 c 256,26,27
 249 452 249 452 222.5 426 c 128,-1,28
 196 400 196 400 196 346 c 2,29,-1
 196 204 l 2,30,31
 196 150 196 150 222.5 124 c 128,-1,32
 249 98 249 98 297 98 c 256,19,20
EndSplineSet
EndChar

StartChar: e
Encoding: 101 101 73
Width: 600
GlyphClass: 2
Flags: W
AnchorPoint: "Anchor-4" 347 0 basechar 0
AnchorPoint: "Anchor-3" 300 0 basechar 0
AnchorPoint: "Anchor-1" 300 550 basechar 0
LayerCount: 2
Fore
SplineSet
301 -10 m 0,0,1
 231 -10 231 -10 179 17 c 128,-1,2
 127 44 127 44 98.5 93.5 c 128,-1,3
 70 143 70 143 70 210 c 2,4,-1
 70 340 l 2,5,6
 70 407 70 407 98.5 456.5 c 128,-1,7
 127 506 127 506 179 533 c 128,-1,8
 231 560 231 560 301 560 c 0,9,10
 370 560 370 560 421.5 533 c 128,-1,11
 473 506 473 506 501.5 457.5 c 128,-1,12
 530 409 530 409 530 344 c 2,13,-1
 530 244 l 1,14,-1
 190 244 l 1,15,-1
 190 206 l 2,16,17
 190 150 190 150 219 121.5 c 128,-1,18
 248 93 248 93 301 93 c 0,19,20
 340 93 340 93 367.5 106.5 c 128,-1,21
 395 120 395 120 400 146 c 1,22,-1
 524 146 l 1,23,24
 511 75 511 75 450 32.5 c 128,-1,25
 389 -10 389 -10 301 -10 c 0,0,1
190 344 m 2,26,-1
 190 325 l 1,27,-1
 410 326 l 1,28,-1
 410 345 l 2,29,30
 410 402 410 402 382 433 c 128,-1,31
 354 464 354 464 301 464 c 0,32,33
 246 464 246 464 218 432.5 c 128,-1,34
 190 401 190 401 190 344 c 2,26,-1
EndSplineSet
EndChar

StartChar: f
Encoding: 102 102 74
Width: 600
GlyphClass: 2
Flags: W
AnchorPoint: "Anchor-3" 300 0 basechar 0
AnchorPoint: "Anchor-1" 300 730 basechar 0
LayerCount: 2
Fore
SplineSet
200 0 m 1,0,-1
 200 362 l 1,1,-1
 49 362 l 1,2,-1
 49 475 l 1,3,-1
 200 475 l 1,4,-1
 200 572 l 2,5,6
 200 644 200 644 248 687 c 128,-1,7
 296 730 296 730 375 730 c 2,8,-1
 536 730 l 1,9,-1
 536 620 l 1,10,-1
 378 620 l 2,11,12
 354 620 354 620 339.5 606.5 c 128,-1,13
 325 593 325 593 325 570 c 2,14,-1
 325 475 l 1,15,-1
 536 475 l 1,16,-1
 536 362 l 1,17,-1
 325 362 l 1,18,-1
 325 0 l 1,19,-1
 200 0 l 1,0,-1
EndSplineSet
Substitution2: "'cv17' Character Variants 17 in Latin lookup 932 subtable" f.cv17
Substitution2: "'cv09' Character Variants 09 in Latin lookup 925 subtable" f.cv09
Substitution2: "'ss20' Style Set 20 in Latin lookup 916 subtable" f.ss20
Substitution2: "'ss02' Style Set 2 in Latin lookup 914 subtable" f.cv17
Substitution2: "'ss01' Style Set 1 in Latin lookup 913 subtable" f.cv09
EndChar

StartChar: g
Encoding: 103 103 75
Width: 600
GlyphClass: 2
Flags: W
AnchorPoint: "Anchor-3" 300 -270 basechar 0
AnchorPoint: "Anchor-1" 297 550 basechar 0
LayerCount: 2
Fore
SplineSet
152 -180 m 1,0,-1
 152 -76 l 1,1,-1
 307 -76 l 2,2,3
 351 -76 351 -76 375 -52.5 c 128,-1,4
 399 -29 399 -29 399 11 c 2,5,-1
 399 44 l 1,6,-1
 401 130 l 1,7,8
 384 84 384 84 346.5 58.5 c 128,-1,9
 309 33 309 33 255 33 c 0,10,11
 171 33 171 33 121.5 89.5 c 128,-1,12
 72 146 72 146 72 243 c 2,13,-1
 72 350 l 2,14,15
 72 446 72 446 121.5 503 c 128,-1,16
 171 560 171 560 255 560 c 0,17,18
 309 560 309 560 346.5 534.5 c 128,-1,19
 384 509 384 509 401 462 c 1,20,-1
 401 550 l 1,21,-1
 523 550 l 1,22,-1
 523 8 l 2,23,24
 523 -79 523 -79 465.5 -129.5 c 128,-1,25
 408 -180 408 -180 309 -180 c 2,26,-1
 152 -180 l 1,0,-1
297 140 m 256,27,28
 345 140 345 140 371.5 168.5 c 128,-1,29
 398 197 398 197 398 248 c 2,30,-1
 398 344 l 2,31,32
 398 395 398 395 371.5 423.5 c 128,-1,33
 345 452 345 452 297 452 c 256,34,35
 249 452 249 452 223 424.5 c 128,-1,36
 197 397 197 397 197 348 c 2,37,-1
 197 244 l 2,38,39
 197 195 197 195 223 167.5 c 128,-1,40
 249 140 249 140 297 140 c 256,27,28
EndSplineSet
Substitution2: "'cv03' Character Variants 03 in Latin lookup 919 subtable" g.cv03
EndChar

StartChar: h
Encoding: 104 104 76
Width: 600
GlyphClass: 2
Flags: W
AnchorPoint: "Anchor-5" 300 365 basechar 0
AnchorPoint: "Anchor-3" 300 0 basechar 0
AnchorPoint: "Anchor-1" 140 730 basechar 0
LayerCount: 2
Fore
SplineSet
77 0 m 1,0,-1
 77 730 l 1,1,-1
 202 730 l 1,2,-1
 202 550 l 1,3,-1
 199 448 l 1,4,5
 209 500 209 500 248 530 c 128,-1,6
 287 560 287 560 347 560 c 0,7,8
 428 560 428 560 476.5 506 c 128,-1,9
 525 452 525 452 525 361 c 2,10,-1
 525 0 l 1,11,-1
 400 0 l 1,12,-1
 400 346 l 2,13,14
 400 397 400 397 373.5 424.5 c 128,-1,15
 347 452 347 452 302 452 c 0,16,17
 255 452 255 452 228.5 424 c 128,-1,18
 202 396 202 396 202 344 c 2,19,-1
 202 0 l 1,20,-1
 77 0 l 1,0,-1
EndSplineSet
EndChar

StartChar: k
Encoding: 107 107 79
Width: 600
GlyphClass: 2
Flags: W
AnchorPoint: "Anchor-3" 300 0 basechar 0
AnchorPoint: "Anchor-1" 300 730 basechar 0
LayerCount: 2
Fore
SplineSet
82 0 m 1,0,-1
 82 730 l 1,1,-1
 207 730 l 1,2,-1
 207 334 l 1,3,-1
 295 334 l 1,4,-1
 426 550 l 1,5,-1
 565 550 l 1,6,-1
 402 284 l 1,7,-1
 571 0 l 1,8,-1
 429 0 l 1,9,-1
 295 228 l 1,10,-1
 207 228 l 1,11,-1
 207 0 l 1,12,-1
 82 0 l 1,0,-1
EndSplineSet
Substitution2: "'cv08' Character Variants 08 in Latin lookup 924 subtable" k.cv08
Substitution2: "'ss01' Style Set 1 in Latin lookup 913 subtable" k.cv08
EndChar

StartChar: l
Encoding: 108 108 80
Width: 600
GlyphClass: 2
Flags: W
AnchorPoint: "Anchor-5" 300 365 basechar 0
AnchorPoint: "Anchor-3" 320 0 basechar 0
AnchorPoint: "Anchor-1" 258 730 basechar 0
LayerCount: 2
Fore
SplineSet
389 0 m 2,0,1
 307 0 307 0 257.5 49 c 128,-1,2
 208 98 208 98 208 178 c 2,3,-1
 208 617 l 1,4,-1
 27 617 l 1,5,-1
 27 730 l 1,6,-1
 333 730 l 1,7,-1
 333 181 l 2,8,9
 333 150 333 150 350.5 131.5 c 128,-1,10
 368 113 368 113 398 113 c 2,11,-1
 559 113 l 1,12,-1
 559 0 l 1,13,-1
 389 0 l 2,0,1
EndSplineSet
Substitution2: "'cv05' Character Variants 05 in Latin lookup 921 subtable" l.cv05
Substitution2: "'cv01' Character Variants 01 in Latin lookup 917 subtable" l.cv01
Substitution2: "'ss02' Style Set 2 in Latin lookup 914 subtable" l.cv05
Substitution2: "'ss01' Style Set 1 in Latin lookup 913 subtable" l.cv01
EndChar

StartChar: m
Encoding: 109 109 81
Width: 600
GlyphClass: 2
Flags: W
AnchorPoint: "Anchor-3" 300 0 basechar 0
AnchorPoint: "Anchor-1" 300 550 basechar 0
LayerCount: 2
Fore
SplineSet
47 0 m 1,0,-1
 47 550 l 1,1,-1
 151 550 l 1,2,-1
 151 470 l 1,3,-1
 154 470 l 1,4,5
 157 510 157 510 182 535 c 128,-1,6
 207 560 207 560 245 560 c 0,7,8
 282 560 282 560 308 536.5 c 128,-1,9
 334 513 334 513 343 473 c 1,10,11
 347 513 347 513 372.5 536.5 c 128,-1,12
 398 560 398 560 437 560 c 0,13,14
 487 560 487 560 520 520.5 c 128,-1,15
 553 481 553 481 553 419 c 2,16,-1
 553 0 l 1,17,-1
 443 0 l 1,18,-1
 443 410 l 2,19,20
 443 437 443 437 430.5 452.5 c 128,-1,21
 418 468 418 468 395 468 c 0,22,23
 350 468 350 468 350 410 c 2,24,-1
 350 0 l 1,25,-1
 250 0 l 1,26,-1
 250 410 l 2,27,28
 250 437 250 437 238.5 452.5 c 128,-1,29
 227 468 227 468 205 468 c 0,30,31
 157 468 157 468 157 410 c 2,32,-1
 157 0 l 1,33,-1
 47 0 l 1,0,-1
EndSplineSet
Substitution2: "'cv06' Character Variants 06 in Latin lookup 922 subtable" m.cv06
Substitution2: "'ss02' Style Set 2 in Latin lookup 914 subtable" m.cv06
EndChar

StartChar: n
Encoding: 110 110 82
Width: 600
GlyphClass: 2
Flags: W
AnchorPoint: "Anchor-3" 300 0 basechar 0
AnchorPoint: "Anchor-1" 305 550 basechar 0
LayerCount: 2
Fore
SplineSet
77 0 m 1,0,-1
 77 550 l 1,1,-1
 199 550 l 1,2,-1
 199 447 l 1,3,4
 209 499 209 499 248 529.5 c 128,-1,5
 287 560 287 560 347 560 c 0,6,7
 428 560 428 560 476.5 506 c 128,-1,8
 525 452 525 452 525 361 c 2,9,-1
 525 0 l 1,10,-1
 400 0 l 1,11,-1
 400 346 l 2,12,13
 400 397 400 397 373.5 424.5 c 128,-1,14
 347 452 347 452 302 452 c 0,15,16
 255 452 255 452 228.5 424 c 128,-1,17
 202 396 202 396 202 344 c 2,18,-1
 202 0 l 1,19,-1
 77 0 l 1,0,-1
EndSplineSet
EndChar

StartChar: o
Encoding: 111 111 83
Width: 600
GlyphClass: 2
Flags: W
AnchorPoint: "Anchor-5" 300 275 basechar 0
AnchorPoint: "Anchor-4" 347 0 basechar 0
AnchorPoint: "Anchor-3" 300 0 basechar 0
AnchorPoint: "Anchor-2" 325 550 basechar 0
AnchorPoint: "Anchor-1" 300 550 basechar 0
AnchorPoint: "Anchor-0" 580 550 basechar 0
LayerCount: 2
Fore
SplineSet
300 -9 m 256,0,1
 194 -9 194 -9 132 50.5 c 128,-1,2
 70 110 70 110 70 211 c 2,3,-1
 70 339 l 2,4,5
 70 441 70 441 132 500 c 128,-1,6
 194 559 194 559 300 559 c 256,7,8
 406 559 406 559 468 500 c 128,-1,9
 530 441 530 441 530 339 c 2,10,-1
 530 211 l 2,11,12
 530 110 530 110 468 50.5 c 128,-1,13
 406 -9 406 -9 300 -9 c 256,0,1
300 100 m 256,14,15
 350 100 350 100 377.5 127.5 c 128,-1,16
 405 155 405 155 405 207 c 2,17,-1
 405 343 l 2,18,19
 405 395 405 395 377.5 422.5 c 128,-1,20
 350 450 350 450 300 450 c 256,21,22
 250 450 250 450 222.5 422.5 c 128,-1,23
 195 395 195 395 195 343 c 2,24,-1
 195 207 l 2,25,26
 195 155 195 155 222.5 127.5 c 128,-1,27
 250 100 250 100 300 100 c 256,14,15
EndSplineSet
Substitution2: "Single Substitution lookup 909 subtable" ordmasculine
Substitution2: "'aalt' Access All Alternates in Latin lookup 477 subtable" ordmasculine
EndChar

StartChar: p
Encoding: 112 112 84
Width: 600
GlyphClass: 2
Flags: W
AnchorPoint: "Anchor-3" 300 0 basechar 0
AnchorPoint: "Anchor-1" 300 550 basechar 0
LayerCount: 2
Fore
SplineSet
77 -180 m 1,0,-1
 77 550 l 1,1,-1
 199 550 l 1,2,-1
 199 449 l 1,3,4
 214 501 214 501 253 530.5 c 128,-1,5
 292 560 292 560 350 560 c 0,6,7
 403 560 403 560 443.5 534 c 128,-1,8
 484 508 484 508 506.5 460.5 c 128,-1,9
 529 413 529 413 529 350 c 2,10,-1
 529 201 l 2,11,12
 529 106 529 106 480 48 c 128,-1,13
 431 -10 431 -10 350 -10 c 0,14,15
 292 -10 292 -10 252.5 20 c 128,-1,16
 213 50 213 50 198 104 c 1,17,-1
 202 -26 l 1,18,-1
 202 -180 l 1,19,-1
 77 -180 l 1,0,-1
303 98 m 256,20,21
 351 98 351 98 377.5 124 c 128,-1,22
 404 150 404 150 404 204 c 2,23,-1
 404 346 l 2,24,25
 404 400 404 400 377.5 426 c 128,-1,26
 351 452 351 452 303 452 c 256,27,28
 255 452 255 452 228.5 423 c 128,-1,29
 202 394 202 394 202 341 c 2,30,-1
 202 209 l 2,31,32
 202 156 202 156 228.5 127 c 128,-1,33
 255 98 255 98 303 98 c 256,20,21
EndSplineSet
EndChar

StartChar: q
Encoding: 113 113 85
Width: 600
GlyphClass: 2
Flags: W
AnchorPoint: "Anchor-3" 300 0 basechar 0
AnchorPoint: "Anchor-1" 300 550 basechar 0
LayerCount: 2
Fore
SplineSet
398 -180 m 1,0,-1
 398 -26 l 1,1,-1
 402 99 l 1,2,-1
 401 99 l 1,3,4
 385 48 385 48 346 19 c 128,-1,5
 307 -10 307 -10 250 -10 c 0,6,7
 169 -10 169 -10 120 47 c 128,-1,8
 71 104 71 104 71 201 c 2,9,-1
 71 350 l 2,10,11
 71 446 71 446 120.5 503 c 128,-1,12
 170 560 170 560 250 560 c 0,13,14
 308 560 308 560 347 531 c 128,-1,15
 386 502 386 502 401 450 c 1,16,-1
 401 550 l 1,17,-1
 523 550 l 1,18,-1
 523 -180 l 1,19,-1
 398 -180 l 1,0,-1
297 98 m 256,20,21
 345 98 345 98 371.5 127 c 128,-1,22
 398 156 398 156 398 209 c 2,23,-1
 398 341 l 2,24,25
 398 394 398 394 371.5 423 c 128,-1,26
 345 452 345 452 297 452 c 256,27,28
 249 452 249 452 222.5 426 c 128,-1,29
 196 400 196 400 196 348 c 2,30,-1
 196 202 l 2,31,32
 196 150 196 150 222.5 124 c 128,-1,33
 249 98 249 98 297 98 c 256,20,21
EndSplineSet
EndChar

StartChar: r
Encoding: 114 114 86
Width: 600
GlyphClass: 2
Flags: W
AnchorPoint: "Anchor-3" 145 0 basechar 0
AnchorPoint: "Anchor-1" 320 550 basechar 0
LayerCount: 2
Fore
SplineSet
97 0 m 1,0,-1
 97 550 l 1,1,-1
 219 550 l 1,2,-1
 219 443 l 1,3,4
 229 497 229 497 268.5 528.5 c 128,-1,5
 308 560 308 560 371 560 c 0,6,7
 455 560 455 560 502 506 c 128,-1,8
 549 452 549 452 549 355 c 2,9,-1
 549 303 l 1,10,-1
 424 303 l 1,11,-1
 424 349 l 2,12,13
 424 399 424 399 398 425.5 c 128,-1,14
 372 452 372 452 324 452 c 0,15,16
 274 452 274 452 248 422 c 128,-1,17
 222 392 222 392 222 337 c 2,18,-1
 222 0 l 1,19,-1
 97 0 l 1,0,-1
EndSplineSet
Substitution2: "'cv10' Character Variants 10 in Latin lookup 926 subtable" r.cv10
Substitution2: "'ss01' Style Set 1 in Latin lookup 913 subtable" r.cv10
EndChar

StartChar: s
Encoding: 115 115 87
Width: 600
GlyphClass: 2
Flags: W
AnchorPoint: "Anchor-3" 300 0 basechar 0
AnchorPoint: "Anchor-1" 300 550 basechar 0
LayerCount: 2
Fore
SplineSet
277 -9 m 2,0,1
 179 -9 179 -9 122 35.5 c 128,-1,2
 65 80 65 80 65 156 c 1,3,-1
 188 156 l 1,4,5
 188 124 188 124 211.5 107 c 128,-1,6
 235 90 235 90 277 90 c 2,7,-1
 321 90 l 2,8,9
 366 90 366 90 390.5 107 c 128,-1,10
 415 124 415 124 415 156 c 0,11,12
 415 186 415 186 398 200.5 c 128,-1,13
 381 215 381 215 346 220 c 2,14,-1
 209 238 l 2,15,16
 143 247 143 247 107.5 289 c 128,-1,17
 72 331 72 331 72 398 c 0,18,19
 72 476 72 476 124 517.5 c 128,-1,20
 176 559 176 559 274 559 c 2,21,-1
 320 559 l 2,22,23
 412 559 412 559 468 517 c 128,-1,24
 524 475 524 475 526 405 c 1,25,-1
 402 405 l 1,26,27
 401 431 401 431 379 446.5 c 128,-1,28
 357 462 357 462 320 462 c 2,29,-1
 274 462 l 2,30,31
 234 462 234 462 213 445.5 c 128,-1,32
 192 429 192 429 192 401 c 0,33,34
 192 376 192 376 207.5 364 c 128,-1,35
 223 352 223 352 253 349 c 2,36,-1
 382 331 l 2,37,38
 458 322 458 322 496.5 277.5 c 128,-1,39
 535 233 535 233 535 158 c 0,40,41
 535 78 535 78 480.5 34.5 c 128,-1,42
 426 -9 426 -9 321 -9 c 2,43,-1
 277 -9 l 2,0,1
EndSplineSet
EndChar

StartChar: t
Encoding: 116 116 88
Width: 600
GlyphClass: 2
Flags: W
AnchorPoint: "Anchor-5" 300 275 basechar 0
AnchorPoint: "Anchor-3" 360 0 basechar 0
AnchorPoint: "Anchor-1" 250 705 basechar 0
AnchorPoint: "Anchor-0" 367 621 basechar 0
LayerCount: 2
Fore
SplineSet
355 0 m 2,0,1
 278 0 278 0 232.5 44.5 c 128,-1,2
 187 89 187 89 187 165 c 2,3,-1
 187 437 l 1,4,-1
 35 437 l 1,5,-1
 35 550 l 1,6,-1
 187 550 l 1,7,-1
 187 705 l 1,8,-1
 313 705 l 1,9,-1
 313 550 l 1,10,-1
 532 550 l 1,11,-1
 532 437 l 1,12,-1
 313 437 l 1,13,-1
 313 168 l 2,14,15
 313 144 313 144 326.5 128.5 c 128,-1,16
 340 113 340 113 364 113 c 2,17,-1
 527 113 l 1,18,-1
 527 0 l 1,19,-1
 355 0 l 2,0,1
EndSplineSet
Substitution2: "'cv02' Character Variants 02 in Latin lookup 918 subtable" t.cv02
Substitution2: "'ss02' Style Set 2 in Latin lookup 914 subtable" t.cv02
EndChar

StartChar: u
Encoding: 117 117 89
Width: 600
GlyphClass: 2
Flags: W
AnchorPoint: "Anchor-4" 347 0 basechar 0
AnchorPoint: "Anchor-3" 300 0 basechar 0
AnchorPoint: "Anchor-2" 414 550 basechar 0
AnchorPoint: "Anchor-1" 300 550 basechar 0
AnchorPoint: "Anchor-0" 580 550 basechar 0
LayerCount: 2
Fore
SplineSet
300 -10 m 0,0,1
 195 -10 195 -10 135 48.5 c 128,-1,2
 75 107 75 107 75 208 c 2,3,-1
 75 550 l 1,4,-1
 200 550 l 1,5,-1
 200 209 l 2,6,7
 200 157 200 157 226 128 c 128,-1,8
 252 99 252 99 300 99 c 0,9,10
 347 99 347 99 373.5 128 c 128,-1,11
 400 157 400 157 400 209 c 2,12,-1
 400 550 l 1,13,-1
 525 550 l 1,14,-1
 525 208 l 2,15,16
 525 107 525 107 464 48.5 c 128,-1,17
 403 -10 403 -10 300 -10 c 0,0,1
EndSplineSet
Substitution2: "'cv12' Character Variants 12 in Latin lookup 928 subtable" u.cv12
Substitution2: "'ss01' Style Set 1 in Latin lookup 913 subtable" u.cv12
EndChar

StartChar: v
Encoding: 118 118 90
Width: 600
GlyphClass: 2
Flags: W
AnchorPoint: "Anchor-3" 300 0 basechar 0
AnchorPoint: "Anchor-1" 300 550 basechar 0
LayerCount: 2
Fore
SplineSet
221 0 m 1,0,-1
 36 550 l 1,1,-1
 167 550 l 1,2,-1
 273 216 l 2,3,4
 283 186 283 186 290.5 155.5 c 128,-1,5
 298 125 298 125 301 103 c 1,6,7
 305 125 305 125 311.5 155.5 c 128,-1,8
 318 186 318 186 327 215 c 2,9,-1
 432 550 l 1,10,-1
 564 550 l 1,11,-1
 380 0 l 1,12,-1
 221 0 l 1,0,-1
EndSplineSet
EndChar

StartChar: w
Encoding: 119 119 91
Width: 600
GlyphClass: 2
Flags: W
AnchorPoint: "Anchor-3" 300 0 basechar 0
AnchorPoint: "Anchor-1" 300 550 basechar 0
LayerCount: 2
Fore
SplineSet
102 0 m 1,0,-1
 16 550 l 1,1,-1
 115 550 l 1,2,-1
 164 213 l 2,3,4
 168 182 168 182 171 146 c 128,-1,5
 174 110 174 110 176 86 c 1,6,7
 177 110 177 110 180 146 c 128,-1,8
 183 182 183 182 189 213 c 2,9,-1
 249 550 l 1,10,-1
 353 550 l 1,11,-1
 411 213 l 2,12,13
 417 182 417 182 420.5 145.5 c 128,-1,14
 424 109 424 109 426 85 c 1,15,16
 428 109 428 109 430.5 145.5 c 128,-1,17
 433 182 433 182 438 213 c 2,18,-1
 488 550 l 1,19,-1
 584 550 l 1,20,-1
 496 0 l 1,21,-1
 367 0 l 1,22,-1
 315 339 l 2,23,24
 310 367 310 367 306 403.5 c 128,-1,25
 302 440 302 440 300 463 c 1,26,27
 299 440 299 440 294 403.5 c 128,-1,28
 289 367 289 367 285 339 c 2,29,-1
 231 0 l 1,30,-1
 102 0 l 1,0,-1
EndSplineSet
Substitution2: "'cv07' Character Variants 07 in Latin lookup 923 subtable" w.cv07
Substitution2: "'ss02' Style Set 2 in Latin lookup 914 subtable" w.cv07
Substitution2: "Single Substitution lookup 34 subtable" CR.130.0
Substitution2: "Single Substitution lookup 33 subtable" CR.130.1
Substitution2: "Single Substitution lookup 32 subtable" lig.130
EndChar

StartChar: x
Encoding: 120 120 92
Width: 600
GlyphClass: 2
Flags: W
AnchorPoint: "Anchor-3" 300 0 basechar 0
AnchorPoint: "Anchor-1" 300 550 basechar 0
LayerCount: 2
Fore
SplineSet
36 0 m 1,0,-1
 228 284 l 1,1,-1
 49 550 l 1,2,-1
 190 550 l 1,3,-1
 275 415 l 2,4,5
 283 403 283 403 290 388 c 128,-1,6
 297 373 297 373 300 364 c 1,7,8
 304 373 304 373 310.5 388 c 128,-1,9
 317 403 317 403 325 415 c 2,10,-1
 410 550 l 1,11,-1
 552 550 l 1,12,-1
 373 284 l 1,13,-1
 564 0 l 1,14,-1
 422 0 l 1,15,-1
 327 151 l 2,16,17
 319 163 319 163 311.5 178.5 c 128,-1,18
 304 194 304 194 300 203 c 1,19,20
 296 194 296 194 289 178.5 c 128,-1,21
 282 163 282 163 274 151 c 2,22,-1
 178 0 l 1,23,-1
 36 0 l 1,0,-1
EndSplineSet
EndChar

StartChar: y
Encoding: 121 121 93
Width: 600
GlyphClass: 2
Flags: W
AnchorPoint: "Anchor-3" 300 0 basechar 0
AnchorPoint: "Anchor-1" 300 550 basechar 0
LayerCount: 2
Fore
SplineSet
165 -180 m 1,0,-1
 243 30 l 1,1,-1
 36 550 l 1,2,-1
 168 550 l 1,3,-1
 274 269 l 2,4,5
 283 244 283 244 292 214.5 c 128,-1,6
 301 185 301 185 305 160 c 1,7,8
 308 185 308 185 316.5 214.5 c 128,-1,9
 325 244 325 244 334 269 c 2,10,-1
 432 550 l 1,11,-1
 564 550 l 1,12,-1
 296 -180 l 1,13,-1
 165 -180 l 1,0,-1
EndSplineSet
Substitution2: "'cv11' Character Variants 11 in Latin lookup 927 subtable" y.cv11
Substitution2: "'ss02' Style Set 2 in Latin lookup 914 subtable" y.cv11
Substitution2: "'ss01' Style Set 1 in Latin lookup 913 subtable" y.cv11
EndChar

StartChar: z
Encoding: 122 122 94
Width: 600
GlyphClass: 2
Flags: W
AnchorPoint: "Anchor-5" 300 275 basechar 0
AnchorPoint: "Anchor-3" 300 0 basechar 0
AnchorPoint: "Anchor-1" 300 550 basechar 0
LayerCount: 2
Fore
SplineSet
78 0 m 1,0,-1
 78 113 l 1,1,-1
 365 440 l 1,2,-1
 87 440 l 1,3,-1
 87 550 l 1,4,-1
 511 550 l 1,5,-1
 511 437 l 1,6,-1
 221 110 l 1,7,-1
 522 110 l 1,8,-1
 522 0 l 1,9,-1
 78 0 l 1,0,-1
EndSplineSet
EndChar

StartChar: braceleft
Encoding: 123 123 95
Width: 600
GlyphClass: 2
Flags: W
LayerCount: 2
Fore
SplineSet
442 -111 m 2,0,1
 354 -111 354 -111 303 -62.5 c 128,-1,2
 252 -14 252 -14 260 67 c 2,3,-1
 275 219 l 2,4,5
 279 260 279 260 261 281 c 128,-1,6
 243 302 243 302 199 302 c 2,7,-1
 69 302 l 1,8,-1
 69 417 l 1,9,-1
 199 417 l 2,10,11
 243 417 243 417 261 438 c 128,-1,12
 279 459 279 459 275 499 c 2,13,-1
 260 656 l 2,14,15
 252 735 252 735 303 782.5 c 128,-1,16
 354 830 354 830 442 830 c 2,17,-1
 511 830 l 1,18,-1
 511 715 l 1,19,-1
 460 715 l 2,20,21
 423 715 423 715 403 696.5 c 128,-1,22
 383 678 383 678 385 644 c 2,23,-1
 400 488 l 2,24,25
 405 437 405 437 373.5 403.5 c 128,-1,26
 342 370 342 370 280 362 c 1,27,28
 342 353 342 353 373.5 318 c 128,-1,29
 405 283 405 283 400 231 c 2,30,-1
 385 75 l 2,31,32
 382 42 382 42 402.5 23.5 c 128,-1,33
 423 5 423 5 460 5 c 2,34,-1
 511 5 l 1,35,-1
 511 -111 l 1,36,-1
 442 -111 l 2,0,1
EndSplineSet
Substitution2: "Single Substitution lookup 862 subtable" numbersign_braceleft.liga
Substitution2: "Single Substitution lookup 530 subtable" SPC
Substitution2: "Single Substitution lookup 503 subtable" SPC
Substitution2: "Single Substitution lookup 497 subtable" SPC
Substitution2: "Single Substitution lookup 492 subtable" SPC
Substitution2: "Single Substitution lookup 491 subtable" SPC
Substitution2: "Single Substitution lookup 486 subtable" SPC
Substitution2: "Single Substitution lookup 485 subtable" braceleft_braceleft.liga
AlternateSubs2: "'aalt' Access All Alternates in Latin lookup 478 subtable" braceleft_braceleft.liga numbersign_braceleft.liga SPC
Substitution2: "Single Substitution lookup 428 subtable" CR.17.0
Substitution2: "Single Substitution lookup 331 subtable" lig.49
EndChar

StartChar: bar
Encoding: 124 124 96
Width: 600
GlyphClass: 2
Flags: W
LayerCount: 2
Fore
SplineSet
237 -110 m 1,0,-1
 237 830 l 1,1,-1
 363 830 l 1,2,-1
 363 -110 l 1,3,-1
 237 -110 l 1,0,-1
EndSplineSet
Substitution2: "Single Substitution lookup 820 subtable" SPC
Substitution2: "Single Substitution lookup 818 subtable" SPC
Substitution2: "Single Substitution lookup 816 subtable" less_equal_bar.liga
Substitution2: "Single Substitution lookup 814 subtable" less_hyphen_bar.liga
Substitution2: "Single Substitution lookup 728 subtable" SPC
Substitution2: "Single Substitution lookup 727 subtable" bar_bar.liga
Substitution2: "Single Substitution lookup 725 subtable" SPC
Substitution2: "Single Substitution lookup 723 subtable" SPC
Substitution2: "Single Substitution lookup 721 subtable" SPC
Substitution2: "Single Substitution lookup 720 subtable" SPC
Substitution2: "Single Substitution lookup 718 subtable" SPC
Substitution2: "Single Substitution lookup 717 subtable" SPC
Substitution2: "Single Substitution lookup 715 subtable" SPC
Substitution2: "Single Substitution lookup 713 subtable" SPC
Substitution2: "Single Substitution lookup 712 subtable" SPC
Substitution2: "Single Substitution lookup 710 subtable" SPC
Substitution2: "Single Substitution lookup 709 subtable" SPC
Substitution2: "Single Substitution lookup 708 subtable" SPC
Substitution2: "Single Substitution lookup 655 subtable" SPC
Substitution2: "Single Substitution lookup 653 subtable" SPC
Substitution2: "Single Substitution lookup 622 subtable" hyphen_bar.liga
Substitution2: "Single Substitution lookup 620 subtable" less_bar.liga
Substitution2: "Single Substitution lookup 618 subtable" SPC
Substitution2: "Single Substitution lookup 617 subtable" less_bar_bar.liga
Substitution2: "Single Substitution lookup 615 subtable" SPC
Substitution2: "Single Substitution lookup 614 subtable" SPC
Substitution2: "Single Substitution lookup 613 subtable" less_bar_bar_bar.liga
Substitution2: "Single Substitution lookup 530 subtable" braceleft_bar.liga
Substitution2: "Single Substitution lookup 526 subtable" SPC
Substitution2: "Single Substitution lookup 524 subtable" bracketleft_bar.liga
Substitution2: "Single Substitution lookup 522 subtable" SPC
AlternateSubs2: "'aalt' Access All Alternates in Latin lookup 478 subtable" hyphen_bar.liga braceleft_bar.liga bracketleft_bar.liga bar_bar.liga less_hyphen_bar.liga less_bar.liga less_bar_bar.liga less_bar_bar_bar.liga less_equal_bar.liga SPC
Substitution2: "Single Substitution lookup 446 subtable" CR.11.0
Substitution2: "Single Substitution lookup 445 subtable" lig.11
Substitution2: "Single Substitution lookup 443 subtable" CR.12.0
Substitution2: "Single Substitution lookup 440 subtable" CR.13.0
Substitution2: "Single Substitution lookup 437 subtable" CR.14.0
Substitution2: "Single Substitution lookup 434 subtable" CR.15.0
Substitution2: "Single Substitution lookup 431 subtable" CR.16.0
Substitution2: "Single Substitution lookup 427 subtable" lig.17
Substitution2: "Single Substitution lookup 424 subtable" lig.18
Substitution2: "Single Substitution lookup 376 subtable" lig.34
Substitution2: "Single Substitution lookup 358 subtable" lig.40
Substitution2: "Single Substitution lookup 246 subtable" CR.77.0
Substitution2: "Single Substitution lookup 245 subtable" CR.77.1
Substitution2: "Single Substitution lookup 242 subtable" CR.78.0
Substitution2: "Single Substitution lookup 241 subtable" CR.78.1
Substitution2: "Single Substitution lookup 238 subtable" CR.79.0
Substitution2: "Single Substitution lookup 237 subtable" CR.79.1
Substitution2: "Single Substitution lookup 234 subtable" CR.80.0
Substitution2: "Single Substitution lookup 230 subtable" CR.81.0
Substitution2: "Single Substitution lookup 133 subtable" CR.105.1
Substitution2: "Single Substitution lookup 132 subtable" lig.105
Substitution2: "Single Substitution lookup 129 subtable" CR.106.1
Substitution2: "Single Substitution lookup 120 subtable" lig.108
Substitution2: "Single Substitution lookup 104 subtable" lig.112
Substitution2: "Single Substitution lookup 37 subtable" CR.129.1
Substitution2: "Single Substitution lookup 30 subtable" CR.131.0
Substitution2: "Single Substitution lookup 29 subtable" CR.131.1
Substitution2: "Single Substitution lookup 28 subtable" CR.131.2
Substitution2: "Single Substitution lookup 24 subtable" CR.132.1
Substitution2: "Single Substitution lookup 23 subtable" CR.132.2
Substitution2: "Single Substitution lookup 22 subtable" lig.132
EndChar

StartChar: braceright
Encoding: 125 125 97
Width: 600
GlyphClass: 2
Flags: W
LayerCount: 2
Fore
SplineSet
89 -111 m 1,0,-1
 89 5 l 1,1,-1
 140 5 l 2,2,3
 177 5 177 5 198 23.5 c 128,-1,4
 219 42 219 42 215 75 c 2,5,-1
 195 231 l 2,6,7
 189 282 189 282 219 317.5 c 128,-1,8
 249 353 249 353 303 362 c 1,9,10
 249 371 249 371 219 404 c 128,-1,11
 189 437 189 437 195 488 c 2,12,-1
 215 644 l 2,13,14
 219 678 219 678 198 696.5 c 128,-1,15
 177 715 177 715 140 715 c 2,16,-1
 89 715 l 1,17,-1
 89 830 l 1,18,-1
 158 830 l 2,19,20
 216 830 216 830 259.5 808.5 c 128,-1,21
 303 787 303 787 324.5 748 c 128,-1,22
 346 709 346 709 340 656 c 2,23,-1
 320 499 l 2,24,25
 310 417 310 417 397 417 c 2,26,-1
 531 417 l 1,27,-1
 531 302 l 1,28,-1
 397 302 l 2,29,30
 310 302 310 302 320 219 c 2,31,-1
 340 67 l 2,32,33
 346 13 346 13 324.5 -27 c 128,-1,34
 303 -67 303 -67 260 -89 c 128,-1,35
 217 -111 217 -111 158 -111 c 2,36,-1
 89 -111 l 1,0,-1
EndSplineSet
Substitution2: "Single Substitution lookup 522 subtable" bar_braceright.liga
Substitution2: "Single Substitution lookup 500 subtable" exclam_exclam_braceright.liga
Substitution2: "Single Substitution lookup 495 subtable" SPC
Substitution2: "Single Substitution lookup 494 subtable" hyphen_hyphen_braceright_braceright.liga
Substitution2: "Single Substitution lookup 489 subtable" SPC
Substitution2: "Single Substitution lookup 488 subtable" braceright_braceright.liga
AlternateSubs2: "'aalt' Access All Alternates in Latin lookup 478 subtable" hyphen_hyphen_braceright_braceright.liga braceright_braceright.liga exclam_exclam_braceright.liga bar_braceright.liga SPC
Substitution2: "Single Substitution lookup 442 subtable" lig.12
EndChar

StartChar: asciitilde
Encoding: 126 126 98
Width: 600
GlyphClass: 2
Flags: W
LayerCount: 2
Fore
SplineSet
52 255 m 1,0,-1
 52 334 l 2,1,2
 52 395 52 395 92 432.5 c 128,-1,3
 132 470 132 470 197 470 c 0,4,5
 238 470 238 470 265 456 c 128,-1,6
 292 442 292 442 309.5 422 c 128,-1,7
 327 402 327 402 341 381.5 c 128,-1,8
 355 361 355 361 369 347.5 c 128,-1,9
 383 334 383 334 404 334 c 0,10,11
 442 334 442 334 442 377 c 2,12,-1
 442 450 l 1,13,-1
 548 450 l 1,14,-1
 548 371 l 2,15,16
 548 310 548 310 508.5 272.5 c 128,-1,17
 469 235 469 235 403 235 c 0,18,19
 362 235 362 235 335 249 c 128,-1,20
 308 263 308 263 290.5 283 c 128,-1,21
 273 303 273 303 259 323.5 c 128,-1,22
 245 344 245 344 231 357.5 c 128,-1,23
 217 371 217 371 196 371 c 0,24,25
 158 371 158 371 158 328 c 2,26,-1
 158 255 l 1,27,-1
 52 255 l 1,0,-1
EndSplineSet
Substitution2: "Single Substitution lookup 834 subtable" SPC
Substitution2: "Single Substitution lookup 832 subtable" SPC
Substitution2: "Single Substitution lookup 830 subtable" SPC
Substitution2: "Single Substitution lookup 828 subtable" SPC
Substitution2: "Single Substitution lookup 827 subtable" SPC
Substitution2: "Single Substitution lookup 825 subtable" hyphen_asciitilde.liga
Substitution2: "Single Substitution lookup 823 subtable" SPC
Substitution2: "Single Substitution lookup 822 subtable" less_asciitilde_asciitilde.liga
Substitution2: "Single Substitution lookup 804 subtable" SPC
Substitution2: "Single Substitution lookup 802 subtable" SPC
Substitution2: "Single Substitution lookup 801 subtable" asciitilde_asciitilde.liga
Substitution2: "Single Substitution lookup 799 subtable" less_asciitilde.liga
Substitution2: "Single Substitution lookup 606 subtable" less_less_asciitilde.liga
AlternateSubs2: "'aalt' Access All Alternates in Latin lookup 478 subtable" hyphen_asciitilde.liga less_less_asciitilde.liga less_asciitilde.liga less_asciitilde_asciitilde.liga asciitilde_asciitilde.liga SPC
Substitution2: "Single Substitution lookup 470 subtable" CR.3.0
Substitution2: "Single Substitution lookup 469 subtable" lig.3
Substitution2: "Single Substitution lookup 467 subtable" CR.4.0
Substitution2: "Single Substitution lookup 464 subtable" CR.5.0
Substitution2: "Single Substitution lookup 461 subtable" CR.6.0
Substitution2: "Single Substitution lookup 379 subtable" lig.33
Substitution2: "Single Substitution lookup 364 subtable" lig.38
Substitution2: "Single Substitution lookup 254 subtable" CR.75.0
Substitution2: "Single Substitution lookup 253 subtable" CR.75.1
Substitution2: "Single Substitution lookup 145 subtable" CR.102.1
Substitution2: "Single Substitution lookup 144 subtable" lig.102
Substitution2: "Single Substitution lookup 141 subtable" CR.103.1
EndChar

StartChar: exclamdown
Encoding: 161 161 100
Width: 600
GlyphClass: 2
Flags: W
LayerCount: 2
Fore
SplineSet
285 423 m 2,0,1
 254 423 254 423 235 441.5 c 128,-1,2
 216 460 216 460 216 489 c 256,3,4
 216 518 216 518 235 536.5 c 128,-1,5
 254 555 254 555 285 555 c 2,6,-1
 314 555 l 2,7,8
 345 555 345 555 364.5 536.5 c 128,-1,9
 384 518 384 518 384 489 c 256,10,11
 384 460 384 460 365.5 441.5 c 128,-1,12
 347 423 347 423 315 423 c 2,13,-1
 285 423 l 2,0,1
232 -180 m 1,14,-1
 246 323 l 1,15,-1
 354 323 l 1,16,-1
 368 -180 l 1,17,-1
 232 -180 l 1,14,-1
EndSplineSet
EndChar

StartChar: cent
Encoding: 162 162 101
Width: 600
GlyphClass: 2
Flags: W
AnchorPoint: "Anchor-3" 309 0 basechar 0
AnchorPoint: "Anchor-1" 309 550 basechar 0
LayerCount: 2
Fore
SplineSet
274 -140 m 1,0,-1
 274 -8 l 1,1,2
 183 1 183 1 129 58 c 128,-1,3
 75 115 75 115 75 206 c 2,4,-1
 75 344 l 2,5,6
 75 435 75 435 129 492 c 128,-1,7
 183 549 183 549 274 558 c 1,8,-1
 274 690 l 1,9,-1
 337 690 l 1,10,-1
 337 559 l 1,11,12
 428 551 428 551 482.5 499 c 128,-1,13
 537 447 537 447 540 361 c 1,14,-1
 417 361 l 1,15,16
 415 397 415 397 393.5 419.5 c 128,-1,17
 372 442 372 442 337 448 c 1,18,-1
 337 102 l 1,19,20
 372 108 372 108 393.5 130.5 c 128,-1,21
 415 153 415 153 417 189 c 1,22,-1
 540 189 l 1,23,24
 537 103 537 103 482.5 51 c 128,-1,25
 428 -1 428 -1 337 -9 c 1,26,-1
 337 -140 l 1,27,-1
 274 -140 l 1,0,-1
200 206 m 2,28,29
 200 164 200 164 219.5 137.5 c 128,-1,30
 239 111 239 111 274 103 c 1,31,-1
 274 447 l 1,32,33
 239 439 239 439 219.5 412.5 c 128,-1,34
 200 386 200 386 200 345 c 2,35,-1
 200 206 l 2,28,29
EndSplineSet
Substitution2: "'cv14' Character Variants 14 in Latin lookup 929 subtable" cent.cv14
EndChar

StartChar: sterling
Encoding: 163 163 102
Width: 600
GlyphClass: 2
Flags: W
LayerCount: 2
Fore
SplineSet
75 0 m 1,0,-1
 75 135 l 1,1,2
 99 149 99 149 124 170 c 128,-1,3
 149 191 149 191 166.5 216 c 128,-1,4
 184 241 184 241 184 266 c 0,5,6
 184 280 184 280 182 293 c 1,7,-1
 69 293 l 1,8,-1
 69 397 l 1,9,-1
 136 397 l 1,10,11
 120 418 120 418 104 439 c 128,-1,12
 88 460 88 460 77.5 485.5 c 128,-1,13
 67 511 67 511 67 546 c 0,14,15
 67 602 67 602 95.5 646 c 128,-1,16
 124 690 124 690 176.5 715 c 128,-1,17
 229 740 229 740 300 740 c 0,18,19
 403 740 403 740 465 685 c 128,-1,20
 527 630 527 630 531 538 c 1,21,-1
 404 538 l 1,22,23
 402 578 402 578 373.5 604.5 c 128,-1,24
 345 631 345 631 297 631 c 0,25,26
 248 631 248 631 220 605.5 c 128,-1,27
 192 580 192 580 192 539 c 0,28,29
 192 509 192 509 205 487.5 c 128,-1,30
 218 466 218 466 235.5 445.5 c 128,-1,31
 253 425 253 425 269 397 c 1,32,-1
 435 397 l 1,33,-1
 435 293 l 1,34,-1
 298 293 l 1,35,36
 298 285 298 285 298 275 c 0,37,38
 298 231 298 231 277 198.5 c 128,-1,39
 256 166 256 166 225 145 c 128,-1,40
 194 124 194 124 165 115 c 1,41,-1
 535 115 l 1,42,-1
 535 0 l 1,43,-1
 75 0 l 1,0,-1
EndSplineSet
EndChar

StartChar: currency
Encoding: 164 164 103
Width: 600
GlyphClass: 2
Flags: W
LayerCount: 2
Fore
SplineSet
494 111 m 1,0,-1
 406 198 l 1,1,2
 360 171 360 171 301 171 c 0,3,4
 241 171 241 171 195 198 c 1,5,-1
 109 112 l 1,6,-1
 42 179 l 1,7,-1
 126 263 l 1,8,9
 95 312 95 312 95 373 c 256,10,11
 95 434 95 434 126 481 c 1,12,-1
 40 568 l 1,13,-1
 107 636 l 1,14,-1
 195 548 l 1,15,16
 243 575 243 575 301 575 c 0,17,18
 362 575 362 575 410 546 c 1,19,-1
 494 630 l 1,20,-1
 560 564 l 1,21,-1
 476 480 l 1,22,23
 505 431 505 431 505 373 c 0,24,25
 505 343 505 343 497 315.5 c 128,-1,26
 489 288 489 288 475 265 c 1,27,-1
 562 178 l 1,28,-1
 494 111 l 1,0,-1
301 255 m 0,29,30
 350 255 350 255 383 289 c 128,-1,31
 416 323 416 323 416 373 c 256,32,33
 416 423 416 423 383 457 c 128,-1,34
 350 491 350 491 301 491 c 0,35,36
 251 491 251 491 217.5 457 c 128,-1,37
 184 423 184 423 184 373 c 256,38,39
 184 323 184 323 217.5 289 c 128,-1,40
 251 255 251 255 301 255 c 0,29,30
EndSplineSet
EndChar

StartChar: yen
Encoding: 165 165 104
Width: 600
GlyphClass: 2
Flags: W
AnchorPoint: "Anchor-3" 300 0 basechar 0
AnchorPoint: "Anchor-1" 300 730 basechar 0
LayerCount: 2
Fore
SplineSet
60 108 m 1,0,-1
 60 201 l 1,1,-1
 237 201 l 1,2,-1
 237 264 l 1,3,-1
 60 264 l 1,4,-1
 60 357 l 1,5,-1
 195 357 l 1,6,-1
 23 730 l 1,7,-1
 155 730 l 1,8,-1
 268 477 l 2,9,10
 281 447 281 447 290 418 c 128,-1,11
 299 389 299 389 302 373 c 1,12,13
 306 389 306 389 314.5 418 c 128,-1,14
 323 447 323 447 336 477 c 2,15,-1
 447 730 l 1,16,-1
 577 730 l 1,17,-1
 405 357 l 1,18,-1
 540 357 l 1,19,-1
 540 264 l 1,20,-1
 363 264 l 1,21,-1
 363 201 l 1,22,-1
 540 201 l 1,23,-1
 540 108 l 1,24,-1
 363 108 l 1,25,-1
 363 0 l 1,26,-1
 237 0 l 1,27,-1
 237 108 l 1,28,-1
 60 108 l 1,0,-1
EndSplineSet
EndChar

StartChar: brokenbar
Encoding: 166 166 105
Width: 600
GlyphClass: 2
Flags: W
LayerCount: 2
Fore
SplineSet
237 450 m 1,0,-1
 237 830 l 1,1,-1
 363 830 l 1,2,-1
 363 450 l 1,3,-1
 237 450 l 1,0,-1
237 -110 m 1,4,-1
 237 270 l 1,5,-1
 363 270 l 1,6,-1
 363 -110 l 1,7,-1
 237 -110 l 1,4,-1
EndSplineSet
EndChar

StartChar: section
Encoding: 167 167 106
Width: 600
GlyphClass: 2
Flags: W
LayerCount: 2
Fore
SplineSet
280 -155 m 2,0,1
 181 -155 181 -155 122.5 -113.5 c 128,-1,2
 64 -72 64 -72 58 1 c 1,3,-1
 185 1 l 1,4,5
 189 -25 189 -25 215 -40.5 c 128,-1,6
 241 -56 241 -56 280 -56 c 2,7,-1
 319 -56 l 2,8,9
 365 -56 365 -56 392 -35.5 c 128,-1,10
 419 -15 419 -15 419 18 c 0,11,12
 419 79 419 79 330 96 c 2,13,-1
 238 114 l 2,14,15
 159 129 159 129 113.5 175 c 128,-1,16
 68 221 68 221 68 281 c 0,17,18
 68 340 68 340 101.5 374.5 c 128,-1,19
 135 409 135 409 197 415 c 1,20,-1
 197 420 l 1,21,22
 164 427 164 427 135 447 c 128,-1,23
 106 467 106 467 88 498 c 128,-1,24
 70 529 70 529 70 571 c 0,25,26
 70 649 70 649 126.5 694.5 c 128,-1,27
 183 740 183 740 282 740 c 2,28,-1
 320 740 l 2,29,30
 413 740 413 740 469.5 700.5 c 128,-1,31
 526 661 526 661 534 591 c 1,32,-1
 407 591 l 1,33,34
 403 613 403 613 380 627 c 128,-1,35
 357 641 357 641 320 641 c 2,36,-1
 282 641 l 2,37,38
 238 641 238 641 215 622.5 c 128,-1,39
 192 604 192 604 192 573 c 0,40,41
 192 546 192 546 209 527 c 128,-1,42
 226 508 226 508 260 501 c 2,43,-1
 370 479 l 2,44,45
 451 462 451 462 495.5 415 c 128,-1,46
 540 368 540 368 540 307 c 0,47,48
 540 250 540 250 504.5 215.5 c 128,-1,49
 469 181 469 181 410 176 c 1,50,-1
 410 171 l 1,51,52
 436 168 436 168 467 150.5 c 128,-1,53
 498 133 498 133 520 100 c 128,-1,54
 542 67 542 67 542 17 c 0,55,56
 542 -62 542 -62 483 -108.5 c 128,-1,57
 424 -155 424 -155 319 -155 c 2,58,-1
 280 -155 l 2,0,1
321 199 m 2,59,60
 364 190 364 190 391 217 c 128,-1,61
 418 244 418 244 418 293 c 0,62,63
 418 326 418 326 398 351 c 128,-1,64
 378 376 378 376 345 383 c 2,65,-1
 282 395 l 2,66,67
 241 403 241 403 215.5 376.5 c 128,-1,68
 190 350 190 350 190 302 c 0,69,70
 190 267 190 267 208.5 241.5 c 128,-1,71
 227 216 227 216 257 211 c 2,72,-1
 321 199 l 2,59,60
EndSplineSet
EndChar

StartChar: copyright
Encoding: 169 169 108
Width: 600
GlyphClass: 2
Flags: W
LayerCount: 2
Fore
SplineSet
300 110 m 0,0,1
 224 110 224 110 166.5 140 c 128,-1,2
 109 170 109 170 77 224 c 128,-1,3
 45 278 45 278 45 350 c 2,4,-1
 45 500 l 2,5,6
 45 572 45 572 77 626 c 128,-1,7
 109 680 109 680 166.5 710 c 128,-1,8
 224 740 224 740 300 740 c 0,9,10
 377 740 377 740 434 710 c 128,-1,11
 491 680 491 680 523 626 c 128,-1,12
 555 572 555 572 555 500 c 2,13,-1
 555 350 l 2,14,15
 555 278 555 278 523 224 c 128,-1,16
 491 170 491 170 434 140 c 128,-1,17
 377 110 377 110 300 110 c 0,0,1
300 160 m 256,18,19
 360 160 360 160 405 183.5 c 128,-1,20
 450 207 450 207 475 250 c 128,-1,21
 500 293 500 293 500 350 c 2,22,-1
 500 500 l 2,23,24
 500 557 500 557 475 599.5 c 128,-1,25
 450 642 450 642 405 666 c 128,-1,26
 360 690 360 690 300 690 c 256,27,28
 240 690 240 690 195 666 c 128,-1,29
 150 642 150 642 125 599.5 c 128,-1,30
 100 557 100 557 100 500 c 2,31,-1
 100 350 l 2,32,33
 100 293 100 293 125 250 c 128,-1,34
 150 207 150 207 195 183.5 c 128,-1,35
 240 160 240 160 300 160 c 256,18,19
305 245 m 0,36,37
 246 245 246 245 210 278 c 128,-1,38
 174 311 174 311 174 366 c 2,39,-1
 174 484 l 2,40,41
 174 539 174 539 210 572 c 128,-1,42
 246 605 246 605 305 605 c 0,43,44
 363 605 363 605 399 572 c 128,-1,45
 435 539 435 539 435 484 c 1,46,-1
 358 484 l 1,47,48
 358 509 358 509 343.5 523.5 c 128,-1,49
 329 538 329 538 305 538 c 256,50,51
 281 538 281 538 266 523.5 c 128,-1,52
 251 509 251 509 251 484 c 2,53,-1
 251 366 l 2,54,55
 251 341 251 341 266 326.5 c 128,-1,56
 281 312 281 312 305 312 c 256,57,58
 329 312 329 312 343.5 326.5 c 128,-1,59
 358 341 358 341 358 366 c 1,60,-1
 435 366 l 1,61,62
 435 311 435 311 399 278 c 128,-1,63
 363 245 363 245 305 245 c 0,36,37
EndSplineSet
EndChar

StartChar: ordfeminine
Encoding: 170 170 109
Width: 600
GlyphClass: 2
Flags: W
LayerCount: 2
Fore
SplineSet
268 450 m 0,0,1
 224 450 224 450 196.5 474 c 128,-1,2
 169 498 169 498 169 537 c 256,3,4
 169 576 169 576 199 599.5 c 128,-1,5
 229 623 229 623 280 623 c 2,6,-1
 358 623 l 1,7,-1
 358 650 l 2,8,9
 358 668 358 668 343.5 678 c 128,-1,10
 329 688 329 688 305 688 c 0,11,12
 283 688 283 688 268.5 679.5 c 128,-1,13
 254 671 254 671 252 657 c 1,14,-1
 184 657 l 1,15,16
 191 695 191 695 223.5 717.5 c 128,-1,17
 256 740 256 740 305 740 c 0,18,19
 360 740 360 740 393 715.5 c 128,-1,20
 426 691 426 691 426 650 c 2,21,-1
 426 455 l 1,22,-1
 361 455 l 1,23,-1
 361 510 l 1,24,-1
 358 510 l 1,25,26
 347 482 347 482 323.5 466 c 128,-1,27
 300 450 300 450 268 450 c 0,0,1
287 498 m 0,28,29
 319 498 319 498 338.5 513.5 c 128,-1,30
 358 529 358 529 358 555 c 2,31,-1
 358 577 l 1,32,-1
 280 577 l 2,33,34
 260 577 260 577 248.5 567 c 128,-1,35
 237 557 237 557 237 538 c 0,36,37
 237 520 237 520 251 509 c 128,-1,38
 265 498 265 498 287 498 c 0,28,29
EndSplineSet
EndChar

StartChar: guillemotleft
Encoding: 171 171 110
Width: 600
GlyphClass: 2
Flags: W
LayerCount: 2
Fore
SplineSet
441 40 m 1,0,-1
 266 280 l 1,1,-1
 442 520 l 1,2,-1
 576 520 l 1,3,-1
 396 282 l 1,4,-1
 576 40 l 1,5,-1
 441 40 l 1,0,-1
196 40 m 1,6,-1
 21 280 l 1,7,-1
 197 520 l 1,8,-1
 332 520 l 1,9,-1
 152 282 l 1,10,-1
 332 40 l 1,11,-1
 196 40 l 1,6,-1
EndSplineSet
EndChar

StartChar: logicalnot
Encoding: 172 172 111
Width: 600
GlyphClass: 2
Flags: W
LayerCount: 2
Fore
SplineSet
377 165 m 1,0,-1
 377 298 l 1,1,-1
 100 298 l 1,2,-1
 100 413 l 1,3,-1
 500 413 l 1,4,-1
 500 165 l 1,5,-1
 377 165 l 1,0,-1
EndSplineSet
Ligature2: "'sireum-bottom'-1" exclam
EndChar

StartChar: registered
Encoding: 174 174 113
Width: 600
GlyphClass: 2
Flags: W
LayerCount: 2
Fore
SplineSet
300 110 m 0,0,1
 224 110 224 110 166.5 140 c 128,-1,2
 109 170 109 170 77 224 c 128,-1,3
 45 278 45 278 45 350 c 2,4,-1
 45 500 l 2,5,6
 45 572 45 572 77 626 c 128,-1,7
 109 680 109 680 166.5 710 c 128,-1,8
 224 740 224 740 300 740 c 0,9,10
 377 740 377 740 434 710 c 128,-1,11
 491 680 491 680 523 626 c 128,-1,12
 555 572 555 572 555 500 c 2,13,-1
 555 350 l 2,14,15
 555 278 555 278 523 224 c 128,-1,16
 491 170 491 170 434 140 c 128,-1,17
 377 110 377 110 300 110 c 0,0,1
100 350 m 2,18,19
 100 293 100 293 125 250 c 128,-1,20
 150 207 150 207 195 183.5 c 128,-1,21
 240 160 240 160 300 160 c 256,22,23
 360 160 360 160 405 183.5 c 128,-1,24
 450 207 450 207 475 250 c 128,-1,25
 500 293 500 293 500 350 c 2,26,-1
 500 500 l 2,27,28
 500 557 500 557 475 599.5 c 128,-1,29
 450 642 450 642 405 666 c 128,-1,30
 360 690 360 690 300 690 c 256,31,32
 240 690 240 690 195 666 c 128,-1,33
 150 642 150 642 125 599.5 c 128,-1,34
 100 557 100 557 100 500 c 2,35,-1
 100 350 l 2,18,19
184 250 m 1,36,-1
 184 600 l 1,37,-1
 304 600 l 2,38,39
 360 600 360 600 393.5 570.5 c 128,-1,40
 427 541 427 541 427 492 c 0,41,42
 427 460 427 460 411.5 436 c 128,-1,43
 396 412 396 412 369 400 c 1,44,-1
 433 250 l 1,45,-1
 357 250 l 1,46,-1
 302 387 l 1,47,-1
 256 387 l 1,48,-1
 256 250 l 1,49,-1
 184 250 l 1,36,-1
256 446 m 1,50,-1
 304 446 l 2,51,52
 327 446 327 446 340.5 459 c 128,-1,53
 354 472 354 472 354 495 c 256,54,55
 354 518 354 518 340.5 531 c 128,-1,56
 327 544 327 544 304 544 c 2,57,-1
 256 544 l 1,58,-1
 256 446 l 1,50,-1
EndSplineSet
EndChar

StartChar: degree
Encoding: 176 176 115
Width: 600
GlyphClass: 2
Flags: W
LayerCount: 2
Fore
SplineSet
300 427 m 256,0,1
 228 427 228 427 183 470.5 c 128,-1,2
 138 514 138 514 138 583 c 0,3,4
 138 653 138 653 183 696.5 c 128,-1,5
 228 740 228 740 300 740 c 256,6,7
 372 740 372 740 417 696.5 c 128,-1,8
 462 653 462 653 462 583 c 0,9,10
 462 514 462 514 417 470.5 c 128,-1,11
 372 427 372 427 300 427 c 256,0,1
300 501 m 256,12,13
 334 501 334 501 355.5 524 c 128,-1,14
 377 547 377 547 377 583 c 0,15,16
 377 620 377 620 355.5 643 c 128,-1,17
 334 666 334 666 300 666 c 256,18,19
 266 666 266 666 244.5 643 c 128,-1,20
 223 620 223 620 223 583 c 0,21,22
 223 547 223 547 244.5 524 c 128,-1,23
 266 501 266 501 300 501 c 256,12,13
EndSplineSet
EndChar

StartChar: plusminus
Encoding: 177 177 116
Width: 600
GlyphClass: 2
Flags: W
LayerCount: 2
Fore
SplineSet
67 0 m 1,0,-1
 67 94 l 1,1,-1
 241 94 l 1,2,-1
 241 275 l 1,3,-1
 62 275 l 1,4,-1
 62 390 l 1,5,-1
 241 390 l 1,6,-1
 241 570 l 1,7,-1
 365 570 l 1,8,-1
 365 390 l 1,9,-1
 544 390 l 1,10,-1
 544 275 l 1,11,-1
 365 275 l 1,12,-1
 365 94 l 1,13,-1
 533 94 l 1,14,-1
 533 0 l 1,15,-1
 67 0 l 1,0,-1
EndSplineSet
EndChar

StartChar: uni00B2
Encoding: 178 178 117
Width: 600
GlyphClass: 2
Flags: W
LayerCount: 2
Fore
SplineSet
151 382 m 1,0,-1
 151 472 l 1,1,-1
 332 615 l 2,2,3
 351 631 351 631 362.5 649.5 c 128,-1,4
 374 668 374 668 374 689 c 0,5,6
 374 720 374 720 354 739 c 128,-1,7
 334 758 334 758 302 758 c 0,8,9
 271 758 271 758 250.5 738.5 c 128,-1,10
 230 719 230 719 230 688 c 1,11,-1
 143 688 l 1,12,13
 144 753 144 753 189 794 c 128,-1,14
 234 835 234 835 302 835 c 0,15,16
 372 835 372 835 416.5 795 c 128,-1,17
 461 755 461 755 461 690 c 0,18,19
 461 653 461 653 438.5 619.5 c 128,-1,20
 416 586 416 586 378 557 c 2,21,-1
 252 459 l 1,22,-1
 462 459 l 1,23,-1
 462 382 l 1,24,-1
 151 382 l 1,0,-1
EndSplineSet
Substitution2: "'cv18' Character Variants 18 in Latin lookup 933 subtable" uni00B2.cv18
EndChar

StartChar: uni00B3
Encoding: 179 179 118
Width: 600
GlyphClass: 2
Flags: W
LayerCount: 2
Fore
SplineSet
302 377 m 256,0,1
 227 377 227 377 179.5 418 c 128,-1,2
 132 459 132 459 132 525 c 1,3,-1
 219 525 l 1,4,5
 219 494 219 494 242 474 c 128,-1,6
 265 454 265 454 302 454 c 0,7,8
 338 454 338 454 361 475.5 c 128,-1,9
 384 497 384 497 384 531 c 256,10,11
 384 565 384 565 361 586 c 128,-1,12
 338 607 338 607 302 607 c 2,13,-1
 262 607 l 1,14,-1
 262 674 l 1,15,-1
 368 753 l 1,16,-1
 154 753 l 1,17,-1
 154 830 l 1,18,-1
 455 830 l 1,19,-1
 455 749 l 1,20,-1
 350 667 l 1,21,22
 405 658 405 658 438 621.5 c 128,-1,23
 471 585 471 585 471 531 c 0,24,25
 471 462 471 462 424 419.5 c 128,-1,26
 377 377 377 377 302 377 c 256,0,1
EndSplineSet
EndChar

StartChar: paragraph
Encoding: 182 182 121
Width: 600
GlyphClass: 2
Flags: W
LayerCount: 2
Fore
SplineSet
246 -180 m 1,0,-1
 246 310 l 1,1,2
 161 310 161 310 108.5 357 c 128,-1,3
 56 404 56 404 56 480 c 2,4,-1
 56 560 l 2,5,6
 56 637 56 637 108.5 683.5 c 128,-1,7
 161 730 161 730 246 730 c 2,8,-1
 344 730 l 1,9,-1
 344 -180 l 1,10,-1
 246 -180 l 1,0,-1
422 -180 m 1,11,-1
 422 730 l 1,12,-1
 520 730 l 1,13,-1
 520 -180 l 1,14,-1
 422 -180 l 1,11,-1
EndSplineSet
EndChar

StartChar: uni00B9
Encoding: 185 185 124
Width: 600
GlyphClass: 2
Flags: W
LayerCount: 2
Fore
SplineSet
146 382 m 1,0,-1
 146 460 l 1,1,-1
 287 460 l 1,2,-1
 287 755 l 1,3,-1
 149 668 l 1,4,-1
 149 757 l 1,5,-1
 262 830 l 1,6,-1
 374 830 l 1,7,-1
 374 460 l 1,8,-1
 484 460 l 1,9,-1
 484 382 l 1,10,-1
 146 382 l 1,0,-1
EndSplineSet
EndChar

StartChar: ordmasculine
Encoding: 186 186 125
Width: 600
GlyphClass: 2
Flags: W
LayerCount: 2
Fore
SplineSet
300 448 m 256,0,1
 243 448 243 448 208 480 c 128,-1,2
 173 512 173 512 173 562 c 2,3,-1
 173 624 l 2,4,5
 173 675 173 675 208 706.5 c 128,-1,6
 243 738 243 738 300 738 c 256,7,8
 357 738 357 738 392 706.5 c 128,-1,9
 427 675 427 675 427 624 c 2,10,-1
 427 562 l 2,11,12
 427 512 427 512 392 480 c 128,-1,13
 357 448 357 448 300 448 c 256,0,1
300 505 m 256,14,15
 327 505 327 505 343 521 c 128,-1,16
 359 537 359 537 359 562 c 2,17,-1
 359 624 l 2,18,19
 359 649 359 649 343 664.5 c 128,-1,20
 327 680 327 680 300 680 c 256,21,22
 273 680 273 680 257 664.5 c 128,-1,23
 241 649 241 649 241 624 c 2,24,-1
 241 562 l 2,25,26
 241 537 241 537 257 521 c 128,-1,27
 273 505 273 505 300 505 c 256,14,15
EndSplineSet
EndChar

StartChar: guillemotright
Encoding: 187 187 126
Width: 600
GlyphClass: 2
Flags: W
LayerCount: 2
Fore
SplineSet
269 40 m 1,0,-1
 446 280 l 1,1,-1
 268 520 l 1,2,-1
 404 520 l 1,3,-1
 579 280 l 1,4,-1
 403 40 l 1,5,-1
 269 40 l 1,0,-1
25 40 m 1,6,-1
 202 280 l 1,7,-1
 24 520 l 1,8,-1
 159 520 l 1,9,-1
 334 280 l 1,10,-1
 158 40 l 1,11,-1
 25 40 l 1,6,-1
EndSplineSet
EndChar

StartChar: onequarter
Encoding: 188 188 127
Width: 600
GlyphClass: 2
Flags: W
LayerCount: 2
Fore
SplineSet
-4 0 m 1,0,-1
 274 404 l 1,1,-1
 34 404 l 1,2,-1
 34 469 l 1,3,-1
 150 469 l 1,4,-1
 150 677 l 1,5,6
 144 669 144 669 134 657 c 128,-1,7
 124 645 124 645 113 636 c 2,8,-1
 52 586 l 1,9,-1
 52 673 l 1,10,-1
 125 729 l 1,11,-1
 227 729 l 1,12,-1
 227 469 l 1,13,-1
 318 469 l 1,14,-1
 498 730 l 1,15,-1
 604 730 l 1,16,-1
 102 0 l 1,17,-1
 -4 0 l 1,0,-1
468 0 m 1,18,-1
 468 64 l 1,19,-1
 299 64 l 1,20,-1
 299 156 l 1,21,-1
 425 325 l 1,22,-1
 511 325 l 1,23,-1
 376 142 l 1,24,-1
 376 126 l 1,25,-1
 468 126 l 1,26,-1
 468 207 l 1,27,-1
 545 207 l 1,28,-1
 545 0 l 1,29,-1
 468 0 l 1,18,-1
EndSplineSet
EndChar

StartChar: onehalf
Encoding: 189 189 128
Width: 600
GlyphClass: 2
Flags: W
LayerCount: 2
Fore
SplineSet
-4 0 m 1,0,-1
 274 405 l 1,1,-1
 34 405 l 1,2,-1
 34 470 l 1,3,-1
 150 470 l 1,4,-1
 150 678 l 1,5,6
 144 669 144 669 134 657.5 c 128,-1,7
 124 646 124 646 113 637 c 2,8,-1
 52 587 l 1,9,-1
 52 673 l 1,10,-1
 125 730 l 1,11,-1
 227 730 l 1,12,-1
 227 470 l 1,13,-1
 319 470 l 1,14,-1
 498 730 l 1,15,-1
 604 730 l 1,16,-1
 102 0 l 1,17,-1
 -4 0 l 1,0,-1
312 0 m 1,18,-1
 312 79 l 1,19,-1
 446 154 l 2,20,21
 496 183 496 183 496 218 c 0,22,23
 496 241 496 241 482 254.5 c 128,-1,24
 468 268 468 268 445 268 c 0,25,26
 420 268 420 268 405 254 c 128,-1,27
 390 240 390 240 390 216 c 1,28,-1
 312 216 l 1,29,30
 313 267 313 267 350 298.5 c 128,-1,31
 387 330 387 330 445 330 c 256,32,33
 503 330 503 330 538.5 300.5 c 128,-1,34
 574 271 574 271 574 223 c 0,35,36
 574 158 574 158 481 108 c 2,37,-1
 409 68 l 1,38,-1
 409 58 l 1,39,40
 420 60 420 60 439 62.5 c 128,-1,41
 458 65 458 65 475 65 c 2,42,-1
 579 65 l 1,43,-1
 579 0 l 1,44,-1
 312 0 l 1,18,-1
EndSplineSet
EndChar

StartChar: threequarters
Encoding: 190 190 129
Width: 600
GlyphClass: 2
Flags: W
LayerCount: 2
Fore
SplineSet
155 400 m 0,0,1
 94 400 94 400 57.5 429 c 128,-1,2
 21 458 21 458 21 505 c 1,3,-1
 98 505 l 1,4,5
 98 486 98 486 113.5 474 c 128,-1,6
 129 462 129 462 155 462 c 0,7,8
 179 462 179 462 194 474.5 c 128,-1,9
 209 487 209 487 209 508 c 256,10,11
 209 529 209 529 194.5 541.5 c 128,-1,12
 180 554 180 554 156 554 c 2,13,-1
 126 554 l 1,14,-1
 126 616 l 1,15,-1
 195 671 l 1,16,-1
 45 671 l 1,17,-1
 45 730 l 1,18,-1
 271 730 l 1,19,-1
 271 671 l 1,20,-1
 191 608 l 1,21,22
 235 603 235 603 261 576 c 128,-1,23
 287 549 287 549 287 508 c 0,24,25
 287 459 287 459 250.5 429.5 c 128,-1,26
 214 400 214 400 155 400 c 0,0,1
-4 0 m 1,27,-1
 498 730 l 1,28,-1
 604 730 l 1,29,-1
 102 0 l 1,30,-1
 -4 0 l 1,27,-1
468 0 m 1,31,-1
 468 64 l 1,32,-1
 299 64 l 1,33,-1
 299 156 l 1,34,-1
 425 325 l 1,35,-1
 511 325 l 1,36,-1
 376 142 l 1,37,-1
 376 126 l 1,38,-1
 468 126 l 1,39,-1
 468 207 l 1,40,-1
 545 207 l 1,41,-1
 545 0 l 1,42,-1
 468 0 l 1,31,-1
EndSplineSet
EndChar

StartChar: questiondown
Encoding: 191 191 130
Width: 600
GlyphClass: 2
Flags: W
LayerCount: 2
Fore
SplineSet
341 423 m 2,0,1
 310 423 310 423 291.5 441.5 c 128,-1,2
 273 460 273 460 273 489 c 256,3,4
 273 518 273 518 292 536.5 c 128,-1,5
 311 555 311 555 342 555 c 2,6,-1
 371 555 l 2,7,8
 402 555 402 555 421 536.5 c 128,-1,9
 440 518 440 518 440 489 c 256,10,11
 440 460 440 460 421 441.5 c 128,-1,12
 402 423 402 423 371 423 c 2,13,-1
 341 423 l 2,0,1
342 -180 m 2,14,15
 268 -180 268 -180 214 -153.5 c 128,-1,16
 160 -127 160 -127 130 -78.5 c 128,-1,17
 100 -30 100 -30 100 35 c 0,18,19
 100 96 100 96 125.5 142.5 c 128,-1,20
 151 189 151 189 196 215.5 c 128,-1,21
 241 242 241 242 301 243 c 1,22,-1
 301 323 l 1,23,-1
 412 323 l 1,24,-1
 414 133 l 1,25,-1
 335 133 l 2,26,27
 285 133 285 133 255 106 c 128,-1,28
 225 79 225 79 225 35 c 0,29,30
 225 -10 225 -10 255 -36.5 c 128,-1,31
 285 -63 285 -63 336 -63 c 2,32,-1
 485 -63 l 1,33,-1
 485 -180 l 1,34,-1
 342 -180 l 2,14,15
EndSplineSet
EndChar

StartChar: AE
Encoding: 198 198 137
Width: 600
GlyphClass: 2
Flags: W
AnchorPoint: "Anchor-3" 300 0 basechar 0
AnchorPoint: "Anchor-1" 300 730 basechar 0
LayerCount: 2
Fore
SplineSet
12 0 m 1,0,-1
 153 730 l 1,1,-1
 576 730 l 1,2,-1
 576 623 l 1,3,-1
 404 623 l 1,4,-1
 404 429 l 1,5,-1
 551 429 l 1,6,-1
 551 319 l 1,7,-1
 404 319 l 1,8,-1
 404 108 l 1,9,-1
 576 108 l 1,10,-1
 576 0 l 1,11,-1
 296 0 l 1,12,-1
 296 181 l 1,13,-1
 166 181 l 1,14,-1
 134 0 l 1,15,-1
 12 0 l 1,0,-1
181 273 m 1,16,-1
 296 273 l 1,17,-1
 296 623 l 1,18,-1
 244 623 l 1,19,-1
 181 273 l 1,16,-1
EndSplineSet
EndChar

StartChar: Ccedilla
Encoding: 199 199 138
Width: 600
GlyphClass: 2
Flags: W
AnchorPoint: "Anchor-3" 305 0 basechar 0
AnchorPoint: "Anchor-1" 305 730 basechar 0
LayerCount: 2
Fore
SplineSet
204 -216 m 1,0,-1
 204 -152 l 1,1,-1
 280 -152 l 2,2,3
 304 -152 304 -152 318.5 -140.5 c 128,-1,4
 333 -129 333 -129 333 -116 c 0,5,6
 333 -95 333 -95 303.5 -82 c 128,-1,7
 274 -69 274 -69 221 -69 c 1,8,-1
 247 -4 l 1,9,10
 167 12 167 12 121.5 67 c 128,-1,11
 76 122 76 122 76 206 c 2,12,-1
 76 524 l 2,13,14
 76 590 76 590 104.5 638.5 c 128,-1,15
 133 687 133 687 185 713.5 c 128,-1,16
 237 740 237 740 308 740 c 0,17,18
 378 740 378 740 430 713.5 c 128,-1,19
 482 687 482 687 511 638.5 c 128,-1,20
 540 590 540 590 540 524 c 1,21,-1
 414 524 l 1,22,23
 414 575 414 575 386.5 602.5 c 128,-1,24
 359 630 359 630 308 630 c 256,25,26
 257 630 257 630 229 602.5 c 128,-1,27
 201 575 201 575 201 524 c 2,28,-1
 201 206 l 2,29,30
 201 155 201 155 229 127.5 c 128,-1,31
 257 100 257 100 308 100 c 256,32,33
 359 100 359 100 386.5 127.5 c 128,-1,34
 414 155 414 155 414 206 c 1,35,-1
 540 206 l 1,36,37
 540 140 540 140 511.5 91.5 c 128,-1,38
 483 43 483 43 431.5 16.5 c 128,-1,39
 380 -10 380 -10 312 -10 c 1,40,-1
 303 -37 l 1,41,42
 331 -40 331 -40 362 -50.5 c 128,-1,43
 393 -61 393 -61 414 -80 c 128,-1,44
 435 -99 435 -99 435 -128 c 0,45,46
 435 -163 435 -163 399 -189.5 c 128,-1,47
 363 -216 363 -216 304 -216 c 2,48,-1
 204 -216 l 1,0,-1
EndSplineSet
EndChar

StartChar: Eth
Encoding: 208 208 147
Width: 600
GlyphClass: 2
Flags: W
AnchorPoint: "Anchor-5" 300 365 basechar 0
AnchorPoint: "Anchor-3" 300 0 basechar 0
AnchorPoint: "Anchor-1" 300 730 basechar 0
LayerCount: 2
Fore
SplineSet
75 0 m 1,0,-1
 75 329 l 1,1,-1
 10 329 l 1,2,-1
 10 416 l 1,3,-1
 75 416 l 1,4,-1
 75 730 l 1,5,-1
 292 730 l 2,6,7
 366 730 366 730 420.5 701.5 c 128,-1,8
 475 673 475 673 505 622 c 128,-1,9
 535 571 535 571 535 502 c 2,10,-1
 535 229 l 2,11,12
 535 160 535 160 505 108.5 c 128,-1,13
 475 57 475 57 420.5 28.5 c 128,-1,14
 366 0 366 0 292 0 c 2,15,-1
 75 0 l 1,0,-1
200 112 m 1,16,-1
 292 112 l 2,17,18
 346 112 346 112 378 143.5 c 128,-1,19
 410 175 410 175 410 229 c 2,20,-1
 410 502 l 2,21,22
 410 555 410 555 378 586.5 c 128,-1,23
 346 618 346 618 292 618 c 2,24,-1
 200 618 l 1,25,-1
 200 416 l 1,26,-1
 290 416 l 1,27,-1
 290 329 l 1,28,-1
 200 329 l 1,29,-1
 200 112 l 1,16,-1
EndSplineSet
EndChar

StartChar: multiply
Encoding: 215 215 154
Width: 600
GlyphClass: 2
Flags: W
LayerCount: 2
Fore
SplineSet
170 115 m 1,0,-1
 89 197 l 1,1,-1
 217 325 l 1,2,-1
 89 455 l 1,3,-1
 170 536 l 1,4,-1
 299 407 l 1,5,-1
 430 538 l 1,6,-1
 511 456 l 1,7,-1
 380 325 l 1,8,-1
 510 197 l 1,9,-1
 428 115 l 1,10,-1
 299 245 l 1,11,-1
 170 115 l 1,0,-1
EndSplineSet
EndChar

StartChar: Oslash
Encoding: 216 216 155
Width: 600
GlyphClass: 2
Flags: W
AnchorPoint: "Anchor-3" 300 0 basechar 0
AnchorPoint: "Anchor-2" 320 730 basechar 0
AnchorPoint: "Anchor-1" 300 730 basechar 0
LayerCount: 2
Fore
SplineSet
23 -40 m 1,0,-1
 99 93 l 1,1,2
 72 141 72 141 72 206 c 2,3,-1
 72 524 l 2,4,5
 72 623 72 623 133.5 681.5 c 128,-1,6
 195 740 195 740 300 740 c 0,7,8
 386 740 386 740 444 700 c 1,9,-1
 473 750 l 1,10,-1
 577 750 l 1,11,-1
 507 627 l 1,12,13
 528 582 528 582 528 525 c 2,14,-1
 528 206 l 2,15,16
 528 107 528 107 466.5 48.5 c 128,-1,17
 405 -10 405 -10 300 -10 c 0,18,19
 220 -10 220 -10 164 25 c 1,20,-1
 127 -40 l 1,21,-1
 23 -40 l 1,0,-1
194 524 m 2,22,-1
 194 260 l 1,23,-1
 385 596 l 1,24,25
 358 630 358 630 300 630 c 0,26,27
 249 630 249 630 221.5 602.5 c 128,-1,28
 194 575 194 575 194 524 c 2,22,-1
300 100 m 256,29,30
 351 100 351 100 378.5 127.5 c 128,-1,31
 406 155 406 155 406 206 c 2,32,-1
 406 450 l 1,33,-1
 222 127 l 1,34,35
 249 100 249 100 300 100 c 256,29,30
EndSplineSet
EndChar

StartChar: Thorn
Encoding: 222 222 161
Width: 600
GlyphClass: 2
Flags: W
LayerCount: 2
Fore
SplineSet
78 0 m 1,0,-1
 78 730 l 1,1,-1
 203 730 l 1,2,-1
 203 589 l 1,3,-1
 337 589 l 2,4,5
 441 589 441 589 501.5 533 c 128,-1,6
 562 477 562 477 562 380 c 256,7,8
 562 283 562 283 501.5 227 c 128,-1,9
 441 171 441 171 337 171 c 2,10,-1
 203 171 l 1,11,-1
 203 0 l 1,12,-1
 78 0 l 1,0,-1
203 278 m 1,13,-1
 322 278 l 2,14,15
 376 278 376 278 405.5 305 c 128,-1,16
 435 332 435 332 435 380 c 256,17,18
 435 428 435 428 405.5 455 c 128,-1,19
 376 482 376 482 322 482 c 2,20,-1
 203 482 l 1,21,-1
 203 278 l 1,13,-1
EndSplineSet
EndChar

StartChar: germandbls
Encoding: 223 223 162
Width: 600
GlyphClass: 2
Flags: W
LayerCount: 2
Fore
SplineSet
73 0 m 1,0,-1
 73 521 l 2,1,2
 73 586 73 586 102 635.5 c 128,-1,3
 131 685 131 685 183 712.5 c 128,-1,4
 235 740 235 740 304 740 c 0,5,6
 371 740 371 740 422 715.5 c 128,-1,7
 473 691 473 691 502 647.5 c 128,-1,8
 531 604 531 604 531 547 c 0,9,10
 531 488 531 488 499 444.5 c 128,-1,11
 467 401 467 401 415 390 c 1,12,-1
 415 388 l 1,13,14
 476 376 476 376 514 325 c 128,-1,15
 552 274 552 274 552 206 c 0,16,17
 552 145 552 145 522.5 98.5 c 128,-1,18
 493 52 493 52 440 26 c 128,-1,19
 387 0 387 0 317 0 c 2,20,-1
 265 0 l 1,21,-1
 265 110 l 1,22,-1
 310 110 l 2,23,24
 361 110 361 110 393 141 c 128,-1,25
 425 172 425 172 425 221 c 0,26,27
 425 271 425 271 394 301.5 c 128,-1,28
 363 332 363 332 314 332 c 2,29,-1
 265 332 l 1,30,-1
 265 430 l 1,31,-1
 303 430 l 2,32,33
 349 430 349 430 378 458 c 128,-1,34
 407 486 407 486 407 532 c 0,35,36
 407 577 407 577 378 605.5 c 128,-1,37
 349 634 349 634 303 634 c 0,38,39
 256 634 256 634 227 602.5 c 128,-1,40
 198 571 198 571 198 521 c 2,41,-1
 198 0 l 1,42,-1
 73 0 l 1,0,-1
EndSplineSet
Substitution2: "Single Substitution lookup 483 subtable" germandbls.calt
Substitution2: "Single Substitution lookup 482 subtable" germandbls.calt
Substitution2: "'aalt' Access All Alternates in Latin lookup 477 subtable" germandbls.calt
EndChar

StartChar: ae
Encoding: 230 230 169
Width: 600
GlyphClass: 2
Flags: W
AnchorPoint: "Anchor-1" 300 550 basechar 0
LayerCount: 2
Fore
SplineSet
178 -10 m 0,0,1
 112 -10 112 -10 70.5 37 c 128,-1,2
 29 84 29 84 29 159 c 256,3,4
 29 234 29 234 74 281 c 128,-1,5
 119 328 119 328 191 328 c 2,6,-1
 251 328 l 1,7,-1
 251 400 l 2,8,9
 251 434 251 434 236.5 453 c 128,-1,10
 222 472 222 472 197 472 c 256,11,12
 172 472 172 472 157 454 c 128,-1,13
 142 436 142 436 142 406 c 1,14,-1
 39 406 l 1,15,16
 39 475 39 475 78.5 517.5 c 128,-1,17
 118 560 118 560 181 560 c 0,18,19
 230 560 230 560 263.5 535.5 c 128,-1,20
 297 511 297 511 302 469 c 1,21,22
 307 511 307 511 340.5 535.5 c 128,-1,23
 374 560 374 560 421 560 c 0,24,25
 486 560 486 560 527 515.5 c 128,-1,26
 568 471 568 471 568 400 c 2,27,-1
 568 252 l 1,28,-1
 354 252 l 1,29,-1
 354 150 l 2,30,31
 354 116 354 116 368.5 97 c 128,-1,32
 383 78 383 78 408 78 c 0,33,34
 434 78 434 78 448.5 96 c 128,-1,35
 463 114 463 114 463 145 c 1,36,-1
 568 145 l 1,37,38
 568 76 568 76 527.5 33 c 128,-1,39
 487 -10 487 -10 422 -10 c 0,40,41
 377 -10 377 -10 343 15 c 128,-1,42
 309 40 309 40 302 81 c 1,43,44
 296 40 296 40 261.5 15 c 128,-1,45
 227 -10 227 -10 178 -10 c 0,0,1
354 328 m 1,46,-1
 463 328 l 1,47,-1
 463 400 l 2,48,49
 463 433 463 433 448.5 452.5 c 128,-1,50
 434 472 434 472 408 472 c 0,51,52
 384 472 384 472 369 452.5 c 128,-1,53
 354 433 354 433 354 400 c 2,54,-1
 354 328 l 1,46,-1
195 78 m 0,55,56
 220 78 220 78 235.5 97.5 c 128,-1,57
 251 117 251 117 251 150 c 2,58,-1
 251 252 l 1,59,-1
 192 252 l 2,60,61
 165 252 165 252 149.5 228.5 c 128,-1,62
 134 205 134 205 134 165 c 0,63,64
 134 126 134 126 150 102 c 128,-1,65
 166 78 166 78 195 78 c 0,55,56
EndSplineSet
EndChar

StartChar: ccedilla
Encoding: 231 231 170
Width: 600
GlyphClass: 2
Flags: W
AnchorPoint: "Anchor-3" 309 0 basechar 0
AnchorPoint: "Anchor-1" 309 550 basechar 0
LayerCount: 2
Fore
SplineSet
200 -216 m 1,0,-1
 200 -152 l 1,1,-1
 275 -152 l 2,2,3
 299 -152 299 -152 313.5 -140.5 c 128,-1,4
 328 -129 328 -129 328 -116 c 0,5,6
 328 -95 328 -95 298.5 -82 c 128,-1,7
 269 -69 269 -69 217 -69 c 1,8,-1
 242 -3 l 1,9,10
 165 14 165 14 120 68.5 c 128,-1,11
 75 123 75 123 75 206 c 2,12,-1
 75 344 l 2,13,14
 75 410 75 410 104 458.5 c 128,-1,15
 133 507 133 507 185.5 533.5 c 128,-1,16
 238 560 238 560 309 560 c 0,17,18
 412 560 412 560 474.5 506.5 c 128,-1,19
 537 453 537 453 540 361 c 1,20,-1
 417 361 l 1,21,22
 414 404 414 404 384.5 427.5 c 128,-1,23
 355 451 355 451 309 451 c 0,24,25
 258 451 258 451 229 423.5 c 128,-1,26
 200 396 200 396 200 345 c 2,27,-1
 200 206 l 2,28,29
 200 155 200 155 229 127 c 128,-1,30
 258 99 258 99 309 99 c 0,31,32
 356 99 356 99 385 122.5 c 128,-1,33
 414 146 414 146 417 189 c 1,34,-1
 540 189 l 1,35,36
 537 97 537 97 474.5 43.5 c 128,-1,37
 412 -10 412 -10 309 -10 c 2,38,-1
 308 -10 l 1,39,-1
 298 -37 l 1,40,41
 327 -40 327 -40 357.5 -50.5 c 128,-1,42
 388 -61 388 -61 409.5 -80 c 128,-1,43
 431 -99 431 -99 431 -128 c 0,44,45
 431 -163 431 -163 395 -189.5 c 128,-1,46
 359 -216 359 -216 299 -216 c 2,47,-1
 200 -216 l 1,0,-1
EndSplineSet
EndChar

StartChar: eth
Encoding: 240 240 179
Width: 600
GlyphClass: 2
Flags: W
LayerCount: 2
Fore
SplineSet
300 -4 m 256,0,1
 225 -4 225 -4 169.5 25 c 128,-1,2
 114 54 114 54 83 106 c 128,-1,3
 52 158 52 158 52 227 c 0,4,5
 52 293 52 293 78 343 c 128,-1,6
 104 393 104 393 150.5 420.5 c 128,-1,7
 197 448 197 448 259 448 c 0,8,9
 307 448 307 448 341.5 424 c 128,-1,10
 376 400 376 400 389 377 c 1,11,-1
 398 377 l 1,12,13
 397 383 397 383 380.5 410 c 128,-1,14
 364 437 364 437 327 485 c 2,15,-1
 269 563 l 1,16,-1
 111 499 l 1,17,-1
 111 594 l 1,18,-1
 214 636 l 1,19,-1
 144 730 l 1,20,-1
 285 730 l 1,21,-1
 322 679 l 1,22,-1
 480 742 l 1,23,-1
 480 647 l 1,24,-1
 377 606 l 1,25,-1
 441 519 l 2,26,27
 495 445 495 445 521.5 374.5 c 128,-1,28
 548 304 548 304 548 239 c 0,29,30
 548 165 548 165 517 110.5 c 128,-1,31
 486 56 486 56 430.5 26 c 128,-1,32
 375 -4 375 -4 300 -4 c 256,0,1
300 102 m 0,33,34
 355 102 355 102 388.5 136 c 128,-1,35
 422 170 422 170 422 227 c 0,36,37
 422 283 422 283 388.5 317 c 128,-1,38
 355 351 355 351 300 351 c 0,39,40
 244 351 244 351 211 317 c 128,-1,41
 178 283 178 283 178 227 c 0,42,43
 178 170 178 170 211 136 c 128,-1,44
 244 102 244 102 300 102 c 0,33,34
EndSplineSet
EndChar

StartChar: divide
Encoding: 247 247 186
Width: 600
GlyphClass: 2
Flags: W
LayerCount: 2
Fore
SplineSet
300 460 m 256,0,1
 258 460 258 460 232.5 483 c 128,-1,2
 207 506 207 506 207 544 c 0,3,4
 207 581 207 581 232.5 604.5 c 128,-1,5
 258 628 258 628 300 628 c 256,6,7
 342 628 342 628 367.5 604.5 c 128,-1,8
 393 581 393 581 393 544 c 0,9,10
 393 506 393 506 367.5 483 c 128,-1,11
 342 460 342 460 300 460 c 256,0,1
100 275 m 1,12,-1
 100 388 l 1,13,-1
 500 388 l 1,14,-1
 500 275 l 1,15,-1
 100 275 l 1,12,-1
300 35 m 256,16,17
 258 35 258 35 232.5 58 c 128,-1,18
 207 81 207 81 207 118 c 0,19,20
 207 156 207 156 232.5 179 c 128,-1,21
 258 202 258 202 300 202 c 256,22,23
 342 202 342 202 367.5 179 c 128,-1,24
 393 156 393 156 393 118 c 0,25,26
 393 81 393 81 367.5 58 c 128,-1,27
 342 35 342 35 300 35 c 256,16,17
EndSplineSet
EndChar

StartChar: oslash
Encoding: 248 248 187
Width: 600
GlyphClass: 2
Flags: W
AnchorPoint: "Anchor-3" 300 0 basechar 0
AnchorPoint: "Anchor-2" 325 550 basechar 0
AnchorPoint: "Anchor-1" 300 550 basechar 0
LayerCount: 2
Fore
SplineSet
29 -30 m 1,0,-1
 107 80 l 1,1,2
 72 132 72 132 72 206 c 2,3,-1
 72 344 l 2,4,5
 72 443 72 443 133.5 501.5 c 128,-1,6
 195 560 195 560 300 560 c 0,7,8
 372 560 372 560 425 532 c 1,9,-1
 466 590 l 1,10,-1
 571 590 l 1,11,-1
 490 475 l 1,12,13
 528 421 528 421 528 345 c 2,14,-1
 528 206 l 2,15,16
 528 107 528 107 466.5 48.5 c 128,-1,17
 405 -10 405 -10 300 -10 c 0,18,19
 225 -10 225 -10 170 21 c 1,20,-1
 134 -30 l 1,21,-1
 29 -30 l 1,0,-1
189 206 m 1,22,23
 189 206 189 206 189 205 c 128,-1,24
 189 204 189 204 189 197 c 1,25,-1
 359 438 l 1,26,27
 334 451 334 451 300 451 c 0,28,29
 247 451 247 451 218 422.5 c 128,-1,30
 189 394 189 394 189 344 c 2,31,-1
 189 206 l 1,22,23
300 99 m 0,32,33
 353 99 353 99 382 127.5 c 128,-1,34
 411 156 411 156 411 206 c 2,35,-1
 411 344 l 2,36,37
 411 354 411 354 410 362 c 1,38,-1
 236 114 l 1,39,40
 262 99 262 99 300 99 c 0,32,33
EndSplineSet
EndChar

StartChar: thorn
Encoding: 254 254 193
Width: 600
GlyphClass: 2
Flags: W
AnchorPoint: "Anchor-3" 298 0 basechar 0
AnchorPoint: "Anchor-1" 298 730 basechar 0
LayerCount: 2
Fore
SplineSet
75 -170 m 1,0,-1
 75 730 l 1,1,-1
 200 730 l 1,2,-1
 200 576 l 1,3,-1
 196 450 l 1,4,5
 211 502 211 502 250.5 531 c 128,-1,6
 290 560 290 560 347 560 c 0,7,8
 429 560 429 560 478 503 c 128,-1,9
 527 446 527 446 527 349 c 2,10,-1
 527 200 l 2,11,12
 527 104 527 104 477.5 47 c 128,-1,13
 428 -10 428 -10 347 -10 c 0,14,15
 290 -10 290 -10 251 19 c 128,-1,16
 212 48 212 48 197 100 c 1,17,-1
 197 -170 l 1,18,-1
 75 -170 l 1,0,-1
301 98 m 256,19,20
 349 98 349 98 375.5 124 c 128,-1,21
 402 150 402 150 402 204 c 2,22,-1
 402 346 l 2,23,24
 402 400 402 400 375.5 426 c 128,-1,25
 349 452 349 452 301 452 c 256,26,27
 253 452 253 452 226.5 423 c 128,-1,28
 200 394 200 394 200 341 c 2,29,-1
 200 209 l 2,30,31
 200 156 200 156 226.5 127 c 128,-1,32
 253 98 253 98 301 98 c 256,19,20
EndSplineSet
EndChar

StartChar: Aogonek
Encoding: 260 260 199
Width: 600
GlyphClass: 2
Flags: W
AnchorPoint: "Anchor-4" 480 0 basechar 0
AnchorPoint: "Anchor-3" 300 0 basechar 0
AnchorPoint: "Anchor-1" 300 730 basechar 0
LayerCount: 2
Fore
SplineSet
35 0 m 1,0,-1
 219 730 l 1,1,-1
 380 730 l 1,2,-1
 565 0 l 1,3,-1
 524 0 l 1,4,-1
 513 -10 l 2,5,6
 462 -54 462 -54 462 -87 c 0,7,8
 462 -105 462 -105 475.5 -117.5 c 128,-1,9
 489 -130 489 -130 512 -130 c 2,10,-1
 577 -130 l 1,11,-1
 577 -216 l 1,12,-1
 482 -216 l 2,13,14
 423 -216 423 -216 389 -187 c 128,-1,15
 355 -158 355 -158 355 -113 c 0,16,17
 355 -51 355 -51 437 0 c 1,18,-1
 397 177 l 1,19,-1
 203 177 l 1,20,-1
 163 0 l 1,21,-1
 35 0 l 1,0,-1
226 279 m 1,22,-1
 374 279 l 1,23,-1
 330 475 l 2,24,25
 319 524 319 524 311 563.5 c 128,-1,26
 303 603 303 603 300 621 c 1,27,28
 297 603 297 603 289 563.5 c 128,-1,29
 281 524 281 524 270 476 c 2,30,-1
 226 279 l 1,22,-1
EndSplineSet
EndChar

StartChar: aogonek
Encoding: 261 261 200
Width: 600
GlyphClass: 2
Flags: W
AnchorPoint: "Anchor-4" 450 0 basechar 0
AnchorPoint: "Anchor-3" 305 0 basechar 0
AnchorPoint: "Anchor-1" 305 550 basechar 0
LayerCount: 2
Fore
SplineSet
239 -10 m 0,0,1
 155 -10 155 -10 106.5 37.5 c 128,-1,2
 58 85 58 85 58 162 c 0,3,4
 58 242 58 242 113 289.5 c 128,-1,5
 168 337 168 337 264 337 c 2,6,-1
 398 337 l 1,7,-1
 398 376 l 2,8,9
 398 459 398 459 301 459 c 0,10,11
 257 459 257 459 231 442 c 128,-1,12
 205 425 205 425 202 394 c 1,13,-1
 82 394 l 1,14,15
 86 468 86 468 144.5 514 c 128,-1,16
 203 560 203 560 302 560 c 0,17,18
 407 560 407 560 465 511 c 128,-1,19
 523 462 523 462 523 373 c 2,20,-1
 523 0 l 1,21,-1
 525 0 l 1,22,23
 491 -30 491 -30 477 -50.5 c 128,-1,24
 463 -71 463 -71 463 -87 c 0,25,26
 463 -105 463 -105 476 -117.5 c 128,-1,27
 489 -130 489 -130 513 -130 c 2,28,-1
 578 -130 l 1,29,-1
 578 -216 l 1,30,-1
 482 -216 l 2,31,32
 424 -216 424 -216 389.5 -187 c 128,-1,33
 355 -158 355 -158 355 -113 c 0,34,35
 355 -51 355 -51 437 0 c 1,36,-1
 401 0 l 1,37,-1
 401 103 l 1,38,39
 394 50 394 50 351 20 c 128,-1,40
 308 -10 308 -10 239 -10 c 0,0,1
279 92 m 0,41,42
 334 92 334 92 366 119 c 128,-1,43
 398 146 398 146 398 191 c 2,44,-1
 398 256 l 1,45,-1
 270 256 l 2,46,47
 229 256 229 256 205 233 c 128,-1,48
 181 210 181 210 181 174 c 0,49,50
 181 137 181 137 206.5 114.5 c 128,-1,51
 232 92 232 92 279 92 c 0,41,42
EndSplineSet
EndChar

StartChar: dcaron
Encoding: 271 271 210
Width: 600
GlyphClass: 2
Flags: W
LayerCount: 2
Fore
SplineSet
213 -10 m 0,0,1
 138 -10 138 -10 94 45.5 c 128,-1,2
 50 101 50 101 50 195 c 2,3,-1
 50 355 l 2,4,5
 50 449 50 449 94 504.5 c 128,-1,6
 138 560 138 560 213 560 c 0,7,8
 266 560 266 560 300 529 c 128,-1,9
 334 498 334 498 341 445 c 1,10,-1
 344 445 l 1,11,-1
 340 576 l 1,12,-1
 340 730 l 1,13,-1
 459 730 l 1,14,-1
 459 0 l 1,15,-1
 343 0 l 1,16,-1
 343 105 l 1,17,-1
 341 105 l 1,18,19
 334 52 334 52 300 21 c 128,-1,20
 266 -10 266 -10 213 -10 c 0,0,1
494 550 m 1,21,-1
 508 730 l 1,22,-1
 615 730 l 1,23,-1
 593 550 l 1,24,-1
 494 550 l 1,21,-1
257 93 m 0,25,26
 296 93 296 93 318 121.5 c 128,-1,27
 340 150 340 150 340 201 c 2,28,-1
 340 350 l 2,29,30
 340 401 340 401 318 429 c 128,-1,31
 296 457 296 457 257 457 c 0,32,33
 216 457 216 457 192.5 429 c 128,-1,34
 169 401 169 401 169 350 c 2,35,-1
 169 201 l 2,36,37
 169 150 169 150 192.5 121.5 c 128,-1,38
 216 93 216 93 257 93 c 0,25,26
EndSplineSet
EndChar

StartChar: Dcroat
Encoding: 272 272 211
Width: 600
GlyphClass: 2
Flags: W
AnchorPoint: "Anchor-5" 300 365 basechar 0
AnchorPoint: "Anchor-3" 300 0 basechar 0
AnchorPoint: "Anchor-1" 300 730 basechar 0
LayerCount: 2
Fore
SplineSet
75 0 m 1,0,-1
 75 329 l 1,1,-1
 10 329 l 1,2,-1
 10 416 l 1,3,-1
 75 416 l 1,4,-1
 75 730 l 1,5,-1
 292 730 l 2,6,7
 366 730 366 730 420.5 701.5 c 128,-1,8
 475 673 475 673 505 622 c 128,-1,9
 535 571 535 571 535 502 c 2,10,-1
 535 229 l 2,11,12
 535 160 535 160 505 108.5 c 128,-1,13
 475 57 475 57 420.5 28.5 c 128,-1,14
 366 0 366 0 292 0 c 2,15,-1
 75 0 l 1,0,-1
200 112 m 1,16,-1
 292 112 l 2,17,18
 346 112 346 112 378 143.5 c 128,-1,19
 410 175 410 175 410 229 c 2,20,-1
 410 502 l 2,21,22
 410 555 410 555 378 586.5 c 128,-1,23
 346 618 346 618 292 618 c 2,24,-1
 200 618 l 1,25,-1
 200 416 l 1,26,-1
 290 416 l 1,27,-1
 290 329 l 1,28,-1
 200 329 l 1,29,-1
 200 112 l 1,16,-1
EndSplineSet
EndChar

StartChar: dcroat
Encoding: 273 273 212
Width: 600
GlyphClass: 2
Flags: W
LayerCount: 2
Fore
SplineSet
253 -10 m 0,0,1
 170 -10 170 -10 121 46.5 c 128,-1,2
 72 103 72 103 72 200 c 2,3,-1
 72 289 l 2,4,5
 72 386 72 386 121 443 c 128,-1,6
 170 500 170 500 253 500 c 0,7,8
 314 500 314 500 352 469.5 c 128,-1,9
 390 439 390 439 398 385 c 1,10,-1
 401 385 l 1,11,-1
 397 516 l 1,12,-1
 397 561 l 1,13,-1
 244 561 l 1,14,-1
 244 645 l 1,15,-1
 397 645 l 1,16,-1
 397 730 l 1,17,-1
 522 730 l 1,18,-1
 522 645 l 1,19,-1
 600 645 l 1,20,-1
 600 561 l 1,21,-1
 522 561 l 1,22,-1
 522 0 l 1,23,-1
 400 0 l 1,24,-1
 400 105 l 1,25,-1
 398 105 l 1,26,27
 390 50 390 50 352 20 c 128,-1,28
 314 -10 314 -10 253 -10 c 0,0,1
297 98 m 256,29,30
 345 98 345 98 371 126.5 c 128,-1,31
 397 155 397 155 397 206 c 2,32,-1
 397 284 l 2,33,34
 397 335 397 335 371 363.5 c 128,-1,35
 345 392 345 392 297 392 c 256,36,37
 249 392 249 392 223.5 364 c 128,-1,38
 198 336 198 336 198 284 c 2,39,-1
 198 206 l 2,40,41
 198 154 198 154 223.5 126 c 128,-1,42
 249 98 249 98 297 98 c 256,29,30
EndSplineSet
EndChar

StartChar: Eogonek
Encoding: 280 280 219
Width: 600
GlyphClass: 2
Flags: W
AnchorPoint: "Anchor-4" 434 0 basechar 0
AnchorPoint: "Anchor-3" 307 0 basechar 0
AnchorPoint: "Anchor-1" 307 730 basechar 0
LayerCount: 2
Fore
SplineSet
88 0 m 1,0,-1
 88 730 l 1,1,-1
 526 730 l 1,2,-1
 526 620 l 1,3,-1
 211 620 l 1,4,-1
 211 430 l 1,5,-1
 491 430 l 1,6,-1
 491 324 l 1,7,-1
 211 324 l 1,8,-1
 211 110 l 1,9,-1
 526 110 l 1,10,-1
 526 0 l 1,11,-1
 477 0 l 1,12,-1
 466 -10 l 2,13,14
 415 -54 415 -54 415 -87 c 0,15,16
 415 -105 415 -105 428.5 -117.5 c 128,-1,17
 442 -130 442 -130 465 -130 c 2,18,-1
 530 -130 l 1,19,-1
 530 -216 l 1,20,-1
 435 -216 l 2,21,22
 376 -216 376 -216 341.5 -187 c 128,-1,23
 307 -158 307 -158 307 -113 c 0,24,25
 307 -51 307 -51 389 0 c 1,26,-1
 88 0 l 1,0,-1
EndSplineSet
EndChar

StartChar: eogonek
Encoding: 281 281 220
Width: 600
GlyphClass: 2
Flags: W
AnchorPoint: "Anchor-1" 300 550 basechar 0
LayerCount: 2
Fore
SplineSet
365 -216 m 2,0,1
 307 -216 307 -216 272.5 -187 c 128,-1,2
 238 -158 238 -158 238 -113 c 0,3,4
 238 -62 238 -62 306 -10 c 1,5,-1
 301 -10 l 2,6,7
 231 -10 231 -10 179.5 17 c 128,-1,8
 128 44 128 44 100 92.5 c 128,-1,9
 72 141 72 141 72 206 c 2,10,-1
 72 344 l 2,11,12
 72 409 72 409 100 457.5 c 128,-1,13
 128 506 128 506 179.5 533 c 128,-1,14
 231 560 231 560 301 560 c 0,15,16
 370 560 370 560 421.5 533 c 128,-1,17
 473 506 473 506 500.5 457.5 c 128,-1,18
 528 409 528 409 528 344 c 2,19,-1
 528 245 l 1,20,-1
 192 245 l 1,21,-1
 192 206 l 2,22,23
 192 89 192 89 302 89 c 0,24,25
 387 89 387 89 401 146 c 1,26,-1
 525 146 l 1,27,28
 517 106 517 106 492.5 74.5 c 128,-1,29
 468 43 468 43 433 23 c 1,30,-1
 396 -10 l 2,31,32
 346 -54 346 -54 346 -87 c 0,33,34
 346 -105 346 -105 359 -117.5 c 128,-1,35
 372 -130 372 -130 396 -130 c 2,36,-1
 461 -130 l 1,37,-1
 461 -216 l 1,38,-1
 365 -216 l 2,0,1
192 344 m 2,39,-1
 192 323 l 1,40,-1
 408 324 l 1,41,-1
 408 345 l 2,42,43
 408 402 408 402 381.5 432.5 c 128,-1,44
 355 463 355 463 301 463 c 0,45,46
 246 463 246 463 219 432 c 128,-1,47
 192 401 192 401 192 344 c 2,39,-1
EndSplineSet
EndChar

StartChar: Hbar
Encoding: 294 294 233
Width: 600
GlyphClass: 2
Flags: W
AnchorPoint: "Anchor-5" 300 365 basechar 0
AnchorPoint: "Anchor-3" 300 0 basechar 0
AnchorPoint: "Anchor-1" 300 730 basechar 0
LayerCount: 2
Fore
SplineSet
77 0 m 1,0,-1
 77 525 l 1,1,-1
 10 525 l 1,2,-1
 10 612 l 1,3,-1
 77 612 l 1,4,-1
 77 730 l 1,5,-1
 202 730 l 1,6,-1
 202 612 l 1,7,-1
 398 612 l 1,8,-1
 398 730 l 1,9,-1
 523 730 l 1,10,-1
 523 612 l 1,11,-1
 590 612 l 1,12,-1
 590 525 l 1,13,-1
 523 525 l 1,14,-1
 523 0 l 1,15,-1
 398 0 l 1,16,-1
 398 321 l 1,17,-1
 202 321 l 1,18,-1
 202 0 l 1,19,-1
 77 0 l 1,0,-1
202 434 m 1,20,-1
 398 434 l 1,21,-1
 398 525 l 1,22,-1
 202 525 l 1,23,-1
 202 434 l 1,20,-1
EndSplineSet
EndChar

StartChar: Iogonek
Encoding: 302 302 241
Width: 600
GlyphClass: 2
Flags: W
AnchorPoint: "Anchor-4" 320 0 basechar 0
AnchorPoint: "Anchor-3" 300 0 basechar 0
AnchorPoint: "Anchor-1" 300 730 basechar 0
LayerCount: 2
Fore
SplineSet
90 0 m 1,0,-1
 90 113 l 1,1,-1
 237 113 l 1,2,-1
 237 617 l 1,3,-1
 90 617 l 1,4,-1
 90 730 l 1,5,-1
 510 730 l 1,6,-1
 510 617 l 1,7,-1
 363 617 l 1,8,-1
 363 113 l 1,9,-1
 510 113 l 1,10,-1
 510 0 l 1,11,-1
 343 0 l 1,12,-1
 332 -10 l 2,13,14
 281 -54 281 -54 281 -87 c 0,15,16
 281 -105 281 -105 294.5 -117.5 c 128,-1,17
 308 -130 308 -130 331 -130 c 2,18,-1
 396 -130 l 1,19,-1
 396 -216 l 1,20,-1
 301 -216 l 2,21,22
 242 -216 242 -216 207.5 -187 c 128,-1,23
 173 -158 173 -158 173 -113 c 0,24,25
 173 -51 173 -51 255 0 c 1,26,-1
 90 0 l 1,0,-1
EndSplineSet
EndChar

StartChar: iogonek
Encoding: 303 303 242
Width: 600
GlyphClass: 2
Flags: W
AnchorPoint: "Anchor-4" 330 0 basechar 0
AnchorPoint: "Anchor-3" 318 0 basechar 0
AnchorPoint: "Anchor-1" 318 786 basechar 0
LayerCount: 2
Fore
SplineSet
318 642 m 256,0,1
 280 642 280 642 258 661.5 c 128,-1,2
 236 681 236 681 236 714 c 256,3,4
 236 747 236 747 258 766.5 c 128,-1,5
 280 786 280 786 318 786 c 256,6,7
 356 786 356 786 378 766.5 c 128,-1,8
 400 747 400 747 400 714 c 256,9,10
 400 681 400 681 378 661.5 c 128,-1,11
 356 642 356 642 318 642 c 256,0,1
76 0 m 1,12,-1
 76 113 l 1,13,-1
 264 113 l 1,14,-1
 264 437 l 1,15,-1
 96 437 l 1,16,-1
 96 550 l 1,17,-1
 389 550 l 1,18,-1
 389 113 l 1,19,-1
 558 113 l 1,20,-1
 558 0 l 1,21,-1
 361 0 l 1,22,-1
 350 -10 l 2,23,24
 299 -54 299 -54 299 -87 c 0,25,26
 299 -105 299 -105 312 -117.5 c 128,-1,27
 325 -130 325 -130 349 -130 c 2,28,-1
 414 -130 l 1,29,-1
 414 -216 l 1,30,-1
 318 -216 l 2,31,32
 260 -216 260 -216 225.5 -187 c 128,-1,33
 191 -158 191 -158 191 -113 c 0,34,35
 191 -51 191 -51 273 0 c 1,36,-1
 76 0 l 1,12,-1
EndSplineSet
Substitution2: "Single Substitution lookup 883 subtable" iogonekdotless
Substitution2: "Single Substitution lookup 882 subtable" iogonekdotless
EndChar

StartChar: dotlessi
Encoding: 305 305 244
Width: 600
GlyphClass: 2
Flags: W
AnchorPoint: "Anchor-4" 330 0 basechar 0
AnchorPoint: "Anchor-3" 318 0 basechar 0
AnchorPoint: "Anchor-1" 318 550 basechar 0
LayerCount: 2
Fore
SplineSet
76 0 m 1,0,-1
 76 113 l 1,1,-1
 264 113 l 1,2,-1
 264 437 l 1,3,-1
 96 437 l 1,4,-1
 96 550 l 1,5,-1
 389 550 l 1,6,-1
 389 113 l 1,7,-1
 558 113 l 1,8,-1
 558 0 l 1,9,-1
 76 0 l 1,0,-1
EndSplineSet
EndChar

StartChar: Lslash
Encoding: 321 321 258
Width: 600
GlyphClass: 2
Flags: W
AnchorPoint: "Anchor-5" 306 365 basechar 0
AnchorPoint: "Anchor-3" 346 0 basechar 0
AnchorPoint: "Anchor-1" 190 730 basechar 0
LayerCount: 2
Fore
SplineSet
127 0 m 1,0,-1
 127 291 l 1,1,-1
 20 230 l 1,2,-1
 20 345 l 1,3,-1
 127 406 l 1,4,-1
 127 730 l 1,5,-1
 252 730 l 1,6,-1
 252 478 l 1,7,-1
 396 560 l 1,8,-1
 396 445 l 1,9,-1
 252 363 l 1,10,-1
 252 113 l 1,11,-1
 562 113 l 1,12,-1
 562 0 l 1,13,-1
 127 0 l 1,0,-1
EndSplineSet
EndChar

StartChar: lslash
Encoding: 322 322 259
Width: 600
GlyphClass: 2
Flags: W
AnchorPoint: "Anchor-5" 300 365 basechar 0
AnchorPoint: "Anchor-3" 320 0 basechar 0
AnchorPoint: "Anchor-1" 258 730 basechar 0
LayerCount: 2
Fore
SplineSet
100 230 m 1,0,-1
 100 345 l 1,1,-1
 208 407 l 1,2,-1
 208 617 l 1,3,-1
 27 617 l 1,4,-1
 27 730 l 1,5,-1
 333 730 l 1,6,-1
 333 479 l 1,7,-1
 476 560 l 1,8,-1
 476 445 l 1,9,-1
 333 363 l 1,10,-1
 333 181 l 2,11,12
 333 150 333 150 350.5 131.5 c 128,-1,13
 368 113 368 113 398 113 c 2,14,-1
 559 113 l 1,15,-1
 559 0 l 1,16,-1
 389 0 l 2,17,18
 307 0 307 0 257.5 49 c 128,-1,19
 208 98 208 98 208 178 c 2,20,-1
 208 292 l 1,21,-1
 100 230 l 1,0,-1
EndSplineSet
Substitution2: "'cv05' Character Variants 05 in Latin lookup 921 subtable" lslash.cv05
Substitution2: "'cv01' Character Variants 01 in Latin lookup 917 subtable" lslash.cv01
Substitution2: "'ss02' Style Set 2 in Latin lookup 914 subtable" lslash.cv05
Substitution2: "'ss01' Style Set 1 in Latin lookup 913 subtable" lslash.cv01
EndChar

StartChar: Eng
Encoding: 330 330 267
Width: 600
GlyphClass: 2
Flags: W
LayerCount: 2
Fore
SplineSet
246 -180 m 1,0,-1
 246 -61 l 1,1,-1
 308 -61 l 2,2,3
 352 -61 352 -61 377 -37 c 128,-1,4
 402 -13 402 -13 402 30 c 1,5,-1
 174 590 l 1,6,7
 176 561 176 561 179 520 c 128,-1,8
 182 479 182 479 184 436 c 128,-1,9
 186 393 186 393 186 357 c 2,10,-1
 186 0 l 1,11,-1
 72 0 l 1,12,-1
 72 730 l 1,13,-1
 225 730 l 1,14,-1
 428 228 l 1,15,16
 425 260 425 260 422 303.5 c 128,-1,17
 419 347 419 347 416.5 392 c 128,-1,18
 414 437 414 437 414 472 c 2,19,-1
 414 730 l 1,20,-1
 528 730 l 1,21,-1
 528 21 l 2,22,23
 528 -39 528 -39 499.5 -84 c 128,-1,24
 471 -129 471 -129 420 -154.5 c 128,-1,25
 369 -180 369 -180 302 -180 c 2,26,-1
 246 -180 l 1,0,-1
EndSplineSet
EndChar

StartChar: eng
Encoding: 331 331 268
Width: 600
GlyphClass: 2
Flags: W
LayerCount: 2
Fore
SplineSet
244 -180 m 1,0,-1
 244 -61 l 1,1,-1
 305 -61 l 2,2,3
 349 -61 349 -61 374 -37 c 128,-1,4
 399 -13 399 -13 399 30 c 2,5,-1
 399 348 l 2,6,7
 399 398 399 398 373 425 c 128,-1,8
 347 452 347 452 301 452 c 256,9,10
 255 452 255 452 229 424 c 128,-1,11
 203 396 203 396 203 344 c 2,12,-1
 203 0 l 1,13,-1
 78 0 l 1,14,-1
 78 550 l 1,15,-1
 200 550 l 1,16,-1
 200 445 l 1,17,-1
 202 445 l 1,18,19
 210 499 210 499 248 529.5 c 128,-1,20
 286 560 286 560 347 560 c 0,21,22
 428 560 428 560 476 506 c 128,-1,23
 524 452 524 452 524 361 c 2,24,-1
 524 21 l 2,25,26
 524 -39 524 -39 495.5 -84 c 128,-1,27
 467 -129 467 -129 416.5 -154.5 c 128,-1,28
 366 -180 366 -180 299 -180 c 2,29,-1
 244 -180 l 1,0,-1
EndSplineSet
EndChar

StartChar: OE
Encoding: 338 338 275
Width: 600
GlyphClass: 2
Flags: W
LayerCount: 2
Fore
SplineSet
183 -6 m 0,0,1
 113 -6 113 -6 73.5 46 c 128,-1,2
 34 98 34 98 34 189 c 2,3,-1
 34 545 l 2,4,5
 34 636 34 636 73.5 688 c 128,-1,6
 113 740 113 740 183 740 c 0,7,8
 219 740 219 740 242.5 725.5 c 128,-1,9
 266 711 266 711 278.5 690.5 c 128,-1,10
 291 670 291 670 293 650 c 1,11,-1
 298 650 l 1,12,-1
 298 730 l 1,13,-1
 578 730 l 1,14,-1
 578 623 l 1,15,-1
 410 623 l 1,16,-1
 410 429 l 1,17,-1
 553 429 l 1,18,-1
 553 321 l 1,19,-1
 410 321 l 1,20,-1
 410 108 l 1,21,-1
 578 108 l 1,22,-1
 578 0 l 1,23,-1
 298 0 l 1,24,-1
 298 84 l 1,25,-1
 293 84 l 1,26,27
 291 64 291 64 278.5 43 c 128,-1,28
 266 22 266 22 242.5 8 c 128,-1,29
 219 -6 219 -6 183 -6 c 0,0,1
224 100 m 256,30,31
 257 100 257 100 276 123.5 c 128,-1,32
 295 147 295 147 295 189 c 2,33,-1
 295 545 l 2,34,35
 295 587 295 587 276 610.5 c 128,-1,36
 257 634 257 634 224 634 c 256,37,38
 191 634 191 634 172 610 c 128,-1,39
 153 586 153 586 153 545 c 2,40,-1
 153 189 l 2,41,42
 153 147 153 147 172 123.5 c 128,-1,43
 191 100 191 100 224 100 c 256,30,31
EndSplineSet
EndChar

StartChar: oe
Encoding: 339 339 276
Width: 600
GlyphClass: 2
Flags: W
LayerCount: 2
Fore
SplineSet
180 -10 m 0,0,1
 114 -10 114 -10 74.5 32 c 128,-1,2
 35 74 35 74 35 144 c 2,3,-1
 35 406 l 2,4,5
 35 476 35 476 74.5 518 c 128,-1,6
 114 560 114 560 180 560 c 0,7,8
 218 560 218 560 243 547.5 c 128,-1,9
 268 535 268 535 281 517 c 128,-1,10
 294 499 294 499 297 483 c 1,11,-1
 303 483 l 1,12,13
 305 499 305 499 318 517 c 128,-1,14
 331 535 331 535 356 547.5 c 128,-1,15
 381 560 381 560 420 560 c 0,16,17
 486 560 486 560 525.5 518 c 128,-1,18
 565 476 565 476 565 406 c 2,19,-1
 565 250 l 1,20,-1
 351 250 l 1,21,-1
 351 144 l 2,22,23
 351 114 351 114 366 96.5 c 128,-1,24
 381 79 381 79 406 79 c 0,25,26
 430 79 430 79 444.5 93.5 c 128,-1,27
 459 108 459 108 461 134 c 1,28,-1
 564 134 l 1,29,30
 560 68 560 68 520.5 29 c 128,-1,31
 481 -10 481 -10 420 -10 c 0,32,33
 381 -10 381 -10 356 2.5 c 128,-1,34
 331 15 331 15 318 33 c 128,-1,35
 305 51 305 51 303 67 c 1,36,-1
 297 67 l 1,37,38
 294 51 294 51 281 33 c 128,-1,39
 268 15 268 15 243 2.5 c 128,-1,40
 218 -10 218 -10 180 -10 c 0,0,1
194 79 m 256,41,42
 220 79 220 79 234.5 96 c 128,-1,43
 249 113 249 113 249 144 c 2,44,-1
 249 406 l 2,45,46
 249 437 249 437 234.5 454 c 128,-1,47
 220 471 220 471 194 471 c 256,48,49
 168 471 168 471 153 453.5 c 128,-1,50
 138 436 138 436 138 406 c 2,51,-1
 138 144 l 2,52,53
 138 114 138 114 153 96.5 c 128,-1,54
 168 79 168 79 194 79 c 256,41,42
351 327 m 1,55,-1
 462 327 l 1,56,-1
 462 406 l 2,57,58
 462 437 462 437 447.5 454 c 128,-1,59
 433 471 433 471 406 471 c 0,60,61
 381 471 381 471 366 453.5 c 128,-1,62
 351 436 351 436 351 406 c 2,63,-1
 351 327 l 1,55,-1
EndSplineSet
EndChar

StartChar: Scedilla
Encoding: 350 350 287
Width: 600
GlyphClass: 2
Flags: W
AnchorPoint: "Anchor-3" 300 0 basechar 0
AnchorPoint: "Anchor-1" 300 730 basechar 0
LayerCount: 2
Fore
SplineSet
199 -216 m 1,0,-1
 199 -152 l 1,1,-1
 275 -152 l 2,2,3
 299 -152 299 -152 313.5 -140.5 c 128,-1,4
 328 -129 328 -129 328 -116 c 0,5,6
 328 -95 328 -95 298.5 -82 c 128,-1,7
 269 -69 269 -69 216 -69 c 1,8,-1
 241 -5 l 1,9,10
 156 10 156 10 106.5 65 c 128,-1,11
 57 120 57 120 57 206 c 1,12,-1
 180 206 l 1,13,14
 180 157 180 157 213.5 128 c 128,-1,15
 247 99 247 99 303 99 c 0,16,17
 357 99 357 99 388.5 127.5 c 128,-1,18
 420 156 420 156 420 204 c 0,19,20
 420 240 420 240 399.5 267.5 c 128,-1,21
 379 295 379 295 341 305 c 2,22,-1
 243 330 l 2,23,24
 164 350 164 350 118 405 c 128,-1,25
 72 460 72 460 72 536 c 0,26,27
 72 629 72 629 133 684.5 c 128,-1,28
 194 740 194 740 296 740 c 0,29,30
 365 740 365 740 416.5 715 c 128,-1,31
 468 690 468 690 496 644.5 c 128,-1,32
 524 599 524 599 524 538 c 1,33,-1
 402 538 l 1,34,35
 402 580 402 580 373 606 c 128,-1,36
 344 632 344 632 296 632 c 0,37,38
 249 632 249 632 221.5 606.5 c 128,-1,39
 194 581 194 581 194 540 c 0,40,41
 194 506 194 506 213.5 484 c 128,-1,42
 233 462 233 462 268 452 c 2,43,-1
 369 427 l 2,44,45
 450 407 450 407 496.5 347 c 128,-1,46
 543 287 543 287 543 204 c 0,47,48
 543 139 543 139 513.5 91 c 128,-1,49
 484 43 484 43 431 16.5 c 128,-1,50
 378 -10 378 -10 307 -10 c 1,51,-1
 298 -37 l 1,52,53
 326 -40 326 -40 357 -50.5 c 128,-1,54
 388 -61 388 -61 409 -80 c 128,-1,55
 430 -99 430 -99 430 -128 c 0,56,57
 430 -163 430 -163 394 -189.5 c 128,-1,58
 358 -216 358 -216 299 -216 c 2,59,-1
 199 -216 l 1,0,-1
EndSplineSet
Substitution2: "'locl' Localized Forms in Latin lookup 894 subtable" uni0218
Substitution2: "'locl' Localized Forms in Latin lookup 893 subtable" uni0218
Substitution2: "'aalt' Access All Alternates in Latin lookup 477 subtable" uni0218
EndChar

StartChar: scedilla
Encoding: 351 351 288
Width: 600
GlyphClass: 2
Flags: W
AnchorPoint: "Anchor-3" 300 0 basechar 0
AnchorPoint: "Anchor-1" 300 550 basechar 0
LayerCount: 2
Fore
SplineSet
206 -216 m 1,0,-1
 206 -152 l 1,1,-1
 282 -152 l 2,2,3
 306 -152 306 -152 320.5 -140.5 c 128,-1,4
 335 -129 335 -129 335 -116 c 0,5,6
 335 -95 335 -95 305.5 -82 c 128,-1,7
 276 -69 276 -69 223 -69 c 1,8,-1
 247 -8 l 1,9,10
 162 -1 162 -1 113.5 42.5 c 128,-1,11
 65 86 65 86 65 156 c 1,12,-1
 188 156 l 1,13,14
 188 124 188 124 211.5 107 c 128,-1,15
 235 90 235 90 277 90 c 2,16,-1
 321 90 l 2,17,18
 366 90 366 90 390.5 107 c 128,-1,19
 415 124 415 124 415 156 c 0,20,21
 415 186 415 186 398 200.5 c 128,-1,22
 381 215 381 215 346 220 c 2,23,-1
 209 238 l 2,24,25
 143 247 143 247 107.5 289 c 128,-1,26
 72 331 72 331 72 398 c 0,27,28
 72 476 72 476 124 517.5 c 128,-1,29
 176 559 176 559 274 559 c 2,30,-1
 320 559 l 2,31,32
 412 559 412 559 468 517 c 128,-1,33
 524 475 524 475 526 405 c 1,34,-1
 402 405 l 1,35,36
 401 431 401 431 379 446.5 c 128,-1,37
 357 462 357 462 320 462 c 2,38,-1
 274 462 l 2,39,40
 234 462 234 462 213 445.5 c 128,-1,41
 192 429 192 429 192 401 c 0,42,43
 192 376 192 376 207.5 364 c 128,-1,44
 223 352 223 352 253 349 c 2,45,-1
 382 331 l 2,46,47
 458 322 458 322 496.5 277.5 c 128,-1,48
 535 233 535 233 535 158 c 0,49,50
 535 78 535 78 480.5 34.5 c 128,-1,51
 426 -9 426 -9 321 -9 c 2,52,-1
 314 -9 l 1,53,-1
 305 -37 l 1,54,55
 333 -40 333 -40 364 -50.5 c 128,-1,56
 395 -61 395 -61 416.5 -80 c 128,-1,57
 438 -99 438 -99 438 -128 c 0,58,59
 438 -163 438 -163 401.5 -189.5 c 128,-1,60
 365 -216 365 -216 306 -216 c 2,61,-1
 206 -216 l 1,0,-1
EndSplineSet
Substitution2: "'locl' Localized Forms in Latin lookup 894 subtable" uni0219
Substitution2: "'locl' Localized Forms in Latin lookup 893 subtable" uni0219
Substitution2: "'aalt' Access All Alternates in Latin lookup 477 subtable" uni0219
EndChar

StartChar: uni0162
Encoding: 354 354 291
Width: 600
GlyphClass: 2
Flags: W
AnchorPoint: "Anchor-5" 300 365 basechar 0
AnchorPoint: "Anchor-3" 300 0 basechar 0
AnchorPoint: "Anchor-1" 300 730 basechar 0
LayerCount: 2
Fore
SplineSet
237 0 m 1,0,-1
 237 617 l 1,1,-1
 46 617 l 1,2,-1
 46 730 l 1,3,-1
 554 730 l 1,4,-1
 554 617 l 1,5,-1
 363 617 l 1,6,-1
 363 0 l 1,7,-1
 350 -37 l 1,8,9
 379 -40 379 -40 409.5 -50.5 c 128,-1,10
 440 -61 440 -61 461.5 -80 c 128,-1,11
 483 -99 483 -99 483 -128 c 0,12,13
 483 -163 483 -163 446.5 -189.5 c 128,-1,14
 410 -216 410 -216 351 -216 c 2,15,-1
 252 -216 l 1,16,-1
 252 -152 l 1,17,-1
 327 -152 l 2,18,19
 351 -152 351 -152 365.5 -140.5 c 128,-1,20
 380 -129 380 -129 380 -116 c 0,21,22
 380 -95 380 -95 350.5 -82 c 128,-1,23
 321 -69 321 -69 268 -69 c 1,24,-1
 296 0 l 1,25,-1
 237 0 l 1,0,-1
EndSplineSet
Substitution2: "'locl' Localized Forms in Latin lookup 894 subtable" uni021A
Substitution2: "'locl' Localized Forms in Latin lookup 893 subtable" uni021A
Substitution2: "'aalt' Access All Alternates in Latin lookup 477 subtable" uni021A
EndChar

StartChar: uni0163
Encoding: 355 355 292
Width: 600
GlyphClass: 2
Flags: W
AnchorPoint: "Anchor-5" 300 275 basechar 0
AnchorPoint: "Anchor-3" 360 0 basechar 0
AnchorPoint: "Anchor-1" 250 705 basechar 0
AnchorPoint: "Anchor-0" 367 621 basechar 0
LayerCount: 2
Fore
SplineSet
256 -216 m 1,0,-1
 256 -152 l 1,1,-1
 332 -152 l 2,2,3
 356 -152 356 -152 370.5 -140.5 c 128,-1,4
 385 -129 385 -129 385 -116 c 0,5,6
 385 -95 385 -95 355.5 -82 c 128,-1,7
 326 -69 326 -69 273 -69 c 1,8,-1
 303 6 l 1,9,10
 249 20 249 20 218 61.5 c 128,-1,11
 187 103 187 103 187 165 c 2,12,-1
 187 437 l 1,13,-1
 35 437 l 1,14,-1
 35 550 l 1,15,-1
 187 550 l 1,16,-1
 187 705 l 1,17,-1
 313 705 l 1,18,-1
 313 550 l 1,19,-1
 532 550 l 1,20,-1
 532 437 l 1,21,-1
 313 437 l 1,22,-1
 313 168 l 2,23,24
 313 144 313 144 326.5 128.5 c 128,-1,25
 340 113 340 113 364 113 c 2,26,-1
 527 113 l 1,27,-1
 527 0 l 1,28,-1
 368 0 l 1,29,-1
 355 -37 l 1,30,31
 383 -40 383 -40 414 -50.5 c 128,-1,32
 445 -61 445 -61 466.5 -80 c 128,-1,33
 488 -99 488 -99 488 -128 c 0,34,35
 488 -163 488 -163 451.5 -189.5 c 128,-1,36
 415 -216 415 -216 356 -216 c 2,37,-1
 256 -216 l 1,0,-1
EndSplineSet
Substitution2: "'cv02' Character Variants 02 in Latin lookup 918 subtable" uni0163.cv02
Substitution2: "'ss02' Style Set 2 in Latin lookup 914 subtable" uni0163.cv02
Substitution2: "'locl' Localized Forms in Latin lookup 894 subtable" uni021B
Substitution2: "'locl' Localized Forms in Latin lookup 893 subtable" uni021B
Substitution2: "'aalt' Access All Alternates in Latin lookup 477 subtable" uni021B
EndChar

StartChar: Tbar
Encoding: 358 358 295
Width: 600
GlyphClass: 2
Flags: W
AnchorPoint: "Anchor-5" 300 365 basechar 0
AnchorPoint: "Anchor-3" 300 0 basechar 0
AnchorPoint: "Anchor-1" 300 730 basechar 0
LayerCount: 2
Fore
SplineSet
237 0 m 1,0,-1
 237 277 l 1,1,-1
 104 277 l 1,2,-1
 104 382 l 1,3,-1
 237 382 l 1,4,-1
 237 617 l 1,5,-1
 46 617 l 1,6,-1
 46 730 l 1,7,-1
 554 730 l 1,8,-1
 554 617 l 1,9,-1
 363 617 l 1,10,-1
 363 382 l 1,11,-1
 496 382 l 1,12,-1
 496 277 l 1,13,-1
 363 277 l 1,14,-1
 363 0 l 1,15,-1
 237 0 l 1,0,-1
EndSplineSet
EndChar

StartChar: tbar
Encoding: 359 359 296
Width: 600
GlyphClass: 2
Flags: W
AnchorPoint: "Anchor-5" 300 275 basechar 0
AnchorPoint: "Anchor-3" 360 0 basechar 0
AnchorPoint: "Anchor-1" 250 705 basechar 0
AnchorPoint: "Anchor-0" 367 621 basechar 0
LayerCount: 2
Fore
SplineSet
76 228 m 1,0,-1
 76 326 l 1,1,-1
 187 326 l 1,2,-1
 187 437 l 1,3,-1
 35 437 l 1,4,-1
 35 550 l 1,5,-1
 187 550 l 1,6,-1
 187 705 l 1,7,-1
 313 705 l 1,8,-1
 313 550 l 1,9,-1
 532 550 l 1,10,-1
 532 437 l 1,11,-1
 313 437 l 1,12,-1
 313 326 l 1,13,-1
 484 326 l 1,14,-1
 484 228 l 1,15,-1
 313 228 l 1,16,-1
 313 168 l 2,17,18
 313 144 313 144 326.5 128.5 c 128,-1,19
 340 113 340 113 364 113 c 2,20,-1
 527 113 l 1,21,-1
 527 0 l 1,22,-1
 355 0 l 2,23,24
 278 0 278 0 232.5 44.5 c 128,-1,25
 187 89 187 89 187 165 c 2,26,-1
 187 228 l 1,27,-1
 76 228 l 1,0,-1
EndSplineSet
Substitution2: "'cv02' Character Variants 02 in Latin lookup 918 subtable" tbar.cv02
Substitution2: "'ss02' Style Set 2 in Latin lookup 914 subtable" tbar.cv02
EndChar

StartChar: Uogonek
Encoding: 370 370 307
Width: 600
GlyphClass: 2
Flags: W
AnchorPoint: "Anchor-2" 385 730 basechar 0
AnchorPoint: "Anchor-1" 300 730 basechar 0
LayerCount: 2
Fore
SplineSet
364 -216 m 2,0,1
 306 -216 306 -216 271.5 -187 c 128,-1,2
 237 -158 237 -158 237 -113 c 0,3,4
 237 -89 237 -89 256.5 -61 c 128,-1,5
 276 -33 276 -33 307 -9 c 1,6,-1
 300 -10 l 1,7,8
 195 -10 195 -10 133.5 48.5 c 128,-1,9
 72 107 72 107 72 206 c 2,10,-1
 72 730 l 1,11,-1
 198 730 l 1,12,-1
 198 206 l 2,13,14
 198 155 198 155 223.5 127.5 c 128,-1,15
 249 100 249 100 300 100 c 256,16,17
 351 100 351 100 376.5 127.5 c 128,-1,18
 402 155 402 155 402 206 c 2,19,-1
 402 730 l 1,20,-1
 528 730 l 1,21,-1
 528 206 l 2,22,23
 528 145 528 145 502.5 97.5 c 128,-1,24
 477 50 477 50 432 23 c 1,25,-1
 392 -10 l 2,26,27
 367 -30 367 -30 356 -50 c 128,-1,28
 345 -70 345 -70 345 -87 c 0,29,30
 345 -105 345 -105 358 -117.5 c 128,-1,31
 371 -130 371 -130 395 -130 c 2,32,-1
 460 -130 l 1,33,-1
 460 -216 l 1,34,-1
 364 -216 l 2,0,1
EndSplineSet
EndChar

StartChar: uogonek
Encoding: 371 371 308
Width: 600
GlyphClass: 2
Flags: W
AnchorPoint: "Anchor-2" 414 550 basechar 0
AnchorPoint: "Anchor-1" 300 550 basechar 0
LayerCount: 2
Fore
SplineSet
364 -216 m 2,0,1
 306 -216 306 -216 271.5 -187 c 128,-1,2
 237 -158 237 -158 237 -113 c 0,3,4
 237 -88 237 -88 254 -62.5 c 128,-1,5
 271 -37 271 -37 307 -9 c 1,6,7
 303 -10 303 -10 300 -10 c 0,8,9
 195 -10 195 -10 135 48.5 c 128,-1,10
 75 107 75 107 75 206 c 2,11,-1
 75 550 l 1,12,-1
 200 550 l 1,13,-1
 200 206 l 2,14,15
 200 99 200 99 300 99 c 256,16,17
 400 99 400 99 400 206 c 2,18,-1
 400 550 l 1,19,-1
 525 550 l 1,20,-1
 525 206 l 2,21,22
 525 147 525 147 502.5 101 c 128,-1,23
 480 55 480 55 438 27 c 1,24,-1
 395 -10 l 2,25,26
 345 -52 345 -52 345 -87 c 0,27,28
 345 -105 345 -105 358 -117.5 c 128,-1,29
 371 -130 371 -130 395 -130 c 2,30,-1
 460 -130 l 1,31,-1
 460 -216 l 1,32,-1
 364 -216 l 2,0,1
EndSplineSet
Substitution2: "'cv12' Character Variants 12 in Latin lookup 928 subtable" uogonek.cv12
Substitution2: "'ss01' Style Set 1 in Latin lookup 913 subtable" uogonek.cv12
EndChar

StartChar: longs
Encoding: 383 383 320
Width: 600
GlyphClass: 2
Flags: W
LayerCount: 2
Fore
SplineSet
147 0 m 1,0,-1
 147 544 l 2,1,2
 147 629 147 629 200.5 679.5 c 128,-1,3
 254 730 254 730 343 730 c 2,4,-1
 525 730 l 1,5,-1
 525 621 l 1,6,-1
 349 621 l 2,7,8
 315 621 315 621 294 599.5 c 128,-1,9
 273 578 273 578 273 544 c 2,10,-1
 273 0 l 1,11,-1
 147 0 l 1,0,-1
EndSplineSet
EndChar

StartChar: uni018F
Encoding: 399 399 321
Width: 600
GlyphClass: 2
Flags: W
LayerCount: 2
Fore
SplineSet
301 -10 m 256,0,1
 231 -10 231 -10 179.5 17 c 128,-1,2
 128 44 128 44 100 92.5 c 128,-1,3
 72 141 72 141 72 206 c 2,4,-1
 72 409 l 1,5,-1
 402 409 l 1,6,-1
 402 525 l 2,7,8
 402 576 402 576 376.5 603.5 c 128,-1,9
 351 631 351 631 301 631 c 0,10,11
 250 631 250 631 224.5 603 c 128,-1,12
 199 575 199 575 199 524 c 1,13,-1
 74 524 l 1,14,15
 74 623 74 623 135 681.5 c 128,-1,16
 196 740 196 740 301 740 c 256,17,18
 406 740 406 740 467 681.5 c 128,-1,19
 528 623 528 623 528 524 c 2,20,-1
 528 206 l 2,21,22
 528 141 528 141 500 92.5 c 128,-1,23
 472 44 472 44 421.5 17 c 128,-1,24
 371 -10 371 -10 301 -10 c 256,0,1
301 88 m 0,25,26
 355 88 355 88 378.5 118.5 c 128,-1,27
 402 149 402 149 402 206 c 2,28,-1
 402 316 l 1,29,-1
 198 316 l 1,30,-1
 198 206 l 2,31,32
 198 88 198 88 301 88 c 0,25,26
EndSplineSet
EndChar

StartChar: uni0190
Encoding: 400 400 322
Width: 600
GlyphClass: 2
Flags: W
AnchorPoint: "Anchor-3" 300 0 basechar 0
AnchorPoint: "Anchor-1" 300 730 basechar 0
LayerCount: 2
Fore
SplineSet
309 -10 m 0,0,1
 233 -10 233 -10 175.5 17 c 128,-1,2
 118 44 118 44 85.5 92 c 128,-1,3
 53 140 53 140 53 204 c 0,4,5
 53 272 53 272 91 322.5 c 128,-1,6
 129 373 129 373 190 385 c 1,7,-1
 190 388 l 1,8,9
 139 398 139 398 106.5 442 c 128,-1,10
 74 486 74 486 74 545 c 0,11,12
 74 603 74 603 103.5 647 c 128,-1,13
 133 691 133 691 185 715.5 c 128,-1,14
 237 740 237 740 305 740 c 0,15,16
 375 740 375 740 428 712.5 c 128,-1,17
 481 685 481 685 510.5 636.5 c 128,-1,18
 540 588 540 588 540 524 c 1,19,-1
 417 524 l 1,20,21
 417 573 417 573 386 603.5 c 128,-1,22
 355 634 355 634 306 634 c 0,23,24
 259 634 259 634 229 606.5 c 128,-1,25
 199 579 199 579 199 534 c 256,26,27
 199 489 199 489 229 460.5 c 128,-1,28
 259 432 259 432 307 432 c 2,29,-1
 392 432 l 1,30,-1
 392 326 l 1,31,-1
 309 326 l 2,32,33
 251 326 251 326 215.5 294.5 c 128,-1,34
 180 263 180 263 180 212 c 256,35,36
 180 161 180 161 215.5 129.5 c 128,-1,37
 251 98 251 98 309 98 c 0,38,39
 365 98 365 98 400.5 128 c 128,-1,40
 436 158 436 158 437 206 c 1,41,-1
 560 206 l 1,42,43
 560 142 560 142 528 93.5 c 128,-1,44
 496 45 496 45 439.5 17.5 c 128,-1,45
 383 -10 383 -10 309 -10 c 0,0,1
EndSplineSet
EndChar

StartChar: florin
Encoding: 402 402 323
Width: 600
GlyphClass: 2
Flags: W
LayerCount: 2
Fore
SplineSet
0 -180 m 1,0,-1
 0 -61 l 1,1,-1
 117 -61 l 2,2,3
 161 -61 161 -61 186 -37 c 128,-1,4
 211 -13 211 -13 211 30 c 2,5,-1
 211 297 l 1,6,-1
 54 297 l 1,7,-1
 54 407 l 1,8,-1
 211 407 l 1,9,-1
 211 570 l 2,10,11
 211 644 211 644 256 687 c 128,-1,12
 301 730 301 730 378 730 c 2,13,-1
 547 730 l 1,14,-1
 547 621 l 1,15,-1
 389 621 l 2,16,17
 336 621 336 621 336 570 c 2,18,-1
 336 407 l 1,19,-1
 550 407 l 1,20,-1
 550 297 l 1,21,-1
 336 297 l 1,22,-1
 336 21 l 2,23,24
 336 -39 336 -39 307.5 -84 c 128,-1,25
 279 -129 279 -129 228.5 -154.5 c 128,-1,26
 178 -180 178 -180 111 -180 c 2,27,-1
 0 -180 l 1,0,-1
EndSplineSet
EndChar

StartChar: uni019B
Encoding: 411 411 324
Width: 600
GlyphClass: 2
Flags: W
LayerCount: 2
Fore
SplineSet
35 0 m 1,0,-1
 238 529 l 1,1,-1
 90 455 l 1,2,-1
 90 550 l 1,3,-1
 216 613 l 1,4,-1
 169 730 l 1,5,-1
 301 730 l 1,6,-1
 323 667 l 1,7,-1
 470 740 l 1,8,-1
 470 645 l 1,9,-1
 352 587 l 1,10,-1
 565 0 l 1,11,-1
 433 0 l 1,12,-1
 325 322 l 2,13,14
 316 350 316 350 310 379.5 c 128,-1,15
 304 409 304 409 301 427 c 1,16,17
 299 409 299 409 293.5 379.5 c 128,-1,18
 288 350 288 350 279 322 c 2,19,-1
 170 0 l 1,20,-1
 35 0 l 1,0,-1
EndSplineSet
EndChar

StartChar: Ohorn
Encoding: 416 416 325
Width: 600
GlyphClass: 2
Flags: W
AnchorPoint: "Anchor-5" 300 365 basechar 0
AnchorPoint: "Anchor-4" 347 0 basechar 0
AnchorPoint: "Anchor-3" 300 0 basechar 0
AnchorPoint: "Anchor-2" 320 700 basechar 0
AnchorPoint: "Anchor-1" 290 730 basechar 0
AnchorPoint: "Anchor-0" 580 730 basechar 0
LayerCount: 2
Fore
SplineSet
300 -10 m 256,0,1
 195 -10 195 -10 133.5 50 c 128,-1,2
 72 110 72 110 72 216 c 2,3,-1
 72 514 l 2,4,5
 72 620 72 620 133.5 680 c 128,-1,6
 195 740 195 740 300 740 c 0,7,8
 383 740 383 740 440 702 c 1,9,10
 461 709 461 709 461 735 c 2,11,-1
 461 810 l 1,12,-1
 563 810 l 1,13,-1
 563 733 l 2,14,15
 563 698 563 698 547 671.5 c 128,-1,16
 531 645 531 645 503 630 c 1,17,18
 528 581 528 581 528 515 c 2,19,-1
 528 216 l 2,20,21
 528 110 528 110 466.5 50 c 128,-1,22
 405 -10 405 -10 300 -10 c 256,0,1
300 100 m 256,23,24
 351 100 351 100 377 127.5 c 128,-1,25
 403 155 403 155 403 206 c 2,26,-1
 403 524 l 2,27,28
 403 575 403 575 377 602.5 c 128,-1,29
 351 630 351 630 300 630 c 256,30,31
 249 630 249 630 223 602.5 c 128,-1,32
 197 575 197 575 197 524 c 2,33,-1
 197 206 l 2,34,35
 197 155 197 155 223 127.5 c 128,-1,36
 249 100 249 100 300 100 c 256,23,24
EndSplineSet
EndChar

StartChar: ohorn
Encoding: 417 417 326
Width: 600
GlyphClass: 2
Flags: W
AnchorPoint: "Anchor-5" 300 275 basechar 0
AnchorPoint: "Anchor-4" 347 0 basechar 0
AnchorPoint: "Anchor-3" 300 0 basechar 0
AnchorPoint: "Anchor-2" 325 550 basechar 0
AnchorPoint: "Anchor-1" 290 550 basechar 0
AnchorPoint: "Anchor-0" 580 550 basechar 0
LayerCount: 2
Fore
SplineSet
300 -9 m 256,0,1
 194 -9 194 -9 132 50.5 c 128,-1,2
 70 110 70 110 70 211 c 2,3,-1
 70 339 l 2,4,5
 70 441 70 441 132 500 c 128,-1,6
 194 559 194 559 300 559 c 0,7,8
 373 559 373 559 427 530 c 1,9,-1
 427 530 l 1,10,11
 462 530 462 530 462 565 c 2,12,-1
 462 640 l 1,13,-1
 563 640 l 1,14,-1
 563 563 l 2,15,16
 563 527 563 527 546.5 500 c 128,-1,17
 530 473 530 473 501 458 c 1,18,19
 530 408 530 408 530 339 c 2,20,-1
 530 211 l 2,21,22
 530 110 530 110 468 50.5 c 128,-1,23
 406 -9 406 -9 300 -9 c 256,0,1
300 100 m 256,24,25
 350 100 350 100 377.5 127.5 c 128,-1,26
 405 155 405 155 405 207 c 2,27,-1
 405 343 l 2,28,29
 405 395 405 395 377.5 422.5 c 128,-1,30
 350 450 350 450 300 450 c 256,31,32
 250 450 250 450 222.5 422.5 c 128,-1,33
 195 395 195 395 195 343 c 2,34,-1
 195 207 l 2,35,36
 195 155 195 155 222.5 127.5 c 128,-1,37
 250 100 250 100 300 100 c 256,24,25
EndSplineSet
EndChar

StartChar: Uhorn
Encoding: 431 431 327
Width: 600
GlyphClass: 2
Flags: W
AnchorPoint: "Anchor-4" 347 0 basechar 0
AnchorPoint: "Anchor-3" 300 0 basechar 0
AnchorPoint: "Anchor-2" 385 730 basechar 0
AnchorPoint: "Anchor-1" 300 730 basechar 0
AnchorPoint: "Anchor-0" 580 730 basechar 0
LayerCount: 2
Fore
SplineSet
300 -10 m 0,0,1
 193 -10 193 -10 132.5 48.5 c 128,-1,2
 72 107 72 107 72 208 c 2,3,-1
 72 730 l 1,4,-1
 198 730 l 1,5,-1
 198 209 l 2,6,7
 198 157 198 157 224 128 c 128,-1,8
 250 99 250 99 300 99 c 0,9,10
 349 99 349 99 375.5 128 c 128,-1,11
 402 157 402 157 402 209 c 2,12,-1
 402 730 l 1,13,-1
 491 730 l 2,14,15
 526 730 526 730 526 765 c 2,16,-1
 526 840 l 1,17,-1
 628 840 l 1,18,-1
 628 763 l 2,19,20
 628 716 628 716 601 685 c 128,-1,21
 574 654 574 654 528 647 c 1,22,-1
 528 208 l 2,23,24
 528 107 528 107 468 48.5 c 128,-1,25
 408 -10 408 -10 300 -10 c 0,0,1
EndSplineSet
EndChar

StartChar: uhorn
Encoding: 432 432 328
Width: 600
GlyphClass: 2
Flags: W
AnchorPoint: "Anchor-3" 288 0 basechar 0
AnchorPoint: "Anchor-1" 288 550 basechar 0
LayerCount: 2
Fore
SplineSet
75 205 m 2,0,-1
 75 550 l 1,1,-1
 200 550 l 1,2,-1
 200 204 l 2,3,4
 200 153 200 153 223 126 c 128,-1,5
 246 99 246 99 288 99 c 256,6,7
 330 99 330 99 353.5 126 c 128,-1,8
 377 153 377 153 377 204 c 2,9,-1
 377 550 l 1,10,-1
 484 550 l 2,11,12
 519 550 519 550 519 585 c 2,13,-1
 519 660 l 1,14,-1
 620 660 l 1,15,-1
 620 583 l 2,16,17
 620 530 620 530 590 497.5 c 128,-1,18
 560 465 560 465 502 465 c 1,19,-1
 502 205 l 2,20,21
 502 105 502 105 444.5 47.5 c 128,-1,22
 387 -10 387 -10 288 -10 c 256,23,24
 189 -10 189 -10 132 47.5 c 128,-1,25
 75 105 75 105 75 205 c 2,0,-1
EndSplineSet
Substitution2: "'cv12' Character Variants 12 in Latin lookup 928 subtable" uhorn.cv12
Substitution2: "'ss01' Style Set 1 in Latin lookup 913 subtable" uhorn.cv12
EndChar

StartChar: uni01EA
Encoding: 490 490 340
Width: 600
GlyphClass: 2
Flags: W
AnchorPoint: "Anchor-2" 320 700 basechar 0
AnchorPoint: "Anchor-1" 300 730 basechar 0
LayerCount: 2
Fore
SplineSet
364 -216 m 2,0,1
 306 -216 306 -216 271.5 -187 c 128,-1,2
 237 -158 237 -158 237 -113 c 0,3,4
 237 -89 237 -89 256.5 -61 c 128,-1,5
 276 -33 276 -33 307 -9 c 1,6,-1
 300 -10 l 1,7,8
 195 -10 195 -10 133.5 48.5 c 128,-1,9
 72 107 72 107 72 206 c 2,10,-1
 72 524 l 2,11,12
 72 623 72 623 133.5 681.5 c 128,-1,13
 195 740 195 740 300 740 c 256,14,15
 405 740 405 740 466.5 681.5 c 128,-1,16
 528 623 528 623 528 525 c 2,17,-1
 528 206 l 2,18,19
 528 145 528 145 502.5 97.5 c 128,-1,20
 477 50 477 50 432 23 c 1,21,-1
 392 -10 l 2,22,23
 367 -30 367 -30 356 -50 c 128,-1,24
 345 -70 345 -70 345 -87 c 0,25,26
 345 -105 345 -105 358 -117.5 c 128,-1,27
 371 -130 371 -130 395 -130 c 2,28,-1
 460 -130 l 1,29,-1
 460 -216 l 1,30,-1
 364 -216 l 2,0,1
300 100 m 256,31,32
 351 100 351 100 377 127.5 c 128,-1,33
 403 155 403 155 403 206 c 2,34,-1
 403 524 l 2,35,36
 403 575 403 575 377 602.5 c 128,-1,37
 351 630 351 630 300 630 c 256,38,39
 249 630 249 630 223 602.5 c 128,-1,40
 197 575 197 575 197 524 c 2,41,-1
 197 206 l 2,42,43
 197 155 197 155 223 127.5 c 128,-1,44
 249 100 249 100 300 100 c 256,31,32
EndSplineSet
EndChar

